%TF.GenerationSoftware,KiCad,Pcbnew,9.0.7-9.0.7~ubuntu24.04.1*%
%TF.CreationDate,2026-02-19T10:10:56+00:00*%
%TF.ProjectId,v1,76312e6b-6963-4616-945f-706362585858,rev?*%
%TF.SameCoordinates,Original*%
%TF.FileFunction,Copper,L2,Bot*%
%TF.FilePolarity,Positive*%
%FSLAX46Y46*%
G04 Gerber Fmt 4.6, Leading zero omitted, Abs format (unit mm)*
G04 Created by KiCad (PCBNEW 9.0.7-9.0.7~ubuntu24.04.1) date 2026-02-19 10:10:56*
%MOMM*%
%LPD*%
G01*
G04 APERTURE LIST*
%TA.AperFunction,ComponentPad*%
%ADD10C,0.800000*%
%TD*%
%TA.AperFunction,HeatsinkPad*%
%ADD11C,0.600000*%
%TD*%
%TA.AperFunction,ComponentPad*%
%ADD12O,2.100000X1.000000*%
%TD*%
%TA.AperFunction,ComponentPad*%
%ADD13O,1.600000X1.000000*%
%TD*%
%TA.AperFunction,ViaPad*%
%ADD14C,0.800000*%
%TD*%
%TA.AperFunction,ViaPad*%
%ADD15C,1.000000*%
%TD*%
%TA.AperFunction,Conductor*%
%ADD16C,0.250000*%
%TD*%
%TA.AperFunction,Conductor*%
%ADD17C,0.300000*%
%TD*%
%TA.AperFunction,Conductor*%
%ADD18C,0.200000*%
%TD*%
G04 APERTURE END LIST*
D10*
%TO.P,U3,11,PGND*%
%TO.N,GND*%
X108630000Y-91525000D03*
X107766400Y-90950000D03*
X109580000Y-90950000D03*
X108630000Y-90543600D03*
%TD*%
D11*
%TO.P,U6,39,GND*%
%TO.N,Net-(U6-GND-Pad1)*%
X124550000Y-64390000D03*
X124550000Y-65790000D03*
X125250000Y-63690000D03*
X125250000Y-65090000D03*
X125250000Y-66490000D03*
X125925000Y-64390000D03*
X125925000Y-65790000D03*
X126650000Y-63690000D03*
X126650000Y-65090000D03*
X126650000Y-66490000D03*
X127350000Y-64390000D03*
X127350000Y-65790000D03*
%TD*%
D12*
%TO.P,J1,S1,SHIELD*%
%TO.N,Net-(J1-SHIELD)*%
X144240000Y-86700000D03*
D13*
X148420000Y-86700000D03*
D12*
X144240000Y-78060000D03*
D13*
X148420000Y-78060000D03*
%TD*%
D14*
%TO.N,/Power Module/USB_5V*%
X119150000Y-89470000D03*
X119130000Y-85640000D03*
X124100000Y-93010000D03*
X128150000Y-86600000D03*
D15*
%TO.N,GND*%
X106880000Y-98900000D03*
X111630000Y-96300000D03*
X131850000Y-92900000D03*
X108280000Y-98900000D03*
X108630000Y-96000000D03*
X140840000Y-92930000D03*
X111680000Y-94950000D03*
X105630000Y-95100000D03*
X130950000Y-94000000D03*
X105640000Y-96500000D03*
X139470000Y-92300000D03*
X109680000Y-98900000D03*
X106030000Y-93600000D03*
X108650000Y-94630000D03*
X117900000Y-90890000D03*
X111580000Y-93600000D03*
D14*
X107675088Y-88209728D03*
D15*
X146510000Y-84850000D03*
X133300000Y-97040000D03*
X111630000Y-97600000D03*
D14*
X115190000Y-91850000D03*
D15*
X139440000Y-94030000D03*
X105680000Y-97950000D03*
X111230000Y-98900000D03*
X108650000Y-97420000D03*
X146560000Y-80370000D03*
D14*
%TO.N,Net-(U2-THERM)*%
X118910000Y-96110000D03*
X118920000Y-91650000D03*
%TO.N,/Power Module/PG*%
X117485000Y-85090000D03*
X117510000Y-89640000D03*
%TO.N,/Power Module/STAT1*%
X114360000Y-90220000D03*
X114280000Y-85670000D03*
%TO.N,/Power Module/STAT2*%
X115980000Y-86010000D03*
X115900000Y-89340000D03*
%TO.N,/Power Module/DW_OD*%
X132960000Y-93450000D03*
X136240000Y-91560000D03*
%TD*%
D16*
%TO.N,/Power Module/USB_5V*%
X128150000Y-89680000D02*
X128150000Y-86600000D01*
X124100000Y-93010000D02*
X124820000Y-93010000D01*
D17*
X119130000Y-85640000D02*
X119130000Y-89450000D01*
D16*
X124820000Y-93010000D02*
X128150000Y-89680000D01*
D17*
X119130000Y-89450000D02*
X119150000Y-89470000D01*
D18*
%TO.N,Net-(U2-THERM)*%
X119037500Y-96237500D02*
X119125000Y-96237500D01*
X118920000Y-96100000D02*
X118910000Y-96110000D01*
X118910000Y-96110000D02*
X119037500Y-96237500D01*
X118920000Y-91650000D02*
X118920000Y-96100000D01*
%TO.N,/Power Module/PG*%
X117485000Y-89615000D02*
X117510000Y-89640000D01*
X117485000Y-85090000D02*
X117485000Y-89615000D01*
%TO.N,/Power Module/STAT1*%
X114280000Y-90140000D02*
X114280000Y-85670000D01*
X114490000Y-90070000D02*
X114490000Y-90090000D01*
X114360000Y-90220000D02*
X114510000Y-90070000D01*
X114360000Y-90220000D02*
X114280000Y-90140000D01*
X114490000Y-90090000D02*
X114360000Y-90220000D01*
%TO.N,/Power Module/STAT2*%
X115900000Y-86640000D02*
X115980000Y-86560000D01*
X115980000Y-86560000D02*
X115980000Y-86010000D01*
X115900000Y-89340000D02*
X115900000Y-86640000D01*
X115990000Y-86020000D02*
X115980000Y-86010000D01*
D17*
%TO.N,/Power Module/DW_OD*%
X132960000Y-93250000D02*
X132960000Y-93450000D01*
X134650000Y-91560000D02*
X132960000Y-93250000D01*
X136240000Y-91560000D02*
X134650000Y-91560000D01*
%TD*%
%TA.AperFunction,Conductor*%
%TO.N,GND*%
G36*
X150342539Y-56510185D02*
G01*
X150388294Y-56562989D01*
X150399500Y-56614500D01*
X150399500Y-99325500D01*
X150379815Y-99392539D01*
X150327011Y-99438294D01*
X150275500Y-99449500D01*
X101174500Y-99449500D01*
X101107461Y-99429815D01*
X101061706Y-99377011D01*
X101050500Y-99325500D01*
X101050500Y-96178995D01*
X118209499Y-96178995D01*
X118236418Y-96314322D01*
X118236421Y-96314332D01*
X118289221Y-96441804D01*
X118289228Y-96441817D01*
X118365885Y-96556541D01*
X118365888Y-96556545D01*
X118463454Y-96654111D01*
X118463458Y-96654114D01*
X118578182Y-96730771D01*
X118578195Y-96730778D01*
X118705667Y-96783578D01*
X118705672Y-96783580D01*
X118705676Y-96783580D01*
X118705677Y-96783581D01*
X118841004Y-96810500D01*
X118841007Y-96810500D01*
X118978995Y-96810500D01*
X119070041Y-96792389D01*
X119114328Y-96783580D01*
X119241811Y-96730775D01*
X119356542Y-96654114D01*
X119454114Y-96556542D01*
X119530775Y-96441811D01*
X119583580Y-96314328D01*
X119610500Y-96178993D01*
X119610500Y-96041007D01*
X119610499Y-96041004D01*
X119599081Y-95983603D01*
X119596931Y-95967006D01*
X119595619Y-95945633D01*
X119595619Y-95945632D01*
X119575977Y-95867443D01*
X119571450Y-95851311D01*
X119571071Y-95850090D01*
X119565704Y-95834328D01*
X119538651Y-95761459D01*
X119528968Y-95738333D01*
X119528966Y-95738328D01*
X119528155Y-95736594D01*
X119516590Y-95714312D01*
X119516580Y-95714292D01*
X119446622Y-95592062D01*
X119437910Y-95577764D01*
X119437908Y-95577760D01*
X119437543Y-95577197D01*
X119437210Y-95576683D01*
X119427636Y-95562758D01*
X119396945Y-95520663D01*
X119396033Y-95519392D01*
X119365499Y-95476263D01*
X119356968Y-95462356D01*
X119354822Y-95458278D01*
X119350079Y-95449263D01*
X119340517Y-95425343D01*
X119336096Y-95409747D01*
X119331776Y-95385640D01*
X119325410Y-95304556D01*
X119324513Y-95301116D01*
X119320500Y-95269826D01*
X119320500Y-93078995D01*
X123399499Y-93078995D01*
X123426418Y-93214322D01*
X123426421Y-93214332D01*
X123479221Y-93341804D01*
X123479228Y-93341817D01*
X123555885Y-93456541D01*
X123555888Y-93456545D01*
X123653454Y-93554111D01*
X123653458Y-93554114D01*
X123768182Y-93630771D01*
X123768195Y-93630778D01*
X123895667Y-93683578D01*
X123895672Y-93683580D01*
X123895676Y-93683580D01*
X123895677Y-93683581D01*
X124031004Y-93710500D01*
X124031007Y-93710500D01*
X124168995Y-93710500D01*
X124260041Y-93692389D01*
X124304328Y-93683580D01*
X124431811Y-93630775D01*
X124455648Y-93614846D01*
X124465109Y-93609118D01*
X124473021Y-93604797D01*
X124488675Y-93599002D01*
X124540948Y-93567707D01*
X124543085Y-93566541D01*
X124543710Y-93566404D01*
X124550768Y-93562686D01*
X124569349Y-93554158D01*
X124587659Y-93547444D01*
X124674181Y-93523242D01*
X124683875Y-93520947D01*
X124690194Y-93519717D01*
X124693435Y-93519067D01*
X124693497Y-93519054D01*
X124693533Y-93519047D01*
X124693632Y-93519027D01*
X124693784Y-93518995D01*
X132259499Y-93518995D01*
X132286418Y-93654322D01*
X132286421Y-93654332D01*
X132339221Y-93781804D01*
X132339228Y-93781817D01*
X132415885Y-93896541D01*
X132415888Y-93896545D01*
X132513454Y-93994111D01*
X132513458Y-93994114D01*
X132628182Y-94070771D01*
X132628195Y-94070778D01*
X132755667Y-94123578D01*
X132755672Y-94123580D01*
X132755676Y-94123580D01*
X132755677Y-94123581D01*
X132891004Y-94150500D01*
X132891007Y-94150500D01*
X133028995Y-94150500D01*
X133120041Y-94132389D01*
X133164328Y-94123580D01*
X133291811Y-94070775D01*
X133406542Y-93994114D01*
X133504114Y-93896542D01*
X133580775Y-93781811D01*
X133633580Y-93654328D01*
X133648231Y-93580665D01*
X133651109Y-93569130D01*
X133657414Y-93548200D01*
X133674623Y-93389088D01*
X133675254Y-93380996D01*
X133676043Y-93370888D01*
X133676109Y-93369509D01*
X133676109Y-93369507D01*
X133676110Y-93369487D01*
X133676440Y-93351230D01*
X133675422Y-93265174D01*
X133675415Y-93264145D01*
X133675404Y-93260324D01*
X133675331Y-93235280D01*
X133694820Y-93168187D01*
X133704467Y-93155067D01*
X133734539Y-93119350D01*
X133735729Y-93117293D01*
X133755357Y-93091744D01*
X134800284Y-92046819D01*
X134861607Y-92013334D01*
X134887965Y-92010500D01*
X135408113Y-92010500D01*
X135418549Y-92010940D01*
X135427671Y-92011710D01*
X135444528Y-92015687D01*
X135512455Y-92018871D01*
X135514755Y-92019066D01*
X135515378Y-92019307D01*
X135524086Y-92020212D01*
X135540839Y-92022920D01*
X135563805Y-92028935D01*
X135613690Y-92047261D01*
X135633145Y-92056392D01*
X135680268Y-92083724D01*
X135680340Y-92083765D01*
X135680350Y-92083771D01*
X135683483Y-92085564D01*
X135683724Y-92085700D01*
X135686876Y-92087454D01*
X135718176Y-92104633D01*
X135816845Y-92158788D01*
X135816857Y-92158794D01*
X135835896Y-92168394D01*
X135837053Y-92168927D01*
X135837396Y-92169086D01*
X135857051Y-92177331D01*
X135857062Y-92177335D01*
X135857064Y-92177336D01*
X135942605Y-92209755D01*
X135959018Y-92215447D01*
X135959030Y-92215451D01*
X135960299Y-92215851D01*
X135977080Y-92220618D01*
X135977098Y-92220623D01*
X136075002Y-92245433D01*
X136082319Y-92247192D01*
X136082702Y-92247279D01*
X136082872Y-92247318D01*
X136082882Y-92247320D01*
X136097227Y-92250222D01*
X136105579Y-92250145D01*
X136130906Y-92252523D01*
X136171006Y-92260500D01*
X136171007Y-92260500D01*
X136308995Y-92260500D01*
X136424877Y-92237449D01*
X136444328Y-92233580D01*
X136542924Y-92192740D01*
X136571804Y-92180778D01*
X136571804Y-92180777D01*
X136571811Y-92180775D01*
X136686542Y-92104114D01*
X136784114Y-92006542D01*
X136860775Y-91891811D01*
X136913580Y-91764328D01*
X136940500Y-91628993D01*
X136940500Y-91491007D01*
X136940500Y-91491004D01*
X136913581Y-91355677D01*
X136913580Y-91355676D01*
X136913580Y-91355672D01*
X136898051Y-91318182D01*
X136860778Y-91228195D01*
X136860771Y-91228182D01*
X136784114Y-91113458D01*
X136784111Y-91113454D01*
X136686545Y-91015888D01*
X136686541Y-91015885D01*
X136571817Y-90939228D01*
X136571804Y-90939221D01*
X136444332Y-90886421D01*
X136444322Y-90886418D01*
X136308995Y-90859500D01*
X136308993Y-90859500D01*
X136171007Y-90859500D01*
X136131350Y-90867387D01*
X136115126Y-90870615D01*
X136098003Y-90872795D01*
X136076962Y-90873996D01*
X136076958Y-90873996D01*
X135991010Y-90895192D01*
X135976042Y-90899289D01*
X135974982Y-90899609D01*
X135960770Y-90904273D01*
X135882565Y-90932066D01*
X135861538Y-90940430D01*
X135861518Y-90940438D01*
X135861515Y-90940440D01*
X135859954Y-90941129D01*
X135859946Y-90941133D01*
X135839488Y-90951089D01*
X135690152Y-91030773D01*
X135684990Y-91033591D01*
X135684649Y-91033781D01*
X135678946Y-91037046D01*
X135629685Y-91065950D01*
X135616789Y-91072536D01*
X135595717Y-91081789D01*
X135574599Y-91088877D01*
X135546677Y-91095529D01*
X135526136Y-91098634D01*
X135438420Y-91104444D01*
X135438416Y-91104445D01*
X135433152Y-91105767D01*
X135402956Y-91109500D01*
X134590691Y-91109500D01*
X134500325Y-91133713D01*
X134500324Y-91133712D01*
X134476116Y-91140199D01*
X134476113Y-91140200D01*
X134373386Y-91199511D01*
X134373383Y-91199513D01*
X133107230Y-92465665D01*
X133102877Y-92469812D01*
X133095380Y-92476614D01*
X133077132Y-92488418D01*
X132960858Y-92598684D01*
X132959811Y-92599635D01*
X132959497Y-92599786D01*
X132953505Y-92604985D01*
X132881822Y-92661800D01*
X132871899Y-92668899D01*
X132813996Y-92706158D01*
X132813972Y-92706172D01*
X132813973Y-92706173D01*
X132767774Y-92735900D01*
X132767366Y-92736161D01*
X132670912Y-92797693D01*
X132670908Y-92797695D01*
X132583446Y-92853490D01*
X132579682Y-92855931D01*
X132579605Y-92855982D01*
X132572726Y-92860648D01*
X132565570Y-92867934D01*
X132546005Y-92884137D01*
X132513461Y-92905883D01*
X132415884Y-93003459D01*
X132339228Y-93118182D01*
X132339221Y-93118195D01*
X132286421Y-93245667D01*
X132286418Y-93245677D01*
X132259500Y-93381004D01*
X132259500Y-93381007D01*
X132259500Y-93518993D01*
X132259500Y-93518995D01*
X132259499Y-93518995D01*
X124693784Y-93518995D01*
X124696347Y-93518454D01*
X124696366Y-93518450D01*
X124770559Y-93502455D01*
X124788938Y-93497892D01*
X124790338Y-93497498D01*
X124808515Y-93491765D01*
X124882856Y-93465741D01*
X124910334Y-93454598D01*
X124912389Y-93453646D01*
X124938579Y-93439937D01*
X125019123Y-93392677D01*
X125042505Y-93377481D01*
X125044239Y-93376238D01*
X125064991Y-93359879D01*
X125081263Y-93350485D01*
X125115326Y-93316421D01*
X125149886Y-93286524D01*
X125158111Y-93279144D01*
X125158729Y-93278569D01*
X125171578Y-93265886D01*
X125175206Y-93260317D01*
X125191412Y-93240334D01*
X128490485Y-89941263D01*
X128546503Y-89844237D01*
X128575500Y-89736019D01*
X128575500Y-89623982D01*
X128575500Y-87432564D01*
X128575987Y-87421588D01*
X128576787Y-87412581D01*
X128580677Y-87396278D01*
X128583738Y-87334361D01*
X128583954Y-87331931D01*
X128584221Y-87331249D01*
X128585209Y-87322196D01*
X128585278Y-87321789D01*
X128586976Y-87311767D01*
X128593566Y-87287792D01*
X128608145Y-87250065D01*
X128619474Y-87227753D01*
X128653292Y-87175109D01*
X128655033Y-87172368D01*
X128655161Y-87172164D01*
X128656767Y-87169576D01*
X128736609Y-87039465D01*
X128748659Y-87017920D01*
X128749514Y-87016235D01*
X128759796Y-86993764D01*
X128767383Y-86975237D01*
X128777112Y-86951476D01*
X128795170Y-86907377D01*
X128802198Y-86888454D01*
X128802689Y-86886985D01*
X128808472Y-86867561D01*
X128834700Y-86767443D01*
X128836742Y-86759183D01*
X128836894Y-86758529D01*
X128840125Y-86742752D01*
X128840052Y-86734879D01*
X128840525Y-86722871D01*
X128841115Y-86716167D01*
X128850500Y-86668993D01*
X128850500Y-86621153D01*
X142889500Y-86621153D01*
X142889500Y-86778846D01*
X142920261Y-86933489D01*
X142920264Y-86933501D01*
X142980602Y-87079172D01*
X142980609Y-87079185D01*
X143068210Y-87210288D01*
X143068213Y-87210292D01*
X143179707Y-87321786D01*
X143179711Y-87321789D01*
X143310814Y-87409390D01*
X143310827Y-87409397D01*
X143456498Y-87469735D01*
X143456503Y-87469737D01*
X143611153Y-87500499D01*
X143611156Y-87500500D01*
X143611158Y-87500500D01*
X144868844Y-87500500D01*
X144868845Y-87500499D01*
X145023497Y-87469737D01*
X145169179Y-87409394D01*
X145300289Y-87321789D01*
X145411789Y-87210289D01*
X145499394Y-87079179D01*
X145559737Y-86933497D01*
X145590500Y-86778842D01*
X145590500Y-86621158D01*
X145590500Y-86621155D01*
X145590499Y-86621153D01*
X147319500Y-86621153D01*
X147319500Y-86778846D01*
X147350261Y-86933489D01*
X147350264Y-86933501D01*
X147410602Y-87079172D01*
X147410609Y-87079185D01*
X147498210Y-87210288D01*
X147498213Y-87210292D01*
X147609707Y-87321786D01*
X147609711Y-87321789D01*
X147740814Y-87409390D01*
X147740827Y-87409397D01*
X147886498Y-87469735D01*
X147886503Y-87469737D01*
X148041153Y-87500499D01*
X148041156Y-87500500D01*
X148041158Y-87500500D01*
X148798844Y-87500500D01*
X148798845Y-87500499D01*
X148953497Y-87469737D01*
X149099179Y-87409394D01*
X149230289Y-87321789D01*
X149341789Y-87210289D01*
X149429394Y-87079179D01*
X149489737Y-86933497D01*
X149520500Y-86778842D01*
X149520500Y-86621158D01*
X149520500Y-86621155D01*
X149520499Y-86621153D01*
X149507372Y-86555160D01*
X149489737Y-86466503D01*
X149485993Y-86457463D01*
X149429397Y-86320827D01*
X149429390Y-86320814D01*
X149341789Y-86189711D01*
X149341786Y-86189707D01*
X149230292Y-86078213D01*
X149230288Y-86078210D01*
X149099185Y-85990609D01*
X149099172Y-85990602D01*
X148953501Y-85930264D01*
X148953489Y-85930261D01*
X148798845Y-85899500D01*
X148798842Y-85899500D01*
X148041158Y-85899500D01*
X148041155Y-85899500D01*
X147886510Y-85930261D01*
X147886498Y-85930264D01*
X147740827Y-85990602D01*
X147740814Y-85990609D01*
X147609711Y-86078210D01*
X147609707Y-86078213D01*
X147498213Y-86189707D01*
X147498210Y-86189711D01*
X147410609Y-86320814D01*
X147410602Y-86320827D01*
X147350264Y-86466498D01*
X147350261Y-86466510D01*
X147319500Y-86621153D01*
X145590499Y-86621153D01*
X145577372Y-86555160D01*
X145559737Y-86466503D01*
X145555993Y-86457463D01*
X145499397Y-86320827D01*
X145499390Y-86320814D01*
X145411789Y-86189711D01*
X145411786Y-86189707D01*
X145300292Y-86078213D01*
X145300288Y-86078210D01*
X145194755Y-86007694D01*
X145149950Y-85954081D01*
X145141243Y-85884756D01*
X145171398Y-85821729D01*
X145194756Y-85801490D01*
X145202136Y-85796559D01*
X145296559Y-85702136D01*
X145370747Y-85591106D01*
X145421849Y-85467736D01*
X145447900Y-85336767D01*
X145447900Y-85203233D01*
X145421849Y-85072264D01*
X145370747Y-84948894D01*
X145370745Y-84948891D01*
X145370743Y-84948887D01*
X145296559Y-84837864D01*
X145296556Y-84837860D01*
X145202139Y-84743443D01*
X145202135Y-84743440D01*
X145091112Y-84669256D01*
X145091102Y-84669251D01*
X144967736Y-84618151D01*
X144967728Y-84618149D01*
X144836771Y-84592100D01*
X144836767Y-84592100D01*
X144703233Y-84592100D01*
X144703228Y-84592100D01*
X144572271Y-84618149D01*
X144572263Y-84618151D01*
X144448897Y-84669251D01*
X144448887Y-84669256D01*
X144337864Y-84743440D01*
X144337860Y-84743443D01*
X144243443Y-84837860D01*
X144243440Y-84837864D01*
X144169256Y-84948887D01*
X144169251Y-84948897D01*
X144118151Y-85072263D01*
X144118149Y-85072271D01*
X144092100Y-85203228D01*
X144092100Y-85336771D01*
X144118149Y-85467728D01*
X144118151Y-85467736D01*
X144169251Y-85591102D01*
X144169256Y-85591112D01*
X144246429Y-85706609D01*
X144267307Y-85773287D01*
X144248822Y-85840667D01*
X144196844Y-85887357D01*
X144143327Y-85899500D01*
X143611155Y-85899500D01*
X143456510Y-85930261D01*
X143456498Y-85930264D01*
X143310827Y-85990602D01*
X143310814Y-85990609D01*
X143179711Y-86078210D01*
X143179707Y-86078213D01*
X143068213Y-86189707D01*
X143068210Y-86189711D01*
X142980609Y-86320814D01*
X142980602Y-86320827D01*
X142920264Y-86466498D01*
X142920261Y-86466510D01*
X142889500Y-86621153D01*
X128850500Y-86621153D01*
X128850500Y-86531007D01*
X128850500Y-86531004D01*
X128823581Y-86395677D01*
X128823580Y-86395676D01*
X128823580Y-86395672D01*
X128812087Y-86367925D01*
X128770778Y-86268195D01*
X128770771Y-86268182D01*
X128694114Y-86153458D01*
X128694111Y-86153454D01*
X128596545Y-86055888D01*
X128596541Y-86055885D01*
X128481817Y-85979228D01*
X128481804Y-85979221D01*
X128354332Y-85926421D01*
X128354322Y-85926418D01*
X128218995Y-85899500D01*
X128218993Y-85899500D01*
X128081007Y-85899500D01*
X128081005Y-85899500D01*
X127945677Y-85926418D01*
X127945667Y-85926421D01*
X127818195Y-85979221D01*
X127818182Y-85979228D01*
X127703458Y-86055885D01*
X127703454Y-86055888D01*
X127605888Y-86153454D01*
X127605885Y-86153458D01*
X127529228Y-86268182D01*
X127529221Y-86268195D01*
X127476421Y-86395667D01*
X127476418Y-86395677D01*
X127449500Y-86531004D01*
X127449500Y-86531007D01*
X127449500Y-86668993D01*
X127449500Y-86668994D01*
X127449499Y-86668994D01*
X127460810Y-86725861D01*
X127462970Y-86742635D01*
X127464242Y-86763887D01*
X127464244Y-86763897D01*
X127484407Y-86844685D01*
X127488814Y-86860520D01*
X127489173Y-86861688D01*
X127494258Y-86876805D01*
X127521562Y-86951476D01*
X127526749Y-86964106D01*
X127530637Y-86973574D01*
X127530640Y-86973580D01*
X127531397Y-86975237D01*
X127542246Y-86996697D01*
X127612452Y-87122967D01*
X127612461Y-87122982D01*
X127619823Y-87135512D01*
X127620399Y-87136441D01*
X127620404Y-87136449D01*
X127628168Y-87148344D01*
X127649719Y-87179742D01*
X127650855Y-87181427D01*
X127679924Y-87225355D01*
X127687722Y-87238931D01*
X127695556Y-87254814D01*
X127704163Y-87277724D01*
X127709512Y-87297793D01*
X127713358Y-87320580D01*
X127719529Y-87404011D01*
X127720592Y-87408142D01*
X127724500Y-87439027D01*
X127724500Y-89452389D01*
X127704815Y-89519428D01*
X127688181Y-89540070D01*
X124745585Y-92482665D01*
X124716619Y-92498481D01*
X124688156Y-92515237D01*
X124686082Y-92515155D01*
X124684262Y-92516150D01*
X124651330Y-92513794D01*
X124618340Y-92512503D01*
X124616064Y-92511272D01*
X124614570Y-92511166D01*
X124586834Y-92496596D01*
X124583983Y-92494602D01*
X124520995Y-92445073D01*
X124511685Y-92438036D01*
X124510958Y-92437508D01*
X124495364Y-92426902D01*
X124477425Y-92419703D01*
X124465621Y-92411816D01*
X124465604Y-92411804D01*
X124431808Y-92389223D01*
X124304332Y-92336421D01*
X124304322Y-92336418D01*
X124168995Y-92309500D01*
X124168993Y-92309500D01*
X124031007Y-92309500D01*
X124031005Y-92309500D01*
X123895677Y-92336418D01*
X123895667Y-92336421D01*
X123768195Y-92389221D01*
X123768182Y-92389228D01*
X123653458Y-92465885D01*
X123653454Y-92465888D01*
X123555888Y-92563454D01*
X123555885Y-92563458D01*
X123479228Y-92678182D01*
X123479221Y-92678195D01*
X123426421Y-92805667D01*
X123426418Y-92805677D01*
X123399500Y-92941004D01*
X123399500Y-92941007D01*
X123399500Y-93078993D01*
X123399500Y-93078995D01*
X123399499Y-93078995D01*
X119320500Y-93078995D01*
X119320500Y-92483165D01*
X119321031Y-92471706D01*
X119321857Y-92462802D01*
X119325666Y-92446998D01*
X119328613Y-92390001D01*
X119328847Y-92387489D01*
X119329139Y-92386753D01*
X119330200Y-92377417D01*
X119331083Y-92372412D01*
X119338214Y-92347545D01*
X119349031Y-92320756D01*
X119362651Y-92295754D01*
X119402881Y-92238666D01*
X119403733Y-92237449D01*
X119403839Y-92237296D01*
X119403884Y-92237232D01*
X119405757Y-92234511D01*
X119494110Y-92104631D01*
X119508772Y-92080799D01*
X119509807Y-92078930D01*
X119522178Y-92053969D01*
X119560485Y-91966910D01*
X119568950Y-91945520D01*
X119569535Y-91943862D01*
X119576353Y-91921950D01*
X119603964Y-91819830D01*
X119606327Y-91810510D01*
X119606503Y-91809767D01*
X119610029Y-91792733D01*
X119609961Y-91785341D01*
X119612336Y-91760030D01*
X119620500Y-91718993D01*
X119620500Y-91581007D01*
X119620500Y-91581004D01*
X119593581Y-91445677D01*
X119593580Y-91445676D01*
X119593580Y-91445672D01*
X119556299Y-91355667D01*
X119540778Y-91318195D01*
X119540771Y-91318182D01*
X119464114Y-91203458D01*
X119464111Y-91203454D01*
X119366545Y-91105888D01*
X119366541Y-91105885D01*
X119251817Y-91029228D01*
X119251804Y-91029221D01*
X119124332Y-90976421D01*
X119124322Y-90976418D01*
X118988995Y-90949500D01*
X118988993Y-90949500D01*
X118851007Y-90949500D01*
X118851005Y-90949500D01*
X118715677Y-90976418D01*
X118715667Y-90976421D01*
X118588195Y-91029221D01*
X118588182Y-91029228D01*
X118473458Y-91105885D01*
X118473454Y-91105888D01*
X118375888Y-91203454D01*
X118375885Y-91203458D01*
X118299228Y-91318182D01*
X118299221Y-91318195D01*
X118246421Y-91445667D01*
X118246418Y-91445677D01*
X118219500Y-91581004D01*
X118219500Y-91718991D01*
X118230986Y-91776740D01*
X118233128Y-91793212D01*
X118234464Y-91814650D01*
X118253794Y-91891290D01*
X118258440Y-91907753D01*
X118258830Y-91909000D01*
X118264337Y-91925035D01*
X118291225Y-91996781D01*
X118301252Y-92020452D01*
X118302104Y-92022249D01*
X118303461Y-92024823D01*
X118314159Y-92045117D01*
X118319315Y-92053969D01*
X118383972Y-92164970D01*
X118393685Y-92180549D01*
X118394468Y-92181725D01*
X118405173Y-92196785D01*
X118441775Y-92245119D01*
X118442627Y-92246257D01*
X118474292Y-92289083D01*
X118483310Y-92303180D01*
X118489539Y-92314541D01*
X118499748Y-92339096D01*
X118503497Y-92351817D01*
X118508145Y-92376793D01*
X118514634Y-92456386D01*
X118515416Y-92459355D01*
X118519500Y-92490918D01*
X118519500Y-95279539D01*
X118519160Y-95288716D01*
X118518460Y-95298145D01*
X118514297Y-95316229D01*
X118510714Y-95402524D01*
X118510564Y-95404547D01*
X118510291Y-95405270D01*
X118509112Y-95416377D01*
X118506816Y-95429734D01*
X118498277Y-95458278D01*
X118487882Y-95482124D01*
X118475538Y-95504052D01*
X118430918Y-95567303D01*
X118430485Y-95567913D01*
X118335851Y-95700357D01*
X118333136Y-95704219D01*
X118332934Y-95704511D01*
X118326690Y-95713909D01*
X118323133Y-95722732D01*
X118311232Y-95745253D01*
X118289223Y-95778192D01*
X118236421Y-95905667D01*
X118236418Y-95905677D01*
X118209500Y-96041004D01*
X118209500Y-96041005D01*
X118209500Y-96041007D01*
X118209500Y-96178993D01*
X118209500Y-96178995D01*
X118209499Y-96178995D01*
X101050500Y-96178995D01*
X101050500Y-85601007D01*
X113579500Y-85601007D01*
X113579500Y-85738993D01*
X113592609Y-85804899D01*
X113593066Y-85812234D01*
X113593126Y-85813203D01*
X113593128Y-85813212D01*
X113594464Y-85834650D01*
X113613794Y-85911290D01*
X113618440Y-85927753D01*
X113618830Y-85929000D01*
X113624337Y-85945035D01*
X113651225Y-86016781D01*
X113661252Y-86040452D01*
X113662104Y-86042249D01*
X113669293Y-86055886D01*
X113674159Y-86065117D01*
X113679315Y-86073969D01*
X113743972Y-86184970D01*
X113753685Y-86200549D01*
X113754468Y-86201725D01*
X113765173Y-86216785D01*
X113801775Y-86265119D01*
X113802627Y-86266257D01*
X113834292Y-86309083D01*
X113843310Y-86323180D01*
X113849539Y-86334541D01*
X113859748Y-86359096D01*
X113863497Y-86371817D01*
X113868145Y-86396793D01*
X113874634Y-86476386D01*
X113875416Y-86479355D01*
X113879500Y-86510918D01*
X113879500Y-89389827D01*
X113879118Y-89399552D01*
X113878388Y-89408826D01*
X113874301Y-89426422D01*
X113870960Y-89503246D01*
X113870788Y-89505441D01*
X113870578Y-89505991D01*
X113869773Y-89514279D01*
X113865891Y-89539918D01*
X113860600Y-89561528D01*
X113837872Y-89627898D01*
X113831228Y-89643658D01*
X113817001Y-89671804D01*
X113811744Y-89682203D01*
X113810227Y-89685246D01*
X113810191Y-89685319D01*
X113808291Y-89689254D01*
X113747113Y-89818332D01*
X113740172Y-89834116D01*
X113739680Y-89835325D01*
X113733702Y-89851296D01*
X113719401Y-89893012D01*
X113719398Y-89893022D01*
X113717454Y-89898695D01*
X113704880Y-89935371D01*
X113700610Y-89948832D01*
X113700309Y-89949863D01*
X113696709Y-89963328D01*
X113673703Y-90057984D01*
X113672414Y-90063514D01*
X113672313Y-90063966D01*
X113669660Y-90077204D01*
X113669858Y-90098929D01*
X113666923Y-90113685D01*
X113666911Y-90113736D01*
X113659500Y-90151001D01*
X113659500Y-90151007D01*
X113659500Y-90288993D01*
X113659500Y-90288995D01*
X113659499Y-90288995D01*
X113686418Y-90424322D01*
X113686421Y-90424332D01*
X113739221Y-90551804D01*
X113739228Y-90551817D01*
X113815885Y-90666541D01*
X113815888Y-90666545D01*
X113913454Y-90764111D01*
X113913458Y-90764114D01*
X114028182Y-90840771D01*
X114028195Y-90840778D01*
X114155667Y-90893578D01*
X114155672Y-90893580D01*
X114155676Y-90893580D01*
X114155677Y-90893581D01*
X114291004Y-90920500D01*
X114291007Y-90920500D01*
X114428995Y-90920500D01*
X114535627Y-90899289D01*
X114564328Y-90893580D01*
X114691811Y-90840775D01*
X114806542Y-90764114D01*
X114904114Y-90666542D01*
X114980775Y-90551811D01*
X115033580Y-90424328D01*
X115055609Y-90313581D01*
X115060500Y-90288995D01*
X115060500Y-90151004D01*
X115033581Y-90015677D01*
X115033580Y-90015676D01*
X115033580Y-90015672D01*
X115032714Y-90013581D01*
X114980777Y-89888193D01*
X114980776Y-89888191D01*
X114941952Y-89830087D01*
X114935190Y-89818692D01*
X114924831Y-89798894D01*
X114826771Y-89674320D01*
X114816300Y-89661018D01*
X114807617Y-89650482D01*
X114807427Y-89650263D01*
X114806912Y-89649665D01*
X114797758Y-89639521D01*
X114786789Y-89627898D01*
X114755584Y-89594832D01*
X114754165Y-89593303D01*
X114722850Y-89558981D01*
X114692206Y-89496189D01*
X114690828Y-89485054D01*
X114685417Y-89415568D01*
X114684498Y-89412037D01*
X114684109Y-89408995D01*
X115199499Y-89408995D01*
X115226418Y-89544322D01*
X115226421Y-89544332D01*
X115279221Y-89671804D01*
X115279228Y-89671817D01*
X115355885Y-89786541D01*
X115355888Y-89786545D01*
X115453454Y-89884111D01*
X115453458Y-89884114D01*
X115568182Y-89960771D01*
X115568195Y-89960778D01*
X115695667Y-90013578D01*
X115695672Y-90013580D01*
X115695676Y-90013580D01*
X115695677Y-90013581D01*
X115831004Y-90040500D01*
X115831007Y-90040500D01*
X115968995Y-90040500D01*
X116060041Y-90022389D01*
X116104328Y-90013580D01*
X116205185Y-89971804D01*
X116231804Y-89960778D01*
X116231804Y-89960777D01*
X116231811Y-89960775D01*
X116346542Y-89884114D01*
X116444114Y-89786542D01*
X116520775Y-89671811D01*
X116573580Y-89544328D01*
X116600500Y-89408993D01*
X116600500Y-89271007D01*
X116600500Y-89271004D01*
X116589013Y-89213259D01*
X116586870Y-89196784D01*
X116586620Y-89192777D01*
X116585533Y-89175339D01*
X116570925Y-89117423D01*
X116566209Y-89098725D01*
X116565357Y-89095705D01*
X116561558Y-89082245D01*
X116561169Y-89081001D01*
X116560008Y-89077621D01*
X116555673Y-89064997D01*
X116555663Y-89064969D01*
X116528775Y-88993222D01*
X116518711Y-88969470D01*
X116517865Y-88967687D01*
X116505839Y-88944881D01*
X116436030Y-88825035D01*
X116426274Y-88809390D01*
X116425497Y-88808224D01*
X116414816Y-88793199D01*
X116414810Y-88793191D01*
X116414800Y-88793177D01*
X116378146Y-88744777D01*
X116377346Y-88743709D01*
X116345702Y-88700911D01*
X116336691Y-88686824D01*
X116330461Y-88675460D01*
X116320252Y-88650908D01*
X116316501Y-88638181D01*
X116311853Y-88613199D01*
X116305367Y-88533620D01*
X116304583Y-88530641D01*
X116300500Y-88499082D01*
X116300500Y-86849008D01*
X116305930Y-86830514D01*
X116306390Y-86811247D01*
X116318231Y-86788623D01*
X116320185Y-86781969D01*
X116321812Y-86779501D01*
X116323891Y-86776429D01*
X116378883Y-86704830D01*
X116388611Y-86691427D01*
X116389325Y-86690385D01*
X116398236Y-86676600D01*
X116457514Y-86579259D01*
X116566722Y-86402146D01*
X116567295Y-86401213D01*
X116570552Y-86392664D01*
X116583325Y-86367925D01*
X116585533Y-86364621D01*
X116600775Y-86341811D01*
X116653580Y-86214328D01*
X116671422Y-86124631D01*
X116680500Y-86078995D01*
X116680500Y-85941004D01*
X116653581Y-85805677D01*
X116653580Y-85805676D01*
X116653580Y-85805672D01*
X116652915Y-85804066D01*
X116600778Y-85678195D01*
X116600771Y-85678182D01*
X116524114Y-85563458D01*
X116524111Y-85563454D01*
X116426545Y-85465888D01*
X116426541Y-85465885D01*
X116311817Y-85389228D01*
X116311804Y-85389221D01*
X116184332Y-85336421D01*
X116184322Y-85336418D01*
X116048995Y-85309500D01*
X116048993Y-85309500D01*
X115911007Y-85309500D01*
X115911005Y-85309500D01*
X115775677Y-85336418D01*
X115775667Y-85336421D01*
X115648195Y-85389221D01*
X115648182Y-85389228D01*
X115533458Y-85465885D01*
X115533454Y-85465888D01*
X115435888Y-85563454D01*
X115435885Y-85563458D01*
X115359228Y-85678182D01*
X115359221Y-85678195D01*
X115306421Y-85805667D01*
X115306418Y-85805677D01*
X115279500Y-85941004D01*
X115279500Y-85941007D01*
X115279500Y-86078993D01*
X115279500Y-86078995D01*
X115279499Y-86078995D01*
X115306418Y-86214322D01*
X115306421Y-86214332D01*
X115359221Y-86341804D01*
X115359228Y-86341817D01*
X115420875Y-86434077D01*
X115422614Y-86436679D01*
X115427267Y-86444467D01*
X115429530Y-86447030D01*
X115435886Y-86456542D01*
X115435887Y-86456543D01*
X115450624Y-86471280D01*
X115455892Y-86476885D01*
X115469132Y-86491879D01*
X115498750Y-86555160D01*
X115499006Y-86579146D01*
X115499500Y-86579146D01*
X115499500Y-88506829D01*
X115496049Y-88535879D01*
X115494335Y-88542988D01*
X115494333Y-88543003D01*
X115491515Y-88597463D01*
X115489797Y-88612589D01*
X115488920Y-88617562D01*
X115481784Y-88642456D01*
X115470969Y-88669239D01*
X115457351Y-88694236D01*
X115417174Y-88751250D01*
X115414380Y-88755285D01*
X115325883Y-88885373D01*
X115311189Y-88909263D01*
X115310172Y-88911101D01*
X115310157Y-88911130D01*
X115297834Y-88935999D01*
X115297812Y-88936045D01*
X115259512Y-89023093D01*
X115251059Y-89044445D01*
X115250485Y-89046071D01*
X115243649Y-89068036D01*
X115216038Y-89170156D01*
X115213662Y-89179529D01*
X115213496Y-89180228D01*
X115209969Y-89197266D01*
X115210037Y-89204664D01*
X115208245Y-89223743D01*
X115208117Y-89227553D01*
X115207892Y-89228811D01*
X115199500Y-89271007D01*
X115199500Y-89408993D01*
X115199500Y-89408995D01*
X115199499Y-89408995D01*
X114684109Y-89408995D01*
X114680500Y-89380804D01*
X114680500Y-86503165D01*
X114681031Y-86491706D01*
X114681857Y-86482802D01*
X114685666Y-86466998D01*
X114688613Y-86410001D01*
X114688847Y-86407489D01*
X114689139Y-86406753D01*
X114690200Y-86397417D01*
X114691083Y-86392412D01*
X114698214Y-86367545D01*
X114699143Y-86365246D01*
X114709031Y-86340755D01*
X114722651Y-86315754D01*
X114729946Y-86305403D01*
X114762778Y-86258812D01*
X114762881Y-86258666D01*
X114763733Y-86257449D01*
X114763839Y-86257296D01*
X114763884Y-86257232D01*
X114765757Y-86254511D01*
X114854110Y-86124631D01*
X114868772Y-86100799D01*
X114869807Y-86098930D01*
X114882178Y-86073969D01*
X114920485Y-85986910D01*
X114928950Y-85965520D01*
X114929535Y-85963862D01*
X114936353Y-85941950D01*
X114963964Y-85839830D01*
X114966327Y-85830510D01*
X114966503Y-85829767D01*
X114970029Y-85812733D01*
X114969961Y-85805341D01*
X114972336Y-85780030D01*
X114980500Y-85738993D01*
X114980500Y-85601007D01*
X114980500Y-85601004D01*
X114953581Y-85465677D01*
X114953580Y-85465676D01*
X114953580Y-85465672D01*
X114919695Y-85383866D01*
X114900778Y-85338195D01*
X114900771Y-85338182D01*
X114824114Y-85223458D01*
X114824111Y-85223454D01*
X114726545Y-85125888D01*
X114726541Y-85125885D01*
X114611817Y-85049228D01*
X114611804Y-85049221D01*
X114543681Y-85021004D01*
X116784500Y-85021004D01*
X116784500Y-85021007D01*
X116784500Y-85158993D01*
X116791355Y-85193458D01*
X116795986Y-85216740D01*
X116798128Y-85233212D01*
X116799464Y-85254650D01*
X116818794Y-85331290D01*
X116823440Y-85347753D01*
X116823830Y-85349000D01*
X116829337Y-85365035D01*
X116856225Y-85436781D01*
X116866252Y-85460452D01*
X116867104Y-85462249D01*
X116869997Y-85467736D01*
X116879159Y-85485117D01*
X116884315Y-85493969D01*
X116948972Y-85604970D01*
X116958685Y-85620549D01*
X116959468Y-85621725D01*
X116970173Y-85636785D01*
X117006775Y-85685119D01*
X117007627Y-85686257D01*
X117039292Y-85729083D01*
X117048310Y-85743180D01*
X117054539Y-85754541D01*
X117064748Y-85779096D01*
X117068497Y-85791817D01*
X117073145Y-85816793D01*
X117079634Y-85896386D01*
X117080416Y-85899355D01*
X117084500Y-85930918D01*
X117084500Y-88807431D01*
X117084013Y-88818408D01*
X117083212Y-88827417D01*
X117079323Y-88843719D01*
X117076260Y-88905632D01*
X117076044Y-88908073D01*
X117075776Y-88908753D01*
X117074789Y-88917811D01*
X117073024Y-88928228D01*
X117066432Y-88952204D01*
X117051860Y-88989918D01*
X117040525Y-89012243D01*
X117006614Y-89065034D01*
X117003289Y-89070332D01*
X116923401Y-89200516D01*
X116923392Y-89200531D01*
X116918588Y-89209115D01*
X116911402Y-89221953D01*
X116910554Y-89223621D01*
X116900340Y-89245933D01*
X116900203Y-89246232D01*
X116864824Y-89332633D01*
X116864818Y-89332647D01*
X116864818Y-89332649D01*
X116857800Y-89351541D01*
X116857316Y-89352990D01*
X116851524Y-89372444D01*
X116845841Y-89394137D01*
X116845839Y-89394147D01*
X116825294Y-89472575D01*
X116823248Y-89480855D01*
X116823100Y-89481492D01*
X116819874Y-89497247D01*
X116820063Y-89517902D01*
X116809500Y-89571007D01*
X116809500Y-89708993D01*
X116809500Y-89708995D01*
X116809499Y-89708995D01*
X116836418Y-89844322D01*
X116836421Y-89844332D01*
X116889221Y-89971804D01*
X116889228Y-89971817D01*
X116965885Y-90086541D01*
X116965888Y-90086545D01*
X117063454Y-90184111D01*
X117063458Y-90184114D01*
X117178182Y-90260771D01*
X117178195Y-90260778D01*
X117246318Y-90288995D01*
X117305672Y-90313580D01*
X117305676Y-90313580D01*
X117305677Y-90313581D01*
X117441004Y-90340500D01*
X117441007Y-90340500D01*
X117578995Y-90340500D01*
X117670041Y-90322389D01*
X117714328Y-90313580D01*
X117841811Y-90260775D01*
X117956542Y-90184114D01*
X118054114Y-90086542D01*
X118130775Y-89971811D01*
X118183580Y-89844328D01*
X118210500Y-89708993D01*
X118210500Y-89571007D01*
X118183580Y-89435672D01*
X118166376Y-89394137D01*
X118130777Y-89308193D01*
X118130776Y-89308192D01*
X118130775Y-89308189D01*
X118099239Y-89260992D01*
X118090636Y-89245933D01*
X118081514Y-89227003D01*
X118081513Y-89227002D01*
X118081512Y-89226999D01*
X117971490Y-89077317D01*
X117969775Y-89075006D01*
X117927188Y-89018198D01*
X117917283Y-89002712D01*
X117916714Y-89001657D01*
X117913664Y-88996005D01*
X117902666Y-88967871D01*
X117899806Y-88956695D01*
X117896159Y-88933364D01*
X117890614Y-88840481D01*
X117889083Y-88834256D01*
X117885500Y-88804660D01*
X117885500Y-85923165D01*
X117886031Y-85911706D01*
X117886857Y-85902802D01*
X117890666Y-85886998D01*
X117893613Y-85830001D01*
X117893847Y-85827489D01*
X117894139Y-85826753D01*
X117895200Y-85817417D01*
X117896083Y-85812412D01*
X117903214Y-85787545D01*
X117905142Y-85782772D01*
X117914031Y-85760755D01*
X117927651Y-85735754D01*
X117967881Y-85678666D01*
X117968733Y-85677449D01*
X117968839Y-85677296D01*
X117968884Y-85677232D01*
X117970757Y-85674511D01*
X118041169Y-85571004D01*
X118429500Y-85571004D01*
X118429500Y-85708991D01*
X118440614Y-85764868D01*
X118442794Y-85781988D01*
X118443996Y-85803037D01*
X118443996Y-85803040D01*
X118465183Y-85888953D01*
X118469261Y-85903857D01*
X118469575Y-85904900D01*
X118474274Y-85919230D01*
X118502069Y-85997439D01*
X118510469Y-86018549D01*
X118511168Y-86020131D01*
X118521098Y-86040529D01*
X118585309Y-86160867D01*
X118585320Y-86160887D01*
X118585553Y-86161323D01*
X118585558Y-86161332D01*
X118600785Y-86189867D01*
X118603683Y-86195172D01*
X118603914Y-86195585D01*
X118607051Y-86201059D01*
X118636433Y-86251136D01*
X118636894Y-86251949D01*
X118636985Y-86252340D01*
X118642533Y-86263202D01*
X118651790Y-86284283D01*
X118658878Y-86305400D01*
X118661345Y-86315754D01*
X118665530Y-86333323D01*
X118668634Y-86353862D01*
X118674444Y-86441576D01*
X118674446Y-86441587D01*
X118675768Y-86446853D01*
X118679500Y-86477044D01*
X118679500Y-88638709D01*
X118679099Y-88648675D01*
X118678355Y-88657894D01*
X118674305Y-88675241D01*
X118671016Y-88748915D01*
X118670836Y-88751156D01*
X118670615Y-88751731D01*
X118669777Y-88760160D01*
X118666280Y-88782749D01*
X118660749Y-88804826D01*
X118639453Y-88865533D01*
X118632011Y-88882547D01*
X118609879Y-88924310D01*
X118608129Y-88927666D01*
X118607907Y-88928097D01*
X118606254Y-88931366D01*
X118549097Y-89046083D01*
X118541720Y-89060888D01*
X118539825Y-89064997D01*
X118533995Y-89077640D01*
X118533527Y-89078741D01*
X118533451Y-89078922D01*
X118532157Y-89082245D01*
X118526675Y-89096320D01*
X118496642Y-89180999D01*
X118491941Y-89195374D01*
X118491935Y-89195395D01*
X118491613Y-89196469D01*
X118491605Y-89196494D01*
X118491605Y-89196498D01*
X118487619Y-89211095D01*
X118463981Y-89307007D01*
X118462424Y-89313643D01*
X118462321Y-89314103D01*
X118459698Y-89327210D01*
X118459778Y-89335969D01*
X118457400Y-89361288D01*
X118449500Y-89401002D01*
X118449500Y-89401005D01*
X118449500Y-89401007D01*
X118449500Y-89538993D01*
X118457185Y-89577629D01*
X118457186Y-89577636D01*
X118476418Y-89674320D01*
X118476421Y-89674332D01*
X118529221Y-89801804D01*
X118529228Y-89801817D01*
X118605885Y-89916541D01*
X118605888Y-89916545D01*
X118703454Y-90014111D01*
X118703458Y-90014114D01*
X118818182Y-90090771D01*
X118818195Y-90090778D01*
X118945667Y-90143578D01*
X118945672Y-90143580D01*
X118945676Y-90143580D01*
X118945677Y-90143581D01*
X119081004Y-90170500D01*
X119081007Y-90170500D01*
X119218995Y-90170500D01*
X119317020Y-90151001D01*
X119354328Y-90143580D01*
X119452924Y-90102740D01*
X119481804Y-90090778D01*
X119481804Y-90090777D01*
X119481811Y-90090775D01*
X119596542Y-90014114D01*
X119694114Y-89916542D01*
X119770775Y-89801811D01*
X119823580Y-89674328D01*
X119839697Y-89593303D01*
X119850500Y-89538995D01*
X119850500Y-89401005D01*
X119839226Y-89344331D01*
X119837061Y-89327481D01*
X119835916Y-89308189D01*
X119835802Y-89306264D01*
X119815452Y-89224542D01*
X119811178Y-89209115D01*
X119810820Y-89207943D01*
X119805747Y-89192768D01*
X119778346Y-89117431D01*
X119769485Y-89095705D01*
X119768741Y-89094064D01*
X119758162Y-89072942D01*
X119687858Y-88945166D01*
X119681065Y-88933443D01*
X119681013Y-88933357D01*
X119680541Y-88932582D01*
X119675244Y-88924310D01*
X119673220Y-88921149D01*
X119673209Y-88921132D01*
X119673199Y-88921117D01*
X119654631Y-88893487D01*
X119653418Y-88891648D01*
X119642215Y-88874320D01*
X119624904Y-88847546D01*
X119617350Y-88834093D01*
X119609211Y-88817218D01*
X119600915Y-88794653D01*
X119600530Y-88793177D01*
X119595281Y-88773056D01*
X119591590Y-88750717D01*
X119591118Y-88744199D01*
X119585488Y-88666470D01*
X119584371Y-88662109D01*
X119580500Y-88631364D01*
X119580500Y-86471889D01*
X119580940Y-86461453D01*
X119581710Y-86452331D01*
X119585688Y-86435469D01*
X119588872Y-86367545D01*
X119589066Y-86365246D01*
X119589307Y-86364621D01*
X119590214Y-86355900D01*
X119592920Y-86339154D01*
X119598937Y-86316184D01*
X119617260Y-86266307D01*
X119626387Y-86246859D01*
X119653770Y-86199651D01*
X119655565Y-86196515D01*
X119655701Y-86196274D01*
X119657456Y-86193120D01*
X119728795Y-86063139D01*
X119738394Y-86044102D01*
X119739078Y-86042619D01*
X119739234Y-86042249D01*
X119747331Y-86022946D01*
X119748991Y-86018566D01*
X119779755Y-85937393D01*
X119785513Y-85920772D01*
X119785913Y-85919500D01*
X119790622Y-85902901D01*
X119815432Y-85804998D01*
X119817076Y-85798183D01*
X119817205Y-85797620D01*
X119820222Y-85782772D01*
X119820145Y-85774417D01*
X119822523Y-85749092D01*
X119824533Y-85738991D01*
X119830500Y-85708993D01*
X119830500Y-85571007D01*
X119830500Y-85571004D01*
X119803581Y-85435677D01*
X119803580Y-85435676D01*
X119803580Y-85435672D01*
X119791673Y-85406926D01*
X119750778Y-85308195D01*
X119750771Y-85308182D01*
X119674114Y-85193458D01*
X119674111Y-85193454D01*
X119576545Y-85095888D01*
X119576541Y-85095885D01*
X119461817Y-85019228D01*
X119461804Y-85019221D01*
X119334332Y-84966421D01*
X119334322Y-84966418D01*
X119198995Y-84939500D01*
X119198993Y-84939500D01*
X119061007Y-84939500D01*
X119061005Y-84939500D01*
X118925677Y-84966418D01*
X118925667Y-84966421D01*
X118798195Y-85019221D01*
X118798182Y-85019228D01*
X118683458Y-85095885D01*
X118683454Y-85095888D01*
X118585888Y-85193454D01*
X118585885Y-85193458D01*
X118509228Y-85308182D01*
X118509221Y-85308195D01*
X118456421Y-85435667D01*
X118456418Y-85435677D01*
X118429500Y-85571004D01*
X118041169Y-85571004D01*
X118059110Y-85544631D01*
X118073772Y-85520799D01*
X118074807Y-85518930D01*
X118087178Y-85493969D01*
X118125485Y-85406910D01*
X118133950Y-85385520D01*
X118134535Y-85383862D01*
X118141353Y-85361950D01*
X118168964Y-85259830D01*
X118171327Y-85250510D01*
X118171503Y-85249767D01*
X118175029Y-85232733D01*
X118174961Y-85225341D01*
X118177336Y-85200030D01*
X118185500Y-85158993D01*
X118185500Y-85021007D01*
X118185500Y-85021004D01*
X118158581Y-84885677D01*
X118158580Y-84885676D01*
X118158580Y-84885672D01*
X118158578Y-84885667D01*
X118105778Y-84758195D01*
X118105771Y-84758182D01*
X118029114Y-84643458D01*
X118029111Y-84643454D01*
X117931545Y-84545888D01*
X117931541Y-84545885D01*
X117816817Y-84469228D01*
X117816804Y-84469221D01*
X117689332Y-84416421D01*
X117689322Y-84416418D01*
X117553995Y-84389500D01*
X117553993Y-84389500D01*
X117416007Y-84389500D01*
X117416005Y-84389500D01*
X117280677Y-84416418D01*
X117280667Y-84416421D01*
X117153195Y-84469221D01*
X117153182Y-84469228D01*
X117038458Y-84545885D01*
X117038454Y-84545888D01*
X116940888Y-84643454D01*
X116940885Y-84643458D01*
X116864228Y-84758182D01*
X116864221Y-84758195D01*
X116811421Y-84885667D01*
X116811418Y-84885677D01*
X116784500Y-85021004D01*
X114543681Y-85021004D01*
X114484332Y-84996421D01*
X114484322Y-84996418D01*
X114348995Y-84969500D01*
X114348993Y-84969500D01*
X114211007Y-84969500D01*
X114211005Y-84969500D01*
X114075677Y-84996418D01*
X114075667Y-84996421D01*
X113948195Y-85049221D01*
X113948182Y-85049228D01*
X113833458Y-85125885D01*
X113833454Y-85125888D01*
X113735888Y-85223454D01*
X113735885Y-85223458D01*
X113659228Y-85338182D01*
X113659221Y-85338195D01*
X113606421Y-85465667D01*
X113606418Y-85465677D01*
X113579963Y-85598673D01*
X113579963Y-85598677D01*
X113579500Y-85601007D01*
X101050500Y-85601007D01*
X101050500Y-77981153D01*
X142889500Y-77981153D01*
X142889500Y-78138846D01*
X142920261Y-78293489D01*
X142920264Y-78293501D01*
X142980602Y-78439172D01*
X142980609Y-78439185D01*
X143068210Y-78570288D01*
X143068213Y-78570292D01*
X143179707Y-78681786D01*
X143179711Y-78681789D01*
X143310814Y-78769390D01*
X143310827Y-78769397D01*
X143456498Y-78829735D01*
X143456503Y-78829737D01*
X143611153Y-78860499D01*
X143611156Y-78860500D01*
X143611158Y-78860500D01*
X144143327Y-78860500D01*
X144210366Y-78880185D01*
X144256121Y-78932989D01*
X144266065Y-79002147D01*
X144246429Y-79053391D01*
X144169256Y-79168887D01*
X144169251Y-79168897D01*
X144118151Y-79292263D01*
X144118149Y-79292271D01*
X144092100Y-79423228D01*
X144092100Y-79556771D01*
X144118149Y-79687728D01*
X144118151Y-79687736D01*
X144169251Y-79811102D01*
X144169256Y-79811112D01*
X144243440Y-79922135D01*
X144243443Y-79922139D01*
X144337860Y-80016556D01*
X144337864Y-80016559D01*
X144448887Y-80090743D01*
X144448891Y-80090745D01*
X144448894Y-80090747D01*
X144572264Y-80141849D01*
X144703228Y-80167899D01*
X144703232Y-80167900D01*
X144703233Y-80167900D01*
X144836768Y-80167900D01*
X144836769Y-80167899D01*
X144967736Y-80141849D01*
X145091106Y-80090747D01*
X145202136Y-80016559D01*
X145296559Y-79922136D01*
X145370747Y-79811106D01*
X145421849Y-79687736D01*
X145447900Y-79556767D01*
X145447900Y-79423233D01*
X145421849Y-79292264D01*
X145370747Y-79168894D01*
X145370745Y-79168891D01*
X145370743Y-79168887D01*
X145296559Y-79057864D01*
X145296556Y-79057860D01*
X145202138Y-78963442D01*
X145194756Y-78958510D01*
X145149951Y-78904898D01*
X145141243Y-78835573D01*
X145171397Y-78772545D01*
X145194755Y-78752305D01*
X145231445Y-78727788D01*
X145300289Y-78681789D01*
X145411789Y-78570289D01*
X145499394Y-78439179D01*
X145559737Y-78293497D01*
X145590500Y-78138842D01*
X145590500Y-77981158D01*
X145590500Y-77981155D01*
X145590499Y-77981153D01*
X147319500Y-77981153D01*
X147319500Y-78138846D01*
X147350261Y-78293489D01*
X147350264Y-78293501D01*
X147410602Y-78439172D01*
X147410609Y-78439185D01*
X147498210Y-78570288D01*
X147498213Y-78570292D01*
X147609707Y-78681786D01*
X147609711Y-78681789D01*
X147740814Y-78769390D01*
X147740827Y-78769397D01*
X147886498Y-78829735D01*
X147886503Y-78829737D01*
X148041153Y-78860499D01*
X148041156Y-78860500D01*
X148041158Y-78860500D01*
X148798844Y-78860500D01*
X148798845Y-78860499D01*
X148953497Y-78829737D01*
X149099179Y-78769394D01*
X149230289Y-78681789D01*
X149341789Y-78570289D01*
X149429394Y-78439179D01*
X149489737Y-78293497D01*
X149520500Y-78138842D01*
X149520500Y-77981158D01*
X149520500Y-77981155D01*
X149520499Y-77981153D01*
X149489738Y-77826510D01*
X149489737Y-77826503D01*
X149489735Y-77826498D01*
X149429397Y-77680827D01*
X149429390Y-77680814D01*
X149341789Y-77549711D01*
X149341786Y-77549707D01*
X149230292Y-77438213D01*
X149230288Y-77438210D01*
X149099185Y-77350609D01*
X149099172Y-77350602D01*
X148953501Y-77290264D01*
X148953489Y-77290261D01*
X148798845Y-77259500D01*
X148798842Y-77259500D01*
X148041158Y-77259500D01*
X148041155Y-77259500D01*
X147886510Y-77290261D01*
X147886498Y-77290264D01*
X147740827Y-77350602D01*
X147740814Y-77350609D01*
X147609711Y-77438210D01*
X147609707Y-77438213D01*
X147498213Y-77549707D01*
X147498210Y-77549711D01*
X147410609Y-77680814D01*
X147410602Y-77680827D01*
X147350264Y-77826498D01*
X147350261Y-77826510D01*
X147319500Y-77981153D01*
X145590499Y-77981153D01*
X145559738Y-77826510D01*
X145559737Y-77826503D01*
X145559735Y-77826498D01*
X145499397Y-77680827D01*
X145499390Y-77680814D01*
X145411789Y-77549711D01*
X145411786Y-77549707D01*
X145300292Y-77438213D01*
X145300288Y-77438210D01*
X145169185Y-77350609D01*
X145169172Y-77350602D01*
X145023501Y-77290264D01*
X145023489Y-77290261D01*
X144868845Y-77259500D01*
X144868842Y-77259500D01*
X143611158Y-77259500D01*
X143611155Y-77259500D01*
X143456510Y-77290261D01*
X143456498Y-77290264D01*
X143310827Y-77350602D01*
X143310814Y-77350609D01*
X143179711Y-77438210D01*
X143179707Y-77438213D01*
X143068213Y-77549707D01*
X143068210Y-77549711D01*
X142980609Y-77680814D01*
X142980602Y-77680827D01*
X142920264Y-77826498D01*
X142920261Y-77826510D01*
X142889500Y-77981153D01*
X101050500Y-77981153D01*
X101050500Y-64310943D01*
X123949500Y-64310943D01*
X123949500Y-64469057D01*
X123958917Y-64504199D01*
X123990423Y-64621783D01*
X123990426Y-64621790D01*
X124069475Y-64758709D01*
X124069479Y-64758714D01*
X124069480Y-64758716D01*
X124181284Y-64870520D01*
X124181286Y-64870521D01*
X124181290Y-64870524D01*
X124318209Y-64949573D01*
X124318216Y-64949577D01*
X124395278Y-64970225D01*
X124454937Y-65006590D01*
X124485466Y-65069437D01*
X124477171Y-65138813D01*
X124432686Y-65192691D01*
X124395279Y-65209774D01*
X124362615Y-65218526D01*
X124318214Y-65230423D01*
X124318209Y-65230426D01*
X124181290Y-65309475D01*
X124181282Y-65309481D01*
X124069481Y-65421282D01*
X124069475Y-65421290D01*
X123990426Y-65558209D01*
X123990423Y-65558216D01*
X123949500Y-65710943D01*
X123949500Y-65869057D01*
X123958917Y-65904199D01*
X123990423Y-66021783D01*
X123990426Y-66021790D01*
X124069475Y-66158709D01*
X124069479Y-66158714D01*
X124069480Y-66158716D01*
X124181284Y-66270520D01*
X124181286Y-66270521D01*
X124181290Y-66270524D01*
X124318209Y-66349573D01*
X124318216Y-66349577D01*
X124470943Y-66390500D01*
X124470945Y-66390500D01*
X124525500Y-66390500D01*
X124592539Y-66410185D01*
X124638294Y-66462989D01*
X124649500Y-66514500D01*
X124649500Y-66569056D01*
X124690423Y-66721783D01*
X124690426Y-66721790D01*
X124769475Y-66858709D01*
X124769479Y-66858714D01*
X124769480Y-66858716D01*
X124881284Y-66970520D01*
X124881286Y-66970521D01*
X124881290Y-66970524D01*
X125018209Y-67049573D01*
X125018216Y-67049577D01*
X125170943Y-67090500D01*
X125170945Y-67090500D01*
X125329055Y-67090500D01*
X125329057Y-67090500D01*
X125481784Y-67049577D01*
X125618716Y-66970520D01*
X125730520Y-66858716D01*
X125809577Y-66721784D01*
X125830225Y-66644721D01*
X125866590Y-66585062D01*
X125929437Y-66554533D01*
X125998812Y-66562828D01*
X126052690Y-66607313D01*
X126069775Y-66644723D01*
X126090423Y-66721783D01*
X126090426Y-66721790D01*
X126169475Y-66858709D01*
X126169479Y-66858714D01*
X126169480Y-66858716D01*
X126281284Y-66970520D01*
X126281286Y-66970521D01*
X126281290Y-66970524D01*
X126418209Y-67049573D01*
X126418216Y-67049577D01*
X126570943Y-67090500D01*
X126570945Y-67090500D01*
X126729055Y-67090500D01*
X126729057Y-67090500D01*
X126881784Y-67049577D01*
X127018716Y-66970520D01*
X127130520Y-66858716D01*
X127209577Y-66721784D01*
X127250500Y-66569057D01*
X127250500Y-66514500D01*
X127270185Y-66447461D01*
X127322989Y-66401706D01*
X127374500Y-66390500D01*
X127429055Y-66390500D01*
X127429057Y-66390500D01*
X127581784Y-66349577D01*
X127718716Y-66270520D01*
X127830520Y-66158716D01*
X127909577Y-66021784D01*
X127950500Y-65869057D01*
X127950500Y-65710943D01*
X127909577Y-65558216D01*
X127909573Y-65558209D01*
X127830524Y-65421290D01*
X127830518Y-65421282D01*
X127718717Y-65309481D01*
X127718709Y-65309475D01*
X127581790Y-65230426D01*
X127581786Y-65230424D01*
X127581784Y-65230423D01*
X127504721Y-65209774D01*
X127445062Y-65173410D01*
X127414533Y-65110563D01*
X127422828Y-65041188D01*
X127467313Y-64987310D01*
X127504720Y-64970225D01*
X127581784Y-64949577D01*
X127718716Y-64870520D01*
X127830520Y-64758716D01*
X127909577Y-64621784D01*
X127950500Y-64469057D01*
X127950500Y-64310943D01*
X127909577Y-64158216D01*
X127909573Y-64158209D01*
X127830524Y-64021290D01*
X127830518Y-64021282D01*
X127718717Y-63909481D01*
X127718709Y-63909475D01*
X127581790Y-63830426D01*
X127581786Y-63830424D01*
X127581784Y-63830423D01*
X127429057Y-63789500D01*
X127374500Y-63789500D01*
X127307461Y-63769815D01*
X127261706Y-63717011D01*
X127250500Y-63665500D01*
X127250500Y-63610945D01*
X127250500Y-63610943D01*
X127209577Y-63458216D01*
X127209573Y-63458209D01*
X127130524Y-63321290D01*
X127130518Y-63321282D01*
X127018717Y-63209481D01*
X127018709Y-63209475D01*
X126881790Y-63130426D01*
X126881786Y-63130424D01*
X126881784Y-63130423D01*
X126729057Y-63089500D01*
X126570943Y-63089500D01*
X126418216Y-63130423D01*
X126418209Y-63130426D01*
X126281290Y-63209475D01*
X126281282Y-63209481D01*
X126169481Y-63321282D01*
X126169475Y-63321290D01*
X126090426Y-63458209D01*
X126090423Y-63458214D01*
X126069775Y-63535277D01*
X126033410Y-63594937D01*
X125970563Y-63625466D01*
X125901187Y-63617171D01*
X125847309Y-63572686D01*
X125830225Y-63535277D01*
X125809576Y-63458214D01*
X125809573Y-63458209D01*
X125730524Y-63321290D01*
X125730518Y-63321282D01*
X125618717Y-63209481D01*
X125618709Y-63209475D01*
X125481790Y-63130426D01*
X125481786Y-63130424D01*
X125481784Y-63130423D01*
X125329057Y-63089500D01*
X125170943Y-63089500D01*
X125018216Y-63130423D01*
X125018209Y-63130426D01*
X124881290Y-63209475D01*
X124881282Y-63209481D01*
X124769481Y-63321282D01*
X124769475Y-63321290D01*
X124690426Y-63458209D01*
X124690423Y-63458216D01*
X124649500Y-63610943D01*
X124649500Y-63665500D01*
X124629815Y-63732539D01*
X124577011Y-63778294D01*
X124525500Y-63789500D01*
X124470943Y-63789500D01*
X124318216Y-63830423D01*
X124318209Y-63830426D01*
X124181290Y-63909475D01*
X124181282Y-63909481D01*
X124069481Y-64021282D01*
X124069475Y-64021290D01*
X123990426Y-64158209D01*
X123990423Y-64158216D01*
X123949500Y-64310943D01*
X101050500Y-64310943D01*
X101050500Y-56614500D01*
X101070185Y-56547461D01*
X101122989Y-56501706D01*
X101174500Y-56490500D01*
X150275500Y-56490500D01*
X150342539Y-56510185D01*
G37*
%TD.AperFunction*%
%TD*%
%TA.AperFunction,Conductor*%
%TO.N,/Power Module/USB_5V*%
G36*
X128530167Y-86675588D02*
G01*
X128537599Y-86680582D01*
X128539325Y-86689369D01*
X128539173Y-86690023D01*
X128512945Y-86790141D01*
X128512454Y-86791610D01*
X128477080Y-86877997D01*
X128476225Y-86879682D01*
X128396383Y-87009793D01*
X128396255Y-87009997D01*
X128338884Y-87099309D01*
X128338883Y-87099312D01*
X128293000Y-87218058D01*
X128292999Y-87218060D01*
X128292999Y-87218062D01*
X128286240Y-87257958D01*
X128279749Y-87296266D01*
X128275550Y-87381192D01*
X128271718Y-87389286D01*
X128263864Y-87392314D01*
X128035866Y-87392314D01*
X128027593Y-87388887D01*
X128024198Y-87381477D01*
X128017895Y-87296266D01*
X128015061Y-87257953D01*
X128004427Y-87218062D01*
X127988385Y-87157881D01*
X127959498Y-87099312D01*
X127949692Y-87079429D01*
X127949690Y-87079426D01*
X127949687Y-87079421D01*
X127903682Y-87009899D01*
X127880042Y-86975457D01*
X127879466Y-86974528D01*
X127809247Y-86848234D01*
X127808485Y-86846567D01*
X127788126Y-86790891D01*
X127781175Y-86771882D01*
X127780818Y-86770721D01*
X127760652Y-86689919D01*
X127761974Y-86681063D01*
X127769171Y-86675735D01*
X127769693Y-86675617D01*
X127769837Y-86675588D01*
X128147692Y-86599465D01*
X128152308Y-86599465D01*
X128530167Y-86675588D01*
G37*
%TD.AperFunction*%
%TD*%
%TA.AperFunction,Conductor*%
%TO.N,/Power Module/USB_5V*%
G36*
X124331433Y-92684694D02*
G01*
X124332160Y-92685222D01*
X124408490Y-92745242D01*
X124409349Y-92745989D01*
X124463528Y-92798028D01*
X124482251Y-92816012D01*
X124566413Y-92893955D01*
X124566414Y-92893957D01*
X124591868Y-92907825D01*
X124633146Y-92930315D01*
X124664811Y-92934316D01*
X124697948Y-92928433D01*
X124738508Y-92907825D01*
X124774531Y-92877412D01*
X124783060Y-92874695D01*
X124790349Y-92878081D01*
X124950629Y-93038361D01*
X124954056Y-93046634D01*
X124950629Y-93054907D01*
X124950011Y-93055482D01*
X124866251Y-93127943D01*
X124864517Y-93129186D01*
X124783973Y-93176446D01*
X124781918Y-93177398D01*
X124707577Y-93203422D01*
X124706177Y-93203816D01*
X124631984Y-93219811D01*
X124631756Y-93219858D01*
X124608496Y-93224391D01*
X124540611Y-93243379D01*
X124472729Y-93262366D01*
X124472728Y-93262366D01*
X124472726Y-93262367D01*
X124472725Y-93262367D01*
X124402035Y-93294810D01*
X124331756Y-93336883D01*
X124322897Y-93338192D01*
X124316035Y-93333368D01*
X124103666Y-93017217D01*
X124101897Y-93008439D01*
X124103653Y-93004188D01*
X124150390Y-92934316D01*
X124315203Y-92687913D01*
X124322651Y-92682943D01*
X124331433Y-92684694D01*
G37*
%TD.AperFunction*%
%TD*%
%TA.AperFunction,Conductor*%
%TO.N,/Power Module/USB_5V*%
G36*
X119277390Y-88681113D02*
G01*
X119280786Y-88688541D01*
X119289733Y-88812065D01*
X119289734Y-88812073D01*
X119315873Y-88912258D01*
X119315874Y-88912261D01*
X119353813Y-88990920D01*
X119353818Y-88990930D01*
X119353821Y-88990936D01*
X119353823Y-88990938D01*
X119398946Y-89060730D01*
X119419658Y-89091550D01*
X119420198Y-89092436D01*
X119490502Y-89220212D01*
X119491246Y-89221853D01*
X119518647Y-89297190D01*
X119519005Y-89298362D01*
X119539355Y-89380084D01*
X119538029Y-89388940D01*
X119530829Y-89394264D01*
X119530313Y-89394381D01*
X119152311Y-89470534D01*
X119147689Y-89470534D01*
X118769657Y-89394375D01*
X118762224Y-89389381D01*
X118760498Y-89380594D01*
X118760599Y-89380141D01*
X118784244Y-89284204D01*
X118784566Y-89283130D01*
X118814606Y-89198429D01*
X118815159Y-89197128D01*
X118879694Y-89067604D01*
X118879828Y-89067343D01*
X118883333Y-89060730D01*
X118917054Y-88997101D01*
X118962129Y-88868602D01*
X118975266Y-88783749D01*
X118979501Y-88688863D01*
X118983293Y-88680752D01*
X118991189Y-88677686D01*
X119269117Y-88677686D01*
X119277390Y-88681113D01*
G37*
%TD.AperFunction*%
%TD*%
%TA.AperFunction,Conductor*%
%TO.N,/Power Module/USB_5V*%
G36*
X119510263Y-85715608D02*
G01*
X119517696Y-85720602D01*
X119519422Y-85729389D01*
X119519293Y-85729952D01*
X119494483Y-85827855D01*
X119494083Y-85829127D01*
X119461664Y-85914668D01*
X119460980Y-85916151D01*
X119389641Y-86046132D01*
X119389505Y-86046373D01*
X119343380Y-86125897D01*
X119343376Y-86125907D01*
X119297929Y-86249624D01*
X119297926Y-86249635D01*
X119284741Y-86331213D01*
X119284739Y-86331233D01*
X119280523Y-86421162D01*
X119276713Y-86429266D01*
X119268836Y-86432314D01*
X118990950Y-86432314D01*
X118982677Y-86428887D01*
X118979276Y-86421387D01*
X118971081Y-86297657D01*
X118971081Y-86297651D01*
X118947085Y-86196919D01*
X118912153Y-86117371D01*
X118870542Y-86046454D01*
X118870311Y-86046041D01*
X118855084Y-86017506D01*
X118790618Y-85896689D01*
X118789924Y-85895118D01*
X118762133Y-85816920D01*
X118761799Y-85815810D01*
X118740610Y-85729893D01*
X118741957Y-85721042D01*
X118749168Y-85715733D01*
X118749618Y-85715631D01*
X119127692Y-85639465D01*
X119132308Y-85639465D01*
X119510263Y-85715608D01*
G37*
%TD.AperFunction*%
%TD*%
%TA.AperFunction,Conductor*%
%TO.N,Net-(U2-THERM)*%
G36*
X119017456Y-95321113D02*
G01*
X119020847Y-95328470D01*
X119030550Y-95452044D01*
X119030552Y-95452057D01*
X119058832Y-95551814D01*
X119058836Y-95551825D01*
X119099795Y-95629671D01*
X119099797Y-95629674D01*
X119148387Y-95698306D01*
X119148392Y-95698313D01*
X119180779Y-95742735D01*
X119181479Y-95743816D01*
X119251437Y-95866046D01*
X119252251Y-95867786D01*
X119279304Y-95940655D01*
X119279683Y-95941876D01*
X119299325Y-96020065D01*
X119298018Y-96028924D01*
X119290829Y-96034263D01*
X119290289Y-96034386D01*
X118914781Y-96110036D01*
X118905994Y-96108310D01*
X118905950Y-96108281D01*
X118587416Y-95894486D01*
X118582456Y-95887030D01*
X118584221Y-95878251D01*
X118584416Y-95877969D01*
X118591692Y-95867786D01*
X118679769Y-95744519D01*
X118750423Y-95644365D01*
X118799095Y-95532716D01*
X118814887Y-95440852D01*
X118819534Y-95328899D01*
X118823301Y-95320777D01*
X118831224Y-95317686D01*
X119009183Y-95317686D01*
X119017456Y-95321113D01*
G37*
%TD.AperFunction*%
%TD*%
%TA.AperFunction,Conductor*%
%TO.N,Net-(U2-THERM)*%
G36*
X119300070Y-91725569D02*
G01*
X119307503Y-91730563D01*
X119309229Y-91739350D01*
X119309053Y-91740093D01*
X119281442Y-91842213D01*
X119280857Y-91843871D01*
X119242550Y-91930930D01*
X119241515Y-91932799D01*
X119153162Y-92062679D01*
X119153052Y-92062837D01*
X119084335Y-92160353D01*
X119038068Y-92274937D01*
X119024758Y-92350332D01*
X119024757Y-92350341D01*
X119020574Y-92431218D01*
X119016725Y-92439303D01*
X119008890Y-92442314D01*
X118830785Y-92442314D01*
X118822512Y-92438887D01*
X118819124Y-92431565D01*
X118812502Y-92350332D01*
X118809042Y-92307880D01*
X118779688Y-92208287D01*
X118779686Y-92208283D01*
X118737213Y-92130821D01*
X118686886Y-92062752D01*
X118678276Y-92051383D01*
X118648724Y-92012359D01*
X118647950Y-92011197D01*
X118601195Y-91930930D01*
X118578140Y-91891350D01*
X118577295Y-91889568D01*
X118550407Y-91817822D01*
X118550018Y-91816578D01*
X118530688Y-91739939D01*
X118531988Y-91731083D01*
X118539171Y-91725736D01*
X118539713Y-91725612D01*
X118917692Y-91649465D01*
X118922308Y-91649465D01*
X119300070Y-91725569D01*
G37*
%TD.AperFunction*%
%TD*%
%TA.AperFunction,Conductor*%
%TO.N,/Power Module/PG*%
G36*
X117865070Y-85165569D02*
G01*
X117872503Y-85170563D01*
X117874229Y-85179350D01*
X117874053Y-85180093D01*
X117846442Y-85282213D01*
X117845857Y-85283871D01*
X117807550Y-85370930D01*
X117806515Y-85372799D01*
X117718162Y-85502679D01*
X117718052Y-85502837D01*
X117649335Y-85600353D01*
X117603068Y-85714937D01*
X117589758Y-85790332D01*
X117589757Y-85790341D01*
X117585574Y-85871218D01*
X117581725Y-85879303D01*
X117573890Y-85882314D01*
X117395785Y-85882314D01*
X117387512Y-85878887D01*
X117384124Y-85871565D01*
X117377502Y-85790332D01*
X117374042Y-85747880D01*
X117344688Y-85648287D01*
X117344686Y-85648283D01*
X117302213Y-85570821D01*
X117251886Y-85502752D01*
X117243276Y-85491383D01*
X117213724Y-85452359D01*
X117212950Y-85451197D01*
X117166195Y-85370930D01*
X117143140Y-85331350D01*
X117142295Y-85329568D01*
X117115407Y-85257822D01*
X117115018Y-85256578D01*
X117095688Y-85179939D01*
X117096988Y-85171083D01*
X117104171Y-85165736D01*
X117104713Y-85165612D01*
X117482692Y-85089465D01*
X117487308Y-85089465D01*
X117865070Y-85165569D01*
G37*
%TD.AperFunction*%
%TD*%
%TA.AperFunction,Conductor*%
%TO.N,/Power Module/PG*%
G36*
X117582251Y-88851113D02*
G01*
X117585657Y-88858689D01*
X117593653Y-88992606D01*
X117593653Y-88992607D01*
X117619771Y-89094674D01*
X117644598Y-89140689D01*
X117663587Y-89175883D01*
X117725334Y-89258251D01*
X117725399Y-89258340D01*
X117835356Y-89407933D01*
X117837495Y-89416628D01*
X117832858Y-89424289D01*
X117832449Y-89424577D01*
X117514049Y-89638281D01*
X117505270Y-89640046D01*
X117505218Y-89640036D01*
X117129833Y-89564411D01*
X117122400Y-89559417D01*
X117120674Y-89550630D01*
X117120822Y-89549993D01*
X117147057Y-89449846D01*
X117147541Y-89448398D01*
X117182920Y-89361997D01*
X117183774Y-89360316D01*
X117263682Y-89230100D01*
X117321118Y-89140685D01*
X117367001Y-89021938D01*
X117380250Y-88943742D01*
X117384450Y-88858807D01*
X117388282Y-88850714D01*
X117396136Y-88847686D01*
X117573978Y-88847686D01*
X117582251Y-88851113D01*
G37*
%TD.AperFunction*%
%TD*%
%TA.AperFunction,Conductor*%
%TO.N,/Power Module/STAT1*%
G36*
X114660070Y-85745569D02*
G01*
X114667503Y-85750563D01*
X114669229Y-85759350D01*
X114669053Y-85760093D01*
X114641442Y-85862213D01*
X114640857Y-85863871D01*
X114602550Y-85950930D01*
X114601515Y-85952799D01*
X114513162Y-86082679D01*
X114513052Y-86082837D01*
X114444335Y-86180353D01*
X114398068Y-86294937D01*
X114384758Y-86370332D01*
X114384757Y-86370341D01*
X114380574Y-86451218D01*
X114376725Y-86459303D01*
X114368890Y-86462314D01*
X114190785Y-86462314D01*
X114182512Y-86458887D01*
X114179124Y-86451565D01*
X114172502Y-86370332D01*
X114169042Y-86327880D01*
X114139688Y-86228287D01*
X114139686Y-86228283D01*
X114097213Y-86150821D01*
X114046886Y-86082752D01*
X114038276Y-86071383D01*
X114008724Y-86032359D01*
X114007950Y-86031197D01*
X113961195Y-85950930D01*
X113938140Y-85911350D01*
X113937295Y-85909568D01*
X113910407Y-85837822D01*
X113910018Y-85836578D01*
X113890688Y-85759939D01*
X113891988Y-85751083D01*
X113899171Y-85745736D01*
X113899713Y-85745612D01*
X114277692Y-85669465D01*
X114282308Y-85669465D01*
X114660070Y-85745569D01*
G37*
%TD.AperFunction*%
%TD*%
%TA.AperFunction,Conductor*%
%TO.N,/Power Module/STAT1*%
G36*
X114377448Y-89431927D02*
G01*
X114380840Y-89439291D01*
X114390591Y-89564481D01*
X114420816Y-89660133D01*
X114420817Y-89660134D01*
X114468357Y-89733309D01*
X114468359Y-89733312D01*
X114530906Y-89801867D01*
X114575578Y-89849202D01*
X114576262Y-89849995D01*
X114684780Y-89987854D01*
X114687205Y-89996475D01*
X114682824Y-90004284D01*
X114682107Y-90004806D01*
X114364049Y-90218281D01*
X114355270Y-90220046D01*
X114355218Y-90220036D01*
X113979619Y-90144368D01*
X113972186Y-90139374D01*
X113970460Y-90130587D01*
X113970561Y-90130135D01*
X113993567Y-90035479D01*
X113993868Y-90034448D01*
X114006442Y-89997772D01*
X114022692Y-89950368D01*
X114023181Y-89949165D01*
X114084359Y-89820089D01*
X114084442Y-89819920D01*
X114117273Y-89754975D01*
X114162156Y-89623910D01*
X114175269Y-89537309D01*
X114179513Y-89439691D01*
X114183296Y-89431575D01*
X114191202Y-89428500D01*
X114369175Y-89428500D01*
X114377448Y-89431927D01*
G37*
%TD.AperFunction*%
%TD*%
%TA.AperFunction,Conductor*%
%TO.N,/Power Module/STAT2*%
G36*
X115987217Y-86013666D02*
G01*
X116303246Y-86225953D01*
X116308203Y-86233411D01*
X116306681Y-86241806D01*
X116217132Y-86387037D01*
X116201163Y-86412937D01*
X116197032Y-86419636D01*
X116137312Y-86517701D01*
X116136598Y-86518743D01*
X116073144Y-86601360D01*
X116072401Y-86602235D01*
X115978975Y-86701894D01*
X115970816Y-86705586D01*
X115962437Y-86702428D01*
X115962166Y-86702165D01*
X115836134Y-86576133D01*
X115832707Y-86567860D01*
X115834729Y-86561285D01*
X115869840Y-86509623D01*
X115866964Y-86459318D01*
X115832348Y-86412940D01*
X115832342Y-86412934D01*
X115777682Y-86365055D01*
X115724533Y-86319401D01*
X115723387Y-86318270D01*
X115656268Y-86242258D01*
X115653361Y-86233788D01*
X115657294Y-86225744D01*
X115658529Y-86224791D01*
X115974188Y-86013652D01*
X115982970Y-86011902D01*
X115987217Y-86013666D01*
G37*
%TD.AperFunction*%
%TD*%
%TA.AperFunction,Conductor*%
%TO.N,/Power Module/STAT2*%
G36*
X115997488Y-88551113D02*
G01*
X116000876Y-88558435D01*
X116010958Y-88682120D01*
X116040312Y-88781714D01*
X116040313Y-88781716D01*
X116082785Y-88859178D01*
X116133113Y-88927247D01*
X116133168Y-88927319D01*
X116171272Y-88977635D01*
X116172049Y-88978801D01*
X116241858Y-89098647D01*
X116242704Y-89100430D01*
X116269592Y-89172177D01*
X116269981Y-89173421D01*
X116289311Y-89250056D01*
X116288011Y-89258916D01*
X116280828Y-89264263D01*
X116280277Y-89264388D01*
X115902311Y-89340534D01*
X115897689Y-89340534D01*
X115519929Y-89264430D01*
X115512496Y-89259436D01*
X115510770Y-89250649D01*
X115510946Y-89249906D01*
X115531797Y-89172789D01*
X115538559Y-89147778D01*
X115539139Y-89146135D01*
X115577451Y-89059062D01*
X115578480Y-89057203D01*
X115666887Y-88927247D01*
X115666917Y-88927203D01*
X115735665Y-88829644D01*
X115781932Y-88715062D01*
X115795241Y-88639673D01*
X115799426Y-88558782D01*
X115803275Y-88550697D01*
X115811110Y-88547686D01*
X115989215Y-88547686D01*
X115997488Y-88551113D01*
G37*
%TD.AperFunction*%
%TD*%
%TA.AperFunction,Conductor*%
%TO.N,/Power Module/DW_OD*%
G36*
X133303675Y-92710305D02*
G01*
X133500157Y-92906787D01*
X133503584Y-92915060D01*
X133500834Y-92922595D01*
X133424969Y-93012707D01*
X133424965Y-93012712D01*
X133383479Y-93098001D01*
X133383477Y-93098007D01*
X133369671Y-93179623D01*
X133369922Y-93266970D01*
X133370961Y-93354842D01*
X133370894Y-93356238D01*
X133353685Y-93515350D01*
X133349389Y-93523207D01*
X133340795Y-93525724D01*
X133339794Y-93525572D01*
X132964077Y-93451648D01*
X132956622Y-93446688D01*
X132744369Y-93127338D01*
X132742644Y-93118553D01*
X132747638Y-93111120D01*
X132747767Y-93111035D01*
X132840902Y-93051621D01*
X132932198Y-92993382D01*
X132980151Y-92962525D01*
X133055001Y-92914363D01*
X133158201Y-92832568D01*
X133287352Y-92710088D01*
X133295712Y-92706882D01*
X133303675Y-92710305D01*
G37*
%TD.AperFunction*%
%TD*%
%TA.AperFunction,Conductor*%
%TO.N,/Power Module/DW_OD*%
G36*
X136158957Y-91171957D02*
G01*
X136164266Y-91179168D01*
X136164376Y-91179659D01*
X136240534Y-91557689D01*
X136240534Y-91562311D01*
X136164391Y-91940263D01*
X136159397Y-91947696D01*
X136150610Y-91949422D01*
X136150047Y-91949294D01*
X136052143Y-91924484D01*
X136050871Y-91924083D01*
X135965330Y-91891664D01*
X135963847Y-91890980D01*
X135833866Y-91819640D01*
X135833625Y-91819504D01*
X135754101Y-91773380D01*
X135754091Y-91773376D01*
X135630375Y-91727929D01*
X135630364Y-91727926D01*
X135548786Y-91714741D01*
X135548766Y-91714739D01*
X135458838Y-91710522D01*
X135450734Y-91706711D01*
X135447686Y-91698835D01*
X135447686Y-91420950D01*
X135451113Y-91412677D01*
X135458612Y-91409276D01*
X135582349Y-91401081D01*
X135683080Y-91377085D01*
X135762628Y-91342153D01*
X135833556Y-91300535D01*
X135833943Y-91300319D01*
X135983315Y-91220615D01*
X135984876Y-91219926D01*
X136063085Y-91192131D01*
X136064177Y-91191802D01*
X136150106Y-91170610D01*
X136158957Y-91171957D01*
G37*
%TD.AperFunction*%
%TD*%
M02*
