%TF.GenerationSoftware,KiCad,Pcbnew,9.0.7-9.0.7~ubuntu24.04.1*%
%TF.CreationDate,2026-02-19T10:10:57+00:00*%
%TF.ProjectId,v1,76312e6b-6963-4616-945f-706362585858,rev?*%
%TF.SameCoordinates,Original*%
%TF.FileFunction,Legend,Bot*%
%TF.FilePolarity,Positive*%
%FSLAX46Y46*%
G04 Gerber Fmt 4.6, Leading zero omitted, Abs format (unit mm)*
G04 Created by KiCad (PCBNEW 9.0.7-9.0.7~ubuntu24.04.1) date 2026-02-19 10:10:57*
%MOMM*%
%LPD*%
G01*
G04 APERTURE LIST*
G04 APERTURE END LIST*
%LPC*%
G36*
X144855263Y-86204278D02*
G01*
X144981342Y-86238060D01*
X145094381Y-86303323D01*
X145186677Y-86395619D01*
X145251940Y-86508658D01*
X145285722Y-86634737D01*
X145285722Y-86765263D01*
X145251940Y-86891342D01*
X145186677Y-87004381D01*
X145094381Y-87096677D01*
X144981342Y-87161940D01*
X144855263Y-87195722D01*
X144790000Y-87200000D01*
X144787551Y-87200000D01*
X143692449Y-87200000D01*
X143690000Y-87200000D01*
X143624737Y-87195722D01*
X143498658Y-87161940D01*
X143385619Y-87096677D01*
X143293323Y-87004381D01*
X143228060Y-86891342D01*
X143194278Y-86765263D01*
X143194278Y-86634737D01*
X143228060Y-86508658D01*
X143293323Y-86395619D01*
X143385619Y-86303323D01*
X143498658Y-86238060D01*
X143624737Y-86204278D01*
X143690000Y-86200000D01*
X144790000Y-86200000D01*
X144855263Y-86204278D01*
G37*
G36*
X148785263Y-86204278D02*
G01*
X148911342Y-86238060D01*
X149024381Y-86303323D01*
X149116677Y-86395619D01*
X149181940Y-86508658D01*
X149215722Y-86634737D01*
X149215722Y-86765263D01*
X149181940Y-86891342D01*
X149116677Y-87004381D01*
X149024381Y-87096677D01*
X148911342Y-87161940D01*
X148785263Y-87195722D01*
X148720000Y-87200000D01*
X148717551Y-87200000D01*
X148122449Y-87200000D01*
X148120000Y-87200000D01*
X148054737Y-87195722D01*
X147928658Y-87161940D01*
X147815619Y-87096677D01*
X147723323Y-87004381D01*
X147658060Y-86891342D01*
X147624278Y-86765263D01*
X147624278Y-86634737D01*
X147658060Y-86508658D01*
X147723323Y-86395619D01*
X147815619Y-86303323D01*
X147928658Y-86238060D01*
X148054737Y-86204278D01*
X148120000Y-86200000D01*
X148720000Y-86200000D01*
X148785263Y-86204278D01*
G37*
G36*
X144894372Y-84969739D02*
G01*
X144967847Y-85012160D01*
X145027840Y-85072153D01*
X145070261Y-85145628D01*
X145092220Y-85227579D01*
X145092220Y-85312421D01*
X145070261Y-85394372D01*
X145027840Y-85467847D01*
X144967847Y-85527840D01*
X144894372Y-85570261D01*
X144812421Y-85592220D01*
X144727579Y-85592220D01*
X144645628Y-85570261D01*
X144572153Y-85527840D01*
X144512160Y-85467847D01*
X144469739Y-85394372D01*
X144447780Y-85312421D01*
X144447780Y-85227579D01*
X144469739Y-85145628D01*
X144512160Y-85072153D01*
X144572153Y-85012160D01*
X144645628Y-84969739D01*
X144727579Y-84947780D01*
X144812421Y-84947780D01*
X144894372Y-84969739D01*
G37*
G36*
X144894372Y-79189739D02*
G01*
X144967847Y-79232160D01*
X145027840Y-79292153D01*
X145070261Y-79365628D01*
X145092220Y-79447579D01*
X145092220Y-79532421D01*
X145070261Y-79614372D01*
X145027840Y-79687847D01*
X144967847Y-79747840D01*
X144894372Y-79790261D01*
X144812421Y-79812220D01*
X144727579Y-79812220D01*
X144645628Y-79790261D01*
X144572153Y-79747840D01*
X144512160Y-79687847D01*
X144469739Y-79614372D01*
X144447780Y-79532421D01*
X144447780Y-79447579D01*
X144469739Y-79365628D01*
X144512160Y-79292153D01*
X144572153Y-79232160D01*
X144645628Y-79189739D01*
X144727579Y-79167780D01*
X144812421Y-79167780D01*
X144894372Y-79189739D01*
G37*
G36*
X144855263Y-77564278D02*
G01*
X144981342Y-77598060D01*
X145094381Y-77663323D01*
X145186677Y-77755619D01*
X145251940Y-77868658D01*
X145285722Y-77994737D01*
X145285722Y-78125263D01*
X145251940Y-78251342D01*
X145186677Y-78364381D01*
X145094381Y-78456677D01*
X144981342Y-78521940D01*
X144855263Y-78555722D01*
X144790000Y-78560000D01*
X144787551Y-78560000D01*
X143692449Y-78560000D01*
X143690000Y-78560000D01*
X143624737Y-78555722D01*
X143498658Y-78521940D01*
X143385619Y-78456677D01*
X143293323Y-78364381D01*
X143228060Y-78251342D01*
X143194278Y-78125263D01*
X143194278Y-77994737D01*
X143228060Y-77868658D01*
X143293323Y-77755619D01*
X143385619Y-77663323D01*
X143498658Y-77598060D01*
X143624737Y-77564278D01*
X143690000Y-77560000D01*
X144790000Y-77560000D01*
X144855263Y-77564278D01*
G37*
G36*
X148785263Y-77564278D02*
G01*
X148911342Y-77598060D01*
X149024381Y-77663323D01*
X149116677Y-77755619D01*
X149181940Y-77868658D01*
X149215722Y-77994737D01*
X149215722Y-78125263D01*
X149181940Y-78251342D01*
X149116677Y-78364381D01*
X149024381Y-78456677D01*
X148911342Y-78521940D01*
X148785263Y-78555722D01*
X148720000Y-78560000D01*
X148717551Y-78560000D01*
X148122449Y-78560000D01*
X148120000Y-78560000D01*
X148054737Y-78555722D01*
X147928658Y-78521940D01*
X147815619Y-78456677D01*
X147723323Y-78364381D01*
X147658060Y-78251342D01*
X147624278Y-78125263D01*
X147624278Y-77994737D01*
X147658060Y-77868658D01*
X147723323Y-77755619D01*
X147815619Y-77663323D01*
X147928658Y-77598060D01*
X148054737Y-77564278D01*
X148120000Y-77560000D01*
X148720000Y-77560000D01*
X148785263Y-77564278D01*
G37*
%LPD*%
M02*
