%TF.GenerationSoftware,KiCad,Pcbnew,9.0.7-9.0.7~ubuntu24.04.1*%
%TF.CreationDate,2026-03-24T03:16:34+00:00*%
%TF.ProjectId,v1,76312e6b-6963-4616-945f-706362585858,rev?*%
%TF.SameCoordinates,Original*%
%TF.FileFunction,Legend,Top*%
%TF.FilePolarity,Positive*%
%FSLAX46Y46*%
G04 Gerber Fmt 4.6, Leading zero omitted, Abs format (unit mm)*
G04 Created by KiCad (PCBNEW 9.0.7-9.0.7~ubuntu24.04.1) date 2026-03-24 03:16:34*
%MOMM*%
%LPD*%
G01*
G04 APERTURE LIST*
%ADD10C,0.150000*%
%ADD11C,0.152000*%
%ADD12C,0.120000*%
%ADD13C,0.100000*%
%ADD14C,0.200000*%
%ADD15C,0.152400*%
G04 APERTURE END LIST*
D10*
X121439666Y-156504819D02*
X121439666Y-157219104D01*
X121439666Y-157219104D02*
X121392047Y-157361961D01*
X121392047Y-157361961D02*
X121296809Y-157457200D01*
X121296809Y-157457200D02*
X121153952Y-157504819D01*
X121153952Y-157504819D02*
X121058714Y-157504819D01*
X121868238Y-156600057D02*
X121915857Y-156552438D01*
X121915857Y-156552438D02*
X122011095Y-156504819D01*
X122011095Y-156504819D02*
X122249190Y-156504819D01*
X122249190Y-156504819D02*
X122344428Y-156552438D01*
X122344428Y-156552438D02*
X122392047Y-156600057D01*
X122392047Y-156600057D02*
X122439666Y-156695295D01*
X122439666Y-156695295D02*
X122439666Y-156790533D01*
X122439666Y-156790533D02*
X122392047Y-156933390D01*
X122392047Y-156933390D02*
X121820619Y-157504819D01*
X121820619Y-157504819D02*
X122439666Y-157504819D01*
X136607142Y-156914819D02*
X136273809Y-156438628D01*
X136035714Y-156914819D02*
X136035714Y-155914819D01*
X136035714Y-155914819D02*
X136416666Y-155914819D01*
X136416666Y-155914819D02*
X136511904Y-155962438D01*
X136511904Y-155962438D02*
X136559523Y-156010057D01*
X136559523Y-156010057D02*
X136607142Y-156105295D01*
X136607142Y-156105295D02*
X136607142Y-156248152D01*
X136607142Y-156248152D02*
X136559523Y-156343390D01*
X136559523Y-156343390D02*
X136511904Y-156391009D01*
X136511904Y-156391009D02*
X136416666Y-156438628D01*
X136416666Y-156438628D02*
X136035714Y-156438628D01*
X137559523Y-156914819D02*
X136988095Y-156914819D01*
X137273809Y-156914819D02*
X137273809Y-155914819D01*
X137273809Y-155914819D02*
X137178571Y-156057676D01*
X137178571Y-156057676D02*
X137083333Y-156152914D01*
X137083333Y-156152914D02*
X136988095Y-156200533D01*
X137892857Y-155914819D02*
X138559523Y-155914819D01*
X138559523Y-155914819D02*
X138130952Y-156914819D01*
X135259580Y-154352857D02*
X135307200Y-154400476D01*
X135307200Y-154400476D02*
X135354819Y-154543333D01*
X135354819Y-154543333D02*
X135354819Y-154638571D01*
X135354819Y-154638571D02*
X135307200Y-154781428D01*
X135307200Y-154781428D02*
X135211961Y-154876666D01*
X135211961Y-154876666D02*
X135116723Y-154924285D01*
X135116723Y-154924285D02*
X134926247Y-154971904D01*
X134926247Y-154971904D02*
X134783390Y-154971904D01*
X134783390Y-154971904D02*
X134592914Y-154924285D01*
X134592914Y-154924285D02*
X134497676Y-154876666D01*
X134497676Y-154876666D02*
X134402438Y-154781428D01*
X134402438Y-154781428D02*
X134354819Y-154638571D01*
X134354819Y-154638571D02*
X134354819Y-154543333D01*
X134354819Y-154543333D02*
X134402438Y-154400476D01*
X134402438Y-154400476D02*
X134450057Y-154352857D01*
X135354819Y-153400476D02*
X135354819Y-153971904D01*
X135354819Y-153686190D02*
X134354819Y-153686190D01*
X134354819Y-153686190D02*
X134497676Y-153781428D01*
X134497676Y-153781428D02*
X134592914Y-153876666D01*
X134592914Y-153876666D02*
X134640533Y-153971904D01*
X134354819Y-153067142D02*
X134354819Y-152400476D01*
X134354819Y-152400476D02*
X135354819Y-152829047D01*
X118947142Y-152519580D02*
X118899523Y-152567200D01*
X118899523Y-152567200D02*
X118756666Y-152614819D01*
X118756666Y-152614819D02*
X118661428Y-152614819D01*
X118661428Y-152614819D02*
X118518571Y-152567200D01*
X118518571Y-152567200D02*
X118423333Y-152471961D01*
X118423333Y-152471961D02*
X118375714Y-152376723D01*
X118375714Y-152376723D02*
X118328095Y-152186247D01*
X118328095Y-152186247D02*
X118328095Y-152043390D01*
X118328095Y-152043390D02*
X118375714Y-151852914D01*
X118375714Y-151852914D02*
X118423333Y-151757676D01*
X118423333Y-151757676D02*
X118518571Y-151662438D01*
X118518571Y-151662438D02*
X118661428Y-151614819D01*
X118661428Y-151614819D02*
X118756666Y-151614819D01*
X118756666Y-151614819D02*
X118899523Y-151662438D01*
X118899523Y-151662438D02*
X118947142Y-151710057D01*
X119328095Y-151710057D02*
X119375714Y-151662438D01*
X119375714Y-151662438D02*
X119470952Y-151614819D01*
X119470952Y-151614819D02*
X119709047Y-151614819D01*
X119709047Y-151614819D02*
X119804285Y-151662438D01*
X119804285Y-151662438D02*
X119851904Y-151710057D01*
X119851904Y-151710057D02*
X119899523Y-151805295D01*
X119899523Y-151805295D02*
X119899523Y-151900533D01*
X119899523Y-151900533D02*
X119851904Y-152043390D01*
X119851904Y-152043390D02*
X119280476Y-152614819D01*
X119280476Y-152614819D02*
X119899523Y-152614819D01*
X120518571Y-151614819D02*
X120613809Y-151614819D01*
X120613809Y-151614819D02*
X120709047Y-151662438D01*
X120709047Y-151662438D02*
X120756666Y-151710057D01*
X120756666Y-151710057D02*
X120804285Y-151805295D01*
X120804285Y-151805295D02*
X120851904Y-151995771D01*
X120851904Y-151995771D02*
X120851904Y-152233866D01*
X120851904Y-152233866D02*
X120804285Y-152424342D01*
X120804285Y-152424342D02*
X120756666Y-152519580D01*
X120756666Y-152519580D02*
X120709047Y-152567200D01*
X120709047Y-152567200D02*
X120613809Y-152614819D01*
X120613809Y-152614819D02*
X120518571Y-152614819D01*
X120518571Y-152614819D02*
X120423333Y-152567200D01*
X120423333Y-152567200D02*
X120375714Y-152519580D01*
X120375714Y-152519580D02*
X120328095Y-152424342D01*
X120328095Y-152424342D02*
X120280476Y-152233866D01*
X120280476Y-152233866D02*
X120280476Y-151995771D01*
X120280476Y-151995771D02*
X120328095Y-151805295D01*
X120328095Y-151805295D02*
X120375714Y-151710057D01*
X120375714Y-151710057D02*
X120423333Y-151662438D01*
X120423333Y-151662438D02*
X120518571Y-151614819D01*
D11*
X135906667Y-158977096D02*
X136049524Y-159024715D01*
X136049524Y-159024715D02*
X136287619Y-159024715D01*
X136287619Y-159024715D02*
X136382857Y-158977096D01*
X136382857Y-158977096D02*
X136430476Y-158929476D01*
X136430476Y-158929476D02*
X136478095Y-158834238D01*
X136478095Y-158834238D02*
X136478095Y-158739000D01*
X136478095Y-158739000D02*
X136430476Y-158643762D01*
X136430476Y-158643762D02*
X136382857Y-158596143D01*
X136382857Y-158596143D02*
X136287619Y-158548524D01*
X136287619Y-158548524D02*
X136097143Y-158500905D01*
X136097143Y-158500905D02*
X136001905Y-158453286D01*
X136001905Y-158453286D02*
X135954286Y-158405667D01*
X135954286Y-158405667D02*
X135906667Y-158310429D01*
X135906667Y-158310429D02*
X135906667Y-158215191D01*
X135906667Y-158215191D02*
X135954286Y-158119953D01*
X135954286Y-158119953D02*
X136001905Y-158072334D01*
X136001905Y-158072334D02*
X136097143Y-158024715D01*
X136097143Y-158024715D02*
X136335238Y-158024715D01*
X136335238Y-158024715D02*
X136478095Y-158072334D01*
X136811429Y-158024715D02*
X137049524Y-159024715D01*
X137049524Y-159024715D02*
X137240000Y-158310429D01*
X137240000Y-158310429D02*
X137430476Y-159024715D01*
X137430476Y-159024715D02*
X137668572Y-158024715D01*
X138525714Y-158024715D02*
X138049524Y-158024715D01*
X138049524Y-158024715D02*
X138001905Y-158500905D01*
X138001905Y-158500905D02*
X138049524Y-158453286D01*
X138049524Y-158453286D02*
X138144762Y-158405667D01*
X138144762Y-158405667D02*
X138382857Y-158405667D01*
X138382857Y-158405667D02*
X138478095Y-158453286D01*
X138478095Y-158453286D02*
X138525714Y-158500905D01*
X138525714Y-158500905D02*
X138573333Y-158596143D01*
X138573333Y-158596143D02*
X138573333Y-158834238D01*
X138573333Y-158834238D02*
X138525714Y-158929476D01*
X138525714Y-158929476D02*
X138478095Y-158977096D01*
X138478095Y-158977096D02*
X138382857Y-159024715D01*
X138382857Y-159024715D02*
X138144762Y-159024715D01*
X138144762Y-159024715D02*
X138049524Y-158977096D01*
X138049524Y-158977096D02*
X138001905Y-158929476D01*
D10*
X128298095Y-153104819D02*
X128298095Y-153914342D01*
X128298095Y-153914342D02*
X128345714Y-154009580D01*
X128345714Y-154009580D02*
X128393333Y-154057200D01*
X128393333Y-154057200D02*
X128488571Y-154104819D01*
X128488571Y-154104819D02*
X128679047Y-154104819D01*
X128679047Y-154104819D02*
X128774285Y-154057200D01*
X128774285Y-154057200D02*
X128821904Y-154009580D01*
X128821904Y-154009580D02*
X128869523Y-153914342D01*
X128869523Y-153914342D02*
X128869523Y-153104819D01*
X129774285Y-153104819D02*
X129583809Y-153104819D01*
X129583809Y-153104819D02*
X129488571Y-153152438D01*
X129488571Y-153152438D02*
X129440952Y-153200057D01*
X129440952Y-153200057D02*
X129345714Y-153342914D01*
X129345714Y-153342914D02*
X129298095Y-153533390D01*
X129298095Y-153533390D02*
X129298095Y-153914342D01*
X129298095Y-153914342D02*
X129345714Y-154009580D01*
X129345714Y-154009580D02*
X129393333Y-154057200D01*
X129393333Y-154057200D02*
X129488571Y-154104819D01*
X129488571Y-154104819D02*
X129679047Y-154104819D01*
X129679047Y-154104819D02*
X129774285Y-154057200D01*
X129774285Y-154057200D02*
X129821904Y-154009580D01*
X129821904Y-154009580D02*
X129869523Y-153914342D01*
X129869523Y-153914342D02*
X129869523Y-153676247D01*
X129869523Y-153676247D02*
X129821904Y-153581009D01*
X129821904Y-153581009D02*
X129774285Y-153533390D01*
X129774285Y-153533390D02*
X129679047Y-153485771D01*
X129679047Y-153485771D02*
X129488571Y-153485771D01*
X129488571Y-153485771D02*
X129393333Y-153533390D01*
X129393333Y-153533390D02*
X129345714Y-153581009D01*
X129345714Y-153581009D02*
X129298095Y-153676247D01*
X111658095Y-127274819D02*
X111658095Y-126274819D01*
X111658095Y-126751009D02*
X112229523Y-126751009D01*
X112229523Y-127274819D02*
X112229523Y-126274819D01*
X113229523Y-127274819D02*
X112658095Y-127274819D01*
X112943809Y-127274819D02*
X112943809Y-126274819D01*
X112943809Y-126274819D02*
X112848571Y-126417676D01*
X112848571Y-126417676D02*
X112753333Y-126512914D01*
X112753333Y-126512914D02*
X112658095Y-126560533D01*
X135454819Y-157522857D02*
X134978628Y-157856190D01*
X135454819Y-158094285D02*
X134454819Y-158094285D01*
X134454819Y-158094285D02*
X134454819Y-157713333D01*
X134454819Y-157713333D02*
X134502438Y-157618095D01*
X134502438Y-157618095D02*
X134550057Y-157570476D01*
X134550057Y-157570476D02*
X134645295Y-157522857D01*
X134645295Y-157522857D02*
X134788152Y-157522857D01*
X134788152Y-157522857D02*
X134883390Y-157570476D01*
X134883390Y-157570476D02*
X134931009Y-157618095D01*
X134931009Y-157618095D02*
X134978628Y-157713333D01*
X134978628Y-157713333D02*
X134978628Y-158094285D01*
X134550057Y-157141904D02*
X134502438Y-157094285D01*
X134502438Y-157094285D02*
X134454819Y-156999047D01*
X134454819Y-156999047D02*
X134454819Y-156760952D01*
X134454819Y-156760952D02*
X134502438Y-156665714D01*
X134502438Y-156665714D02*
X134550057Y-156618095D01*
X134550057Y-156618095D02*
X134645295Y-156570476D01*
X134645295Y-156570476D02*
X134740533Y-156570476D01*
X134740533Y-156570476D02*
X134883390Y-156618095D01*
X134883390Y-156618095D02*
X135454819Y-157189523D01*
X135454819Y-157189523D02*
X135454819Y-156570476D01*
X134454819Y-156237142D02*
X134454819Y-155570476D01*
X134454819Y-155570476D02*
X135454819Y-155999047D01*
X138007142Y-150238819D02*
X137673809Y-149762628D01*
X137435714Y-150238819D02*
X137435714Y-149238819D01*
X137435714Y-149238819D02*
X137816666Y-149238819D01*
X137816666Y-149238819D02*
X137911904Y-149286438D01*
X137911904Y-149286438D02*
X137959523Y-149334057D01*
X137959523Y-149334057D02*
X138007142Y-149429295D01*
X138007142Y-149429295D02*
X138007142Y-149572152D01*
X138007142Y-149572152D02*
X137959523Y-149667390D01*
X137959523Y-149667390D02*
X137911904Y-149715009D01*
X137911904Y-149715009D02*
X137816666Y-149762628D01*
X137816666Y-149762628D02*
X137435714Y-149762628D01*
X138388095Y-149334057D02*
X138435714Y-149286438D01*
X138435714Y-149286438D02*
X138530952Y-149238819D01*
X138530952Y-149238819D02*
X138769047Y-149238819D01*
X138769047Y-149238819D02*
X138864285Y-149286438D01*
X138864285Y-149286438D02*
X138911904Y-149334057D01*
X138911904Y-149334057D02*
X138959523Y-149429295D01*
X138959523Y-149429295D02*
X138959523Y-149524533D01*
X138959523Y-149524533D02*
X138911904Y-149667390D01*
X138911904Y-149667390D02*
X138340476Y-150238819D01*
X138340476Y-150238819D02*
X138959523Y-150238819D01*
X139292857Y-149238819D02*
X139911904Y-149238819D01*
X139911904Y-149238819D02*
X139578571Y-149619771D01*
X139578571Y-149619771D02*
X139721428Y-149619771D01*
X139721428Y-149619771D02*
X139816666Y-149667390D01*
X139816666Y-149667390D02*
X139864285Y-149715009D01*
X139864285Y-149715009D02*
X139911904Y-149810247D01*
X139911904Y-149810247D02*
X139911904Y-150048342D01*
X139911904Y-150048342D02*
X139864285Y-150143580D01*
X139864285Y-150143580D02*
X139816666Y-150191200D01*
X139816666Y-150191200D02*
X139721428Y-150238819D01*
X139721428Y-150238819D02*
X139435714Y-150238819D01*
X139435714Y-150238819D02*
X139340476Y-150191200D01*
X139340476Y-150191200D02*
X139292857Y-150143580D01*
X106767200Y-136423332D02*
X106814819Y-136280475D01*
X106814819Y-136280475D02*
X106814819Y-136042380D01*
X106814819Y-136042380D02*
X106767200Y-135947142D01*
X106767200Y-135947142D02*
X106719580Y-135899523D01*
X106719580Y-135899523D02*
X106624342Y-135851904D01*
X106624342Y-135851904D02*
X106529104Y-135851904D01*
X106529104Y-135851904D02*
X106433866Y-135899523D01*
X106433866Y-135899523D02*
X106386247Y-135947142D01*
X106386247Y-135947142D02*
X106338628Y-136042380D01*
X106338628Y-136042380D02*
X106291009Y-136232856D01*
X106291009Y-136232856D02*
X106243390Y-136328094D01*
X106243390Y-136328094D02*
X106195771Y-136375713D01*
X106195771Y-136375713D02*
X106100533Y-136423332D01*
X106100533Y-136423332D02*
X106005295Y-136423332D01*
X106005295Y-136423332D02*
X105910057Y-136375713D01*
X105910057Y-136375713D02*
X105862438Y-136328094D01*
X105862438Y-136328094D02*
X105814819Y-136232856D01*
X105814819Y-136232856D02*
X105814819Y-135994761D01*
X105814819Y-135994761D02*
X105862438Y-135851904D01*
X105814819Y-135518570D02*
X106814819Y-135280475D01*
X106814819Y-135280475D02*
X106100533Y-135089999D01*
X106100533Y-135089999D02*
X106814819Y-134899523D01*
X106814819Y-134899523D02*
X105814819Y-134661428D01*
X105910057Y-134328094D02*
X105862438Y-134280475D01*
X105862438Y-134280475D02*
X105814819Y-134185237D01*
X105814819Y-134185237D02*
X105814819Y-133947142D01*
X105814819Y-133947142D02*
X105862438Y-133851904D01*
X105862438Y-133851904D02*
X105910057Y-133804285D01*
X105910057Y-133804285D02*
X106005295Y-133756666D01*
X106005295Y-133756666D02*
X106100533Y-133756666D01*
X106100533Y-133756666D02*
X106243390Y-133804285D01*
X106243390Y-133804285D02*
X106814819Y-134375713D01*
X106814819Y-134375713D02*
X106814819Y-133756666D01*
X128367142Y-159064819D02*
X128033809Y-158588628D01*
X127795714Y-159064819D02*
X127795714Y-158064819D01*
X127795714Y-158064819D02*
X128176666Y-158064819D01*
X128176666Y-158064819D02*
X128271904Y-158112438D01*
X128271904Y-158112438D02*
X128319523Y-158160057D01*
X128319523Y-158160057D02*
X128367142Y-158255295D01*
X128367142Y-158255295D02*
X128367142Y-158398152D01*
X128367142Y-158398152D02*
X128319523Y-158493390D01*
X128319523Y-158493390D02*
X128271904Y-158541009D01*
X128271904Y-158541009D02*
X128176666Y-158588628D01*
X128176666Y-158588628D02*
X127795714Y-158588628D01*
X128748095Y-158160057D02*
X128795714Y-158112438D01*
X128795714Y-158112438D02*
X128890952Y-158064819D01*
X128890952Y-158064819D02*
X129129047Y-158064819D01*
X129129047Y-158064819D02*
X129224285Y-158112438D01*
X129224285Y-158112438D02*
X129271904Y-158160057D01*
X129271904Y-158160057D02*
X129319523Y-158255295D01*
X129319523Y-158255295D02*
X129319523Y-158350533D01*
X129319523Y-158350533D02*
X129271904Y-158493390D01*
X129271904Y-158493390D02*
X128700476Y-159064819D01*
X128700476Y-159064819D02*
X129319523Y-159064819D01*
X129890952Y-158493390D02*
X129795714Y-158445771D01*
X129795714Y-158445771D02*
X129748095Y-158398152D01*
X129748095Y-158398152D02*
X129700476Y-158302914D01*
X129700476Y-158302914D02*
X129700476Y-158255295D01*
X129700476Y-158255295D02*
X129748095Y-158160057D01*
X129748095Y-158160057D02*
X129795714Y-158112438D01*
X129795714Y-158112438D02*
X129890952Y-158064819D01*
X129890952Y-158064819D02*
X130081428Y-158064819D01*
X130081428Y-158064819D02*
X130176666Y-158112438D01*
X130176666Y-158112438D02*
X130224285Y-158160057D01*
X130224285Y-158160057D02*
X130271904Y-158255295D01*
X130271904Y-158255295D02*
X130271904Y-158302914D01*
X130271904Y-158302914D02*
X130224285Y-158398152D01*
X130224285Y-158398152D02*
X130176666Y-158445771D01*
X130176666Y-158445771D02*
X130081428Y-158493390D01*
X130081428Y-158493390D02*
X129890952Y-158493390D01*
X129890952Y-158493390D02*
X129795714Y-158541009D01*
X129795714Y-158541009D02*
X129748095Y-158588628D01*
X129748095Y-158588628D02*
X129700476Y-158683866D01*
X129700476Y-158683866D02*
X129700476Y-158874342D01*
X129700476Y-158874342D02*
X129748095Y-158969580D01*
X129748095Y-158969580D02*
X129795714Y-159017200D01*
X129795714Y-159017200D02*
X129890952Y-159064819D01*
X129890952Y-159064819D02*
X130081428Y-159064819D01*
X130081428Y-159064819D02*
X130176666Y-159017200D01*
X130176666Y-159017200D02*
X130224285Y-158969580D01*
X130224285Y-158969580D02*
X130271904Y-158874342D01*
X130271904Y-158874342D02*
X130271904Y-158683866D01*
X130271904Y-158683866D02*
X130224285Y-158588628D01*
X130224285Y-158588628D02*
X130176666Y-158541009D01*
X130176666Y-158541009D02*
X130081428Y-158493390D01*
X116139580Y-129720857D02*
X116187200Y-129768476D01*
X116187200Y-129768476D02*
X116234819Y-129911333D01*
X116234819Y-129911333D02*
X116234819Y-130006571D01*
X116234819Y-130006571D02*
X116187200Y-130149428D01*
X116187200Y-130149428D02*
X116091961Y-130244666D01*
X116091961Y-130244666D02*
X115996723Y-130292285D01*
X115996723Y-130292285D02*
X115806247Y-130339904D01*
X115806247Y-130339904D02*
X115663390Y-130339904D01*
X115663390Y-130339904D02*
X115472914Y-130292285D01*
X115472914Y-130292285D02*
X115377676Y-130244666D01*
X115377676Y-130244666D02*
X115282438Y-130149428D01*
X115282438Y-130149428D02*
X115234819Y-130006571D01*
X115234819Y-130006571D02*
X115234819Y-129911333D01*
X115234819Y-129911333D02*
X115282438Y-129768476D01*
X115282438Y-129768476D02*
X115330057Y-129720857D01*
X116234819Y-128768476D02*
X116234819Y-129339904D01*
X116234819Y-129054190D02*
X115234819Y-129054190D01*
X115234819Y-129054190D02*
X115377676Y-129149428D01*
X115377676Y-129149428D02*
X115472914Y-129244666D01*
X115472914Y-129244666D02*
X115520533Y-129339904D01*
X115234819Y-128149428D02*
X115234819Y-128054190D01*
X115234819Y-128054190D02*
X115282438Y-127958952D01*
X115282438Y-127958952D02*
X115330057Y-127911333D01*
X115330057Y-127911333D02*
X115425295Y-127863714D01*
X115425295Y-127863714D02*
X115615771Y-127816095D01*
X115615771Y-127816095D02*
X115853866Y-127816095D01*
X115853866Y-127816095D02*
X116044342Y-127863714D01*
X116044342Y-127863714D02*
X116139580Y-127911333D01*
X116139580Y-127911333D02*
X116187200Y-127958952D01*
X116187200Y-127958952D02*
X116234819Y-128054190D01*
X116234819Y-128054190D02*
X116234819Y-128149428D01*
X116234819Y-128149428D02*
X116187200Y-128244666D01*
X116187200Y-128244666D02*
X116139580Y-128292285D01*
X116139580Y-128292285D02*
X116044342Y-128339904D01*
X116044342Y-128339904D02*
X115853866Y-128387523D01*
X115853866Y-128387523D02*
X115615771Y-128387523D01*
X115615771Y-128387523D02*
X115425295Y-128339904D01*
X115425295Y-128339904D02*
X115330057Y-128292285D01*
X115330057Y-128292285D02*
X115282438Y-128244666D01*
X115282438Y-128244666D02*
X115234819Y-128149428D01*
X116189580Y-137742857D02*
X116237200Y-137790476D01*
X116237200Y-137790476D02*
X116284819Y-137933333D01*
X116284819Y-137933333D02*
X116284819Y-138028571D01*
X116284819Y-138028571D02*
X116237200Y-138171428D01*
X116237200Y-138171428D02*
X116141961Y-138266666D01*
X116141961Y-138266666D02*
X116046723Y-138314285D01*
X116046723Y-138314285D02*
X115856247Y-138361904D01*
X115856247Y-138361904D02*
X115713390Y-138361904D01*
X115713390Y-138361904D02*
X115522914Y-138314285D01*
X115522914Y-138314285D02*
X115427676Y-138266666D01*
X115427676Y-138266666D02*
X115332438Y-138171428D01*
X115332438Y-138171428D02*
X115284819Y-138028571D01*
X115284819Y-138028571D02*
X115284819Y-137933333D01*
X115284819Y-137933333D02*
X115332438Y-137790476D01*
X115332438Y-137790476D02*
X115380057Y-137742857D01*
X116284819Y-136790476D02*
X116284819Y-137361904D01*
X116284819Y-137076190D02*
X115284819Y-137076190D01*
X115284819Y-137076190D02*
X115427676Y-137171428D01*
X115427676Y-137171428D02*
X115522914Y-137266666D01*
X115522914Y-137266666D02*
X115570533Y-137361904D01*
X115284819Y-136457142D02*
X115284819Y-135838095D01*
X115284819Y-135838095D02*
X115665771Y-136171428D01*
X115665771Y-136171428D02*
X115665771Y-136028571D01*
X115665771Y-136028571D02*
X115713390Y-135933333D01*
X115713390Y-135933333D02*
X115761009Y-135885714D01*
X115761009Y-135885714D02*
X115856247Y-135838095D01*
X115856247Y-135838095D02*
X116094342Y-135838095D01*
X116094342Y-135838095D02*
X116189580Y-135885714D01*
X116189580Y-135885714D02*
X116237200Y-135933333D01*
X116237200Y-135933333D02*
X116284819Y-136028571D01*
X116284819Y-136028571D02*
X116284819Y-136314285D01*
X116284819Y-136314285D02*
X116237200Y-136409523D01*
X116237200Y-136409523D02*
X116189580Y-136457142D01*
X111927142Y-129619580D02*
X111879523Y-129667200D01*
X111879523Y-129667200D02*
X111736666Y-129714819D01*
X111736666Y-129714819D02*
X111641428Y-129714819D01*
X111641428Y-129714819D02*
X111498571Y-129667200D01*
X111498571Y-129667200D02*
X111403333Y-129571961D01*
X111403333Y-129571961D02*
X111355714Y-129476723D01*
X111355714Y-129476723D02*
X111308095Y-129286247D01*
X111308095Y-129286247D02*
X111308095Y-129143390D01*
X111308095Y-129143390D02*
X111355714Y-128952914D01*
X111355714Y-128952914D02*
X111403333Y-128857676D01*
X111403333Y-128857676D02*
X111498571Y-128762438D01*
X111498571Y-128762438D02*
X111641428Y-128714819D01*
X111641428Y-128714819D02*
X111736666Y-128714819D01*
X111736666Y-128714819D02*
X111879523Y-128762438D01*
X111879523Y-128762438D02*
X111927142Y-128810057D01*
X112879523Y-129714819D02*
X112308095Y-129714819D01*
X112593809Y-129714819D02*
X112593809Y-128714819D01*
X112593809Y-128714819D02*
X112498571Y-128857676D01*
X112498571Y-128857676D02*
X112403333Y-128952914D01*
X112403333Y-128952914D02*
X112308095Y-129000533D01*
X113831904Y-129714819D02*
X113260476Y-129714819D01*
X113546190Y-129714819D02*
X113546190Y-128714819D01*
X113546190Y-128714819D02*
X113450952Y-128857676D01*
X113450952Y-128857676D02*
X113355714Y-128952914D01*
X113355714Y-128952914D02*
X113260476Y-129000533D01*
X138266667Y-141755200D02*
X138409524Y-141802819D01*
X138409524Y-141802819D02*
X138647619Y-141802819D01*
X138647619Y-141802819D02*
X138742857Y-141755200D01*
X138742857Y-141755200D02*
X138790476Y-141707580D01*
X138790476Y-141707580D02*
X138838095Y-141612342D01*
X138838095Y-141612342D02*
X138838095Y-141517104D01*
X138838095Y-141517104D02*
X138790476Y-141421866D01*
X138790476Y-141421866D02*
X138742857Y-141374247D01*
X138742857Y-141374247D02*
X138647619Y-141326628D01*
X138647619Y-141326628D02*
X138457143Y-141279009D01*
X138457143Y-141279009D02*
X138361905Y-141231390D01*
X138361905Y-141231390D02*
X138314286Y-141183771D01*
X138314286Y-141183771D02*
X138266667Y-141088533D01*
X138266667Y-141088533D02*
X138266667Y-140993295D01*
X138266667Y-140993295D02*
X138314286Y-140898057D01*
X138314286Y-140898057D02*
X138361905Y-140850438D01*
X138361905Y-140850438D02*
X138457143Y-140802819D01*
X138457143Y-140802819D02*
X138695238Y-140802819D01*
X138695238Y-140802819D02*
X138838095Y-140850438D01*
X139171429Y-140802819D02*
X139409524Y-141802819D01*
X139409524Y-141802819D02*
X139600000Y-141088533D01*
X139600000Y-141088533D02*
X139790476Y-141802819D01*
X139790476Y-141802819D02*
X140028572Y-140802819D01*
X140933333Y-141802819D02*
X140361905Y-141802819D01*
X140647619Y-141802819D02*
X140647619Y-140802819D01*
X140647619Y-140802819D02*
X140552381Y-140945676D01*
X140552381Y-140945676D02*
X140457143Y-141040914D01*
X140457143Y-141040914D02*
X140361905Y-141088533D01*
X114068628Y-138456190D02*
X114544819Y-138456190D01*
X113544819Y-138789523D02*
X114068628Y-138456190D01*
X114068628Y-138456190D02*
X113544819Y-138122857D01*
X114544819Y-137265714D02*
X114544819Y-137837142D01*
X114544819Y-137551428D02*
X113544819Y-137551428D01*
X113544819Y-137551428D02*
X113687676Y-137646666D01*
X113687676Y-137646666D02*
X113782914Y-137741904D01*
X113782914Y-137741904D02*
X113830533Y-137837142D01*
X123257142Y-152509580D02*
X123209523Y-152557200D01*
X123209523Y-152557200D02*
X123066666Y-152604819D01*
X123066666Y-152604819D02*
X122971428Y-152604819D01*
X122971428Y-152604819D02*
X122828571Y-152557200D01*
X122828571Y-152557200D02*
X122733333Y-152461961D01*
X122733333Y-152461961D02*
X122685714Y-152366723D01*
X122685714Y-152366723D02*
X122638095Y-152176247D01*
X122638095Y-152176247D02*
X122638095Y-152033390D01*
X122638095Y-152033390D02*
X122685714Y-151842914D01*
X122685714Y-151842914D02*
X122733333Y-151747676D01*
X122733333Y-151747676D02*
X122828571Y-151652438D01*
X122828571Y-151652438D02*
X122971428Y-151604819D01*
X122971428Y-151604819D02*
X123066666Y-151604819D01*
X123066666Y-151604819D02*
X123209523Y-151652438D01*
X123209523Y-151652438D02*
X123257142Y-151700057D01*
X124209523Y-152604819D02*
X123638095Y-152604819D01*
X123923809Y-152604819D02*
X123923809Y-151604819D01*
X123923809Y-151604819D02*
X123828571Y-151747676D01*
X123828571Y-151747676D02*
X123733333Y-151842914D01*
X123733333Y-151842914D02*
X123638095Y-151890533D01*
X124685714Y-152604819D02*
X124876190Y-152604819D01*
X124876190Y-152604819D02*
X124971428Y-152557200D01*
X124971428Y-152557200D02*
X125019047Y-152509580D01*
X125019047Y-152509580D02*
X125114285Y-152366723D01*
X125114285Y-152366723D02*
X125161904Y-152176247D01*
X125161904Y-152176247D02*
X125161904Y-151795295D01*
X125161904Y-151795295D02*
X125114285Y-151700057D01*
X125114285Y-151700057D02*
X125066666Y-151652438D01*
X125066666Y-151652438D02*
X124971428Y-151604819D01*
X124971428Y-151604819D02*
X124780952Y-151604819D01*
X124780952Y-151604819D02*
X124685714Y-151652438D01*
X124685714Y-151652438D02*
X124638095Y-151700057D01*
X124638095Y-151700057D02*
X124590476Y-151795295D01*
X124590476Y-151795295D02*
X124590476Y-152033390D01*
X124590476Y-152033390D02*
X124638095Y-152128628D01*
X124638095Y-152128628D02*
X124685714Y-152176247D01*
X124685714Y-152176247D02*
X124780952Y-152223866D01*
X124780952Y-152223866D02*
X124971428Y-152223866D01*
X124971428Y-152223866D02*
X125066666Y-152176247D01*
X125066666Y-152176247D02*
X125114285Y-152128628D01*
X125114285Y-152128628D02*
X125161904Y-152033390D01*
X130597142Y-151649580D02*
X130549523Y-151697200D01*
X130549523Y-151697200D02*
X130406666Y-151744819D01*
X130406666Y-151744819D02*
X130311428Y-151744819D01*
X130311428Y-151744819D02*
X130168571Y-151697200D01*
X130168571Y-151697200D02*
X130073333Y-151601961D01*
X130073333Y-151601961D02*
X130025714Y-151506723D01*
X130025714Y-151506723D02*
X129978095Y-151316247D01*
X129978095Y-151316247D02*
X129978095Y-151173390D01*
X129978095Y-151173390D02*
X130025714Y-150982914D01*
X130025714Y-150982914D02*
X130073333Y-150887676D01*
X130073333Y-150887676D02*
X130168571Y-150792438D01*
X130168571Y-150792438D02*
X130311428Y-150744819D01*
X130311428Y-150744819D02*
X130406666Y-150744819D01*
X130406666Y-150744819D02*
X130549523Y-150792438D01*
X130549523Y-150792438D02*
X130597142Y-150840057D01*
X130978095Y-150840057D02*
X131025714Y-150792438D01*
X131025714Y-150792438D02*
X131120952Y-150744819D01*
X131120952Y-150744819D02*
X131359047Y-150744819D01*
X131359047Y-150744819D02*
X131454285Y-150792438D01*
X131454285Y-150792438D02*
X131501904Y-150840057D01*
X131501904Y-150840057D02*
X131549523Y-150935295D01*
X131549523Y-150935295D02*
X131549523Y-151030533D01*
X131549523Y-151030533D02*
X131501904Y-151173390D01*
X131501904Y-151173390D02*
X130930476Y-151744819D01*
X130930476Y-151744819D02*
X131549523Y-151744819D01*
X132406666Y-150744819D02*
X132216190Y-150744819D01*
X132216190Y-150744819D02*
X132120952Y-150792438D01*
X132120952Y-150792438D02*
X132073333Y-150840057D01*
X132073333Y-150840057D02*
X131978095Y-150982914D01*
X131978095Y-150982914D02*
X131930476Y-151173390D01*
X131930476Y-151173390D02*
X131930476Y-151554342D01*
X131930476Y-151554342D02*
X131978095Y-151649580D01*
X131978095Y-151649580D02*
X132025714Y-151697200D01*
X132025714Y-151697200D02*
X132120952Y-151744819D01*
X132120952Y-151744819D02*
X132311428Y-151744819D01*
X132311428Y-151744819D02*
X132406666Y-151697200D01*
X132406666Y-151697200D02*
X132454285Y-151649580D01*
X132454285Y-151649580D02*
X132501904Y-151554342D01*
X132501904Y-151554342D02*
X132501904Y-151316247D01*
X132501904Y-151316247D02*
X132454285Y-151221009D01*
X132454285Y-151221009D02*
X132406666Y-151173390D01*
X132406666Y-151173390D02*
X132311428Y-151125771D01*
X132311428Y-151125771D02*
X132120952Y-151125771D01*
X132120952Y-151125771D02*
X132025714Y-151173390D01*
X132025714Y-151173390D02*
X131978095Y-151221009D01*
X131978095Y-151221009D02*
X131930476Y-151316247D01*
X115154819Y-136132857D02*
X114678628Y-136466190D01*
X115154819Y-136704285D02*
X114154819Y-136704285D01*
X114154819Y-136704285D02*
X114154819Y-136323333D01*
X114154819Y-136323333D02*
X114202438Y-136228095D01*
X114202438Y-136228095D02*
X114250057Y-136180476D01*
X114250057Y-136180476D02*
X114345295Y-136132857D01*
X114345295Y-136132857D02*
X114488152Y-136132857D01*
X114488152Y-136132857D02*
X114583390Y-136180476D01*
X114583390Y-136180476D02*
X114631009Y-136228095D01*
X114631009Y-136228095D02*
X114678628Y-136323333D01*
X114678628Y-136323333D02*
X114678628Y-136704285D01*
X115154819Y-135180476D02*
X115154819Y-135751904D01*
X115154819Y-135466190D02*
X114154819Y-135466190D01*
X114154819Y-135466190D02*
X114297676Y-135561428D01*
X114297676Y-135561428D02*
X114392914Y-135656666D01*
X114392914Y-135656666D02*
X114440533Y-135751904D01*
X115154819Y-134704285D02*
X115154819Y-134513809D01*
X115154819Y-134513809D02*
X115107200Y-134418571D01*
X115107200Y-134418571D02*
X115059580Y-134370952D01*
X115059580Y-134370952D02*
X114916723Y-134275714D01*
X114916723Y-134275714D02*
X114726247Y-134228095D01*
X114726247Y-134228095D02*
X114345295Y-134228095D01*
X114345295Y-134228095D02*
X114250057Y-134275714D01*
X114250057Y-134275714D02*
X114202438Y-134323333D01*
X114202438Y-134323333D02*
X114154819Y-134418571D01*
X114154819Y-134418571D02*
X114154819Y-134609047D01*
X114154819Y-134609047D02*
X114202438Y-134704285D01*
X114202438Y-134704285D02*
X114250057Y-134751904D01*
X114250057Y-134751904D02*
X114345295Y-134799523D01*
X114345295Y-134799523D02*
X114583390Y-134799523D01*
X114583390Y-134799523D02*
X114678628Y-134751904D01*
X114678628Y-134751904D02*
X114726247Y-134704285D01*
X114726247Y-134704285D02*
X114773866Y-134609047D01*
X114773866Y-134609047D02*
X114773866Y-134418571D01*
X114773866Y-134418571D02*
X114726247Y-134323333D01*
X114726247Y-134323333D02*
X114678628Y-134275714D01*
X114678628Y-134275714D02*
X114583390Y-134228095D01*
X114289580Y-152465357D02*
X114337200Y-152512976D01*
X114337200Y-152512976D02*
X114384819Y-152655833D01*
X114384819Y-152655833D02*
X114384819Y-152751071D01*
X114384819Y-152751071D02*
X114337200Y-152893928D01*
X114337200Y-152893928D02*
X114241961Y-152989166D01*
X114241961Y-152989166D02*
X114146723Y-153036785D01*
X114146723Y-153036785D02*
X113956247Y-153084404D01*
X113956247Y-153084404D02*
X113813390Y-153084404D01*
X113813390Y-153084404D02*
X113622914Y-153036785D01*
X113622914Y-153036785D02*
X113527676Y-152989166D01*
X113527676Y-152989166D02*
X113432438Y-152893928D01*
X113432438Y-152893928D02*
X113384819Y-152751071D01*
X113384819Y-152751071D02*
X113384819Y-152655833D01*
X113384819Y-152655833D02*
X113432438Y-152512976D01*
X113432438Y-152512976D02*
X113480057Y-152465357D01*
X113480057Y-152084404D02*
X113432438Y-152036785D01*
X113432438Y-152036785D02*
X113384819Y-151941547D01*
X113384819Y-151941547D02*
X113384819Y-151703452D01*
X113384819Y-151703452D02*
X113432438Y-151608214D01*
X113432438Y-151608214D02*
X113480057Y-151560595D01*
X113480057Y-151560595D02*
X113575295Y-151512976D01*
X113575295Y-151512976D02*
X113670533Y-151512976D01*
X113670533Y-151512976D02*
X113813390Y-151560595D01*
X113813390Y-151560595D02*
X114384819Y-152132023D01*
X114384819Y-152132023D02*
X114384819Y-151512976D01*
X113718152Y-150655833D02*
X114384819Y-150655833D01*
X113337200Y-150893928D02*
X114051485Y-151132023D01*
X114051485Y-151132023D02*
X114051485Y-150512976D01*
X114371580Y-147378857D02*
X114419200Y-147426476D01*
X114419200Y-147426476D02*
X114466819Y-147569333D01*
X114466819Y-147569333D02*
X114466819Y-147664571D01*
X114466819Y-147664571D02*
X114419200Y-147807428D01*
X114419200Y-147807428D02*
X114323961Y-147902666D01*
X114323961Y-147902666D02*
X114228723Y-147950285D01*
X114228723Y-147950285D02*
X114038247Y-147997904D01*
X114038247Y-147997904D02*
X113895390Y-147997904D01*
X113895390Y-147997904D02*
X113704914Y-147950285D01*
X113704914Y-147950285D02*
X113609676Y-147902666D01*
X113609676Y-147902666D02*
X113514438Y-147807428D01*
X113514438Y-147807428D02*
X113466819Y-147664571D01*
X113466819Y-147664571D02*
X113466819Y-147569333D01*
X113466819Y-147569333D02*
X113514438Y-147426476D01*
X113514438Y-147426476D02*
X113562057Y-147378857D01*
X114466819Y-146426476D02*
X114466819Y-146997904D01*
X114466819Y-146712190D02*
X113466819Y-146712190D01*
X113466819Y-146712190D02*
X113609676Y-146807428D01*
X113609676Y-146807428D02*
X113704914Y-146902666D01*
X113704914Y-146902666D02*
X113752533Y-146997904D01*
X113466819Y-145569333D02*
X113466819Y-145759809D01*
X113466819Y-145759809D02*
X113514438Y-145855047D01*
X113514438Y-145855047D02*
X113562057Y-145902666D01*
X113562057Y-145902666D02*
X113704914Y-145997904D01*
X113704914Y-145997904D02*
X113895390Y-146045523D01*
X113895390Y-146045523D02*
X114276342Y-146045523D01*
X114276342Y-146045523D02*
X114371580Y-145997904D01*
X114371580Y-145997904D02*
X114419200Y-145950285D01*
X114419200Y-145950285D02*
X114466819Y-145855047D01*
X114466819Y-145855047D02*
X114466819Y-145664571D01*
X114466819Y-145664571D02*
X114419200Y-145569333D01*
X114419200Y-145569333D02*
X114371580Y-145521714D01*
X114371580Y-145521714D02*
X114276342Y-145474095D01*
X114276342Y-145474095D02*
X114038247Y-145474095D01*
X114038247Y-145474095D02*
X113943009Y-145521714D01*
X113943009Y-145521714D02*
X113895390Y-145569333D01*
X113895390Y-145569333D02*
X113847771Y-145664571D01*
X113847771Y-145664571D02*
X113847771Y-145855047D01*
X113847771Y-145855047D02*
X113895390Y-145950285D01*
X113895390Y-145950285D02*
X113943009Y-145997904D01*
X113943009Y-145997904D02*
X114038247Y-146045523D01*
X126948095Y-131804819D02*
X126948095Y-132614342D01*
X126948095Y-132614342D02*
X126995714Y-132709580D01*
X126995714Y-132709580D02*
X127043333Y-132757200D01*
X127043333Y-132757200D02*
X127138571Y-132804819D01*
X127138571Y-132804819D02*
X127329047Y-132804819D01*
X127329047Y-132804819D02*
X127424285Y-132757200D01*
X127424285Y-132757200D02*
X127471904Y-132709580D01*
X127471904Y-132709580D02*
X127519523Y-132614342D01*
X127519523Y-132614342D02*
X127519523Y-131804819D01*
X128043333Y-132804819D02*
X128233809Y-132804819D01*
X128233809Y-132804819D02*
X128329047Y-132757200D01*
X128329047Y-132757200D02*
X128376666Y-132709580D01*
X128376666Y-132709580D02*
X128471904Y-132566723D01*
X128471904Y-132566723D02*
X128519523Y-132376247D01*
X128519523Y-132376247D02*
X128519523Y-131995295D01*
X128519523Y-131995295D02*
X128471904Y-131900057D01*
X128471904Y-131900057D02*
X128424285Y-131852438D01*
X128424285Y-131852438D02*
X128329047Y-131804819D01*
X128329047Y-131804819D02*
X128138571Y-131804819D01*
X128138571Y-131804819D02*
X128043333Y-131852438D01*
X128043333Y-131852438D02*
X127995714Y-131900057D01*
X127995714Y-131900057D02*
X127948095Y-131995295D01*
X127948095Y-131995295D02*
X127948095Y-132233390D01*
X127948095Y-132233390D02*
X127995714Y-132328628D01*
X127995714Y-132328628D02*
X128043333Y-132376247D01*
X128043333Y-132376247D02*
X128138571Y-132423866D01*
X128138571Y-132423866D02*
X128329047Y-132423866D01*
X128329047Y-132423866D02*
X128424285Y-132376247D01*
X128424285Y-132376247D02*
X128471904Y-132328628D01*
X128471904Y-132328628D02*
X128519523Y-132233390D01*
X121556094Y-127419104D02*
X122032284Y-127419104D01*
X121460856Y-127704819D02*
X121794189Y-126704819D01*
X121794189Y-126704819D02*
X122127522Y-127704819D01*
X122460856Y-127038152D02*
X122460856Y-127704819D01*
X122460856Y-127133390D02*
X122508475Y-127085771D01*
X122508475Y-127085771D02*
X122603713Y-127038152D01*
X122603713Y-127038152D02*
X122746570Y-127038152D01*
X122746570Y-127038152D02*
X122841808Y-127085771D01*
X122841808Y-127085771D02*
X122889427Y-127181009D01*
X122889427Y-127181009D02*
X122889427Y-127704819D01*
X123222761Y-127038152D02*
X123603713Y-127038152D01*
X123365618Y-126704819D02*
X123365618Y-127561961D01*
X123365618Y-127561961D02*
X123413237Y-127657200D01*
X123413237Y-127657200D02*
X123508475Y-127704819D01*
X123508475Y-127704819D02*
X123603713Y-127704819D01*
X124317999Y-127657200D02*
X124222761Y-127704819D01*
X124222761Y-127704819D02*
X124032285Y-127704819D01*
X124032285Y-127704819D02*
X123937047Y-127657200D01*
X123937047Y-127657200D02*
X123889428Y-127561961D01*
X123889428Y-127561961D02*
X123889428Y-127181009D01*
X123889428Y-127181009D02*
X123937047Y-127085771D01*
X123937047Y-127085771D02*
X124032285Y-127038152D01*
X124032285Y-127038152D02*
X124222761Y-127038152D01*
X124222761Y-127038152D02*
X124317999Y-127085771D01*
X124317999Y-127085771D02*
X124365618Y-127181009D01*
X124365618Y-127181009D02*
X124365618Y-127276247D01*
X124365618Y-127276247D02*
X123889428Y-127371485D01*
X124794190Y-127038152D02*
X124794190Y-127704819D01*
X124794190Y-127133390D02*
X124841809Y-127085771D01*
X124841809Y-127085771D02*
X124937047Y-127038152D01*
X124937047Y-127038152D02*
X125079904Y-127038152D01*
X125079904Y-127038152D02*
X125175142Y-127085771D01*
X125175142Y-127085771D02*
X125222761Y-127181009D01*
X125222761Y-127181009D02*
X125222761Y-127704819D01*
X125698952Y-127038152D02*
X125698952Y-127704819D01*
X125698952Y-127133390D02*
X125746571Y-127085771D01*
X125746571Y-127085771D02*
X125841809Y-127038152D01*
X125841809Y-127038152D02*
X125984666Y-127038152D01*
X125984666Y-127038152D02*
X126079904Y-127085771D01*
X126079904Y-127085771D02*
X126127523Y-127181009D01*
X126127523Y-127181009D02*
X126127523Y-127704819D01*
X127032285Y-127704819D02*
X127032285Y-127181009D01*
X127032285Y-127181009D02*
X126984666Y-127085771D01*
X126984666Y-127085771D02*
X126889428Y-127038152D01*
X126889428Y-127038152D02*
X126698952Y-127038152D01*
X126698952Y-127038152D02*
X126603714Y-127085771D01*
X127032285Y-127657200D02*
X126937047Y-127704819D01*
X126937047Y-127704819D02*
X126698952Y-127704819D01*
X126698952Y-127704819D02*
X126603714Y-127657200D01*
X126603714Y-127657200D02*
X126556095Y-127561961D01*
X126556095Y-127561961D02*
X126556095Y-127466723D01*
X126556095Y-127466723D02*
X126603714Y-127371485D01*
X126603714Y-127371485D02*
X126698952Y-127323866D01*
X126698952Y-127323866D02*
X126937047Y-127323866D01*
X126937047Y-127323866D02*
X127032285Y-127276247D01*
X128222762Y-127419104D02*
X128698952Y-127419104D01*
X128127524Y-127704819D02*
X128460857Y-126704819D01*
X128460857Y-126704819D02*
X128794190Y-127704819D01*
X129127524Y-127704819D02*
X129127524Y-127038152D01*
X129127524Y-127228628D02*
X129175143Y-127133390D01*
X129175143Y-127133390D02*
X129222762Y-127085771D01*
X129222762Y-127085771D02*
X129318000Y-127038152D01*
X129318000Y-127038152D02*
X129413238Y-127038152D01*
X130127524Y-127657200D02*
X130032286Y-127704819D01*
X130032286Y-127704819D02*
X129841810Y-127704819D01*
X129841810Y-127704819D02*
X129746572Y-127657200D01*
X129746572Y-127657200D02*
X129698953Y-127561961D01*
X129698953Y-127561961D02*
X129698953Y-127181009D01*
X129698953Y-127181009D02*
X129746572Y-127085771D01*
X129746572Y-127085771D02*
X129841810Y-127038152D01*
X129841810Y-127038152D02*
X130032286Y-127038152D01*
X130032286Y-127038152D02*
X130127524Y-127085771D01*
X130127524Y-127085771D02*
X130175143Y-127181009D01*
X130175143Y-127181009D02*
X130175143Y-127276247D01*
X130175143Y-127276247D02*
X129698953Y-127371485D01*
X131032286Y-127704819D02*
X131032286Y-127181009D01*
X131032286Y-127181009D02*
X130984667Y-127085771D01*
X130984667Y-127085771D02*
X130889429Y-127038152D01*
X130889429Y-127038152D02*
X130698953Y-127038152D01*
X130698953Y-127038152D02*
X130603715Y-127085771D01*
X131032286Y-127657200D02*
X130937048Y-127704819D01*
X130937048Y-127704819D02*
X130698953Y-127704819D01*
X130698953Y-127704819D02*
X130603715Y-127657200D01*
X130603715Y-127657200D02*
X130556096Y-127561961D01*
X130556096Y-127561961D02*
X130556096Y-127466723D01*
X130556096Y-127466723D02*
X130603715Y-127371485D01*
X130603715Y-127371485D02*
X130698953Y-127323866D01*
X130698953Y-127323866D02*
X130937048Y-127323866D01*
X130937048Y-127323866D02*
X131032286Y-127276247D01*
X114367142Y-144219580D02*
X114319523Y-144267200D01*
X114319523Y-144267200D02*
X114176666Y-144314819D01*
X114176666Y-144314819D02*
X114081428Y-144314819D01*
X114081428Y-144314819D02*
X113938571Y-144267200D01*
X113938571Y-144267200D02*
X113843333Y-144171961D01*
X113843333Y-144171961D02*
X113795714Y-144076723D01*
X113795714Y-144076723D02*
X113748095Y-143886247D01*
X113748095Y-143886247D02*
X113748095Y-143743390D01*
X113748095Y-143743390D02*
X113795714Y-143552914D01*
X113795714Y-143552914D02*
X113843333Y-143457676D01*
X113843333Y-143457676D02*
X113938571Y-143362438D01*
X113938571Y-143362438D02*
X114081428Y-143314819D01*
X114081428Y-143314819D02*
X114176666Y-143314819D01*
X114176666Y-143314819D02*
X114319523Y-143362438D01*
X114319523Y-143362438D02*
X114367142Y-143410057D01*
X115319523Y-144314819D02*
X114748095Y-144314819D01*
X115033809Y-144314819D02*
X115033809Y-143314819D01*
X115033809Y-143314819D02*
X114938571Y-143457676D01*
X114938571Y-143457676D02*
X114843333Y-143552914D01*
X114843333Y-143552914D02*
X114748095Y-143600533D01*
X116176666Y-143648152D02*
X116176666Y-144314819D01*
X115938571Y-143267200D02*
X115700476Y-143981485D01*
X115700476Y-143981485D02*
X116319523Y-143981485D01*
X138803200Y-133377332D02*
X138850819Y-133234475D01*
X138850819Y-133234475D02*
X138850819Y-132996380D01*
X138850819Y-132996380D02*
X138803200Y-132901142D01*
X138803200Y-132901142D02*
X138755580Y-132853523D01*
X138755580Y-132853523D02*
X138660342Y-132805904D01*
X138660342Y-132805904D02*
X138565104Y-132805904D01*
X138565104Y-132805904D02*
X138469866Y-132853523D01*
X138469866Y-132853523D02*
X138422247Y-132901142D01*
X138422247Y-132901142D02*
X138374628Y-132996380D01*
X138374628Y-132996380D02*
X138327009Y-133186856D01*
X138327009Y-133186856D02*
X138279390Y-133282094D01*
X138279390Y-133282094D02*
X138231771Y-133329713D01*
X138231771Y-133329713D02*
X138136533Y-133377332D01*
X138136533Y-133377332D02*
X138041295Y-133377332D01*
X138041295Y-133377332D02*
X137946057Y-133329713D01*
X137946057Y-133329713D02*
X137898438Y-133282094D01*
X137898438Y-133282094D02*
X137850819Y-133186856D01*
X137850819Y-133186856D02*
X137850819Y-132948761D01*
X137850819Y-132948761D02*
X137898438Y-132805904D01*
X137850819Y-132472570D02*
X138850819Y-132234475D01*
X138850819Y-132234475D02*
X138136533Y-132043999D01*
X138136533Y-132043999D02*
X138850819Y-131853523D01*
X138850819Y-131853523D02*
X137850819Y-131615428D01*
X137850819Y-131329713D02*
X137850819Y-130710666D01*
X137850819Y-130710666D02*
X138231771Y-131043999D01*
X138231771Y-131043999D02*
X138231771Y-130901142D01*
X138231771Y-130901142D02*
X138279390Y-130805904D01*
X138279390Y-130805904D02*
X138327009Y-130758285D01*
X138327009Y-130758285D02*
X138422247Y-130710666D01*
X138422247Y-130710666D02*
X138660342Y-130710666D01*
X138660342Y-130710666D02*
X138755580Y-130758285D01*
X138755580Y-130758285D02*
X138803200Y-130805904D01*
X138803200Y-130805904D02*
X138850819Y-130901142D01*
X138850819Y-130901142D02*
X138850819Y-131186856D01*
X138850819Y-131186856D02*
X138803200Y-131282094D01*
X138803200Y-131282094D02*
X138755580Y-131329713D01*
X111134819Y-141452857D02*
X110658628Y-141786190D01*
X111134819Y-142024285D02*
X110134819Y-142024285D01*
X110134819Y-142024285D02*
X110134819Y-141643333D01*
X110134819Y-141643333D02*
X110182438Y-141548095D01*
X110182438Y-141548095D02*
X110230057Y-141500476D01*
X110230057Y-141500476D02*
X110325295Y-141452857D01*
X110325295Y-141452857D02*
X110468152Y-141452857D01*
X110468152Y-141452857D02*
X110563390Y-141500476D01*
X110563390Y-141500476D02*
X110611009Y-141548095D01*
X110611009Y-141548095D02*
X110658628Y-141643333D01*
X110658628Y-141643333D02*
X110658628Y-142024285D01*
X110230057Y-141071904D02*
X110182438Y-141024285D01*
X110182438Y-141024285D02*
X110134819Y-140929047D01*
X110134819Y-140929047D02*
X110134819Y-140690952D01*
X110134819Y-140690952D02*
X110182438Y-140595714D01*
X110182438Y-140595714D02*
X110230057Y-140548095D01*
X110230057Y-140548095D02*
X110325295Y-140500476D01*
X110325295Y-140500476D02*
X110420533Y-140500476D01*
X110420533Y-140500476D02*
X110563390Y-140548095D01*
X110563390Y-140548095D02*
X111134819Y-141119523D01*
X111134819Y-141119523D02*
X111134819Y-140500476D01*
X110134819Y-139881428D02*
X110134819Y-139786190D01*
X110134819Y-139786190D02*
X110182438Y-139690952D01*
X110182438Y-139690952D02*
X110230057Y-139643333D01*
X110230057Y-139643333D02*
X110325295Y-139595714D01*
X110325295Y-139595714D02*
X110515771Y-139548095D01*
X110515771Y-139548095D02*
X110753866Y-139548095D01*
X110753866Y-139548095D02*
X110944342Y-139595714D01*
X110944342Y-139595714D02*
X111039580Y-139643333D01*
X111039580Y-139643333D02*
X111087200Y-139690952D01*
X111087200Y-139690952D02*
X111134819Y-139786190D01*
X111134819Y-139786190D02*
X111134819Y-139881428D01*
X111134819Y-139881428D02*
X111087200Y-139976666D01*
X111087200Y-139976666D02*
X111039580Y-140024285D01*
X111039580Y-140024285D02*
X110944342Y-140071904D01*
X110944342Y-140071904D02*
X110753866Y-140119523D01*
X110753866Y-140119523D02*
X110515771Y-140119523D01*
X110515771Y-140119523D02*
X110325295Y-140071904D01*
X110325295Y-140071904D02*
X110230057Y-140024285D01*
X110230057Y-140024285D02*
X110182438Y-139976666D01*
X110182438Y-139976666D02*
X110134819Y-139881428D01*
D12*
%TO.C,J2*%
X118391000Y-154892000D02*
X118591000Y-155292000D01*
X118591000Y-155292000D02*
X118791000Y-154892000D01*
X118791000Y-154892000D02*
X118391000Y-154892000D01*
%TO.C,R17*%
X136647500Y-154244724D02*
X136647500Y-153735276D01*
X137692500Y-154244724D02*
X137692500Y-153735276D01*
%TO.C,C17*%
X133060000Y-153193733D02*
X133060000Y-153486267D01*
X134080000Y-153193733D02*
X134080000Y-153486267D01*
%TO.C,C20*%
X115060000Y-151993733D02*
X115060000Y-152286267D01*
X116080000Y-151993733D02*
X116080000Y-152286267D01*
D13*
%TO.C,SW5*%
X139352000Y-157129000D02*
X139352000Y-152429000D01*
D14*
X140102000Y-150879000D02*
X140102000Y-150879000D01*
X140302000Y-150879000D02*
X140302000Y-150879000D01*
D13*
X142852000Y-157129000D02*
X142852000Y-152429000D01*
D14*
X140102000Y-150879000D02*
G75*
G02*
X140302000Y-150879000I100000J0D01*
G01*
X140302000Y-150879000D02*
G75*
G02*
X140102000Y-150879000I-100000J0D01*
G01*
D15*
%TO.C,U6*%
X130412100Y-154620700D02*
X130412100Y-156119300D01*
X132367900Y-156119300D02*
X132367900Y-154620700D01*
X131991726Y-153561774D02*
G75*
G02*
X131788526Y-153561774I-101600J0D01*
G01*
X131788526Y-153561774D02*
G75*
G02*
X131991726Y-153561774I101600J0D01*
G01*
D12*
%TO.C,R27*%
X133047500Y-156625276D02*
X133047500Y-157134724D01*
X134092500Y-156625276D02*
X134092500Y-157134724D01*
%TO.C,R23*%
X138244776Y-147737500D02*
X138754224Y-147737500D01*
X138244776Y-148782500D02*
X138754224Y-148782500D01*
%TO.C,SW2*%
X107840000Y-133710000D02*
X111140000Y-133710000D01*
X107840000Y-134010000D02*
X107840000Y-133710000D01*
X107840000Y-136210000D02*
X107840000Y-136510000D01*
X107840000Y-136510000D02*
X111140000Y-136510000D01*
X111140000Y-133710000D02*
X111140000Y-134010000D01*
X111140000Y-136510000D02*
X111140000Y-136210000D01*
%TO.C,R28*%
X128417500Y-155715276D02*
X128417500Y-156224724D01*
X129462500Y-155715276D02*
X129462500Y-156224724D01*
%TO.C,C10*%
X115270000Y-132526267D02*
X115270000Y-132233733D01*
X116290000Y-132526267D02*
X116290000Y-132233733D01*
%TO.C,C13*%
X115430000Y-139680335D02*
X115430000Y-139448665D01*
X116150000Y-139680335D02*
X116150000Y-139448665D01*
%TO.C,C11*%
X111861252Y-130490000D02*
X110438748Y-130490000D01*
X111861252Y-133210000D02*
X110438748Y-133210000D01*
%TO.C,SW1*%
X138200000Y-143000000D02*
X138500000Y-143000000D01*
X138200000Y-146300000D02*
X138200000Y-143000000D01*
X138500000Y-146300000D02*
X138200000Y-146300000D01*
X140700000Y-146300000D02*
X141000000Y-146300000D01*
X141000000Y-143000000D02*
X140700000Y-143000000D01*
X141000000Y-146300000D02*
X141000000Y-143000000D01*
%TO.C,Y1*%
X113280000Y-141560000D02*
X113280000Y-140480000D01*
X115030000Y-141570000D02*
X115030000Y-140430000D01*
%TO.C,C19*%
X126387349Y-151393534D02*
X126223534Y-151557349D01*
X126896466Y-151902651D02*
X126732651Y-152066466D01*
%TO.C,C26*%
X128654165Y-151020000D02*
X128885835Y-151020000D01*
X128654165Y-151740000D02*
X128885835Y-151740000D01*
%TO.C,R19*%
X112767500Y-134875276D02*
X112767500Y-135384724D01*
X113812500Y-134875276D02*
X113812500Y-135384724D01*
%TO.C,C24*%
X116680000Y-153456267D02*
X116680000Y-153163733D01*
X117700000Y-153456267D02*
X117700000Y-153163733D01*
%TO.C,C16*%
X115280000Y-146589733D02*
X115280000Y-146882267D01*
X116300000Y-146589733D02*
X116300000Y-146882267D01*
%TO.C,U9*%
X117318000Y-124250000D02*
X117318000Y-131000000D01*
X117318000Y-124250000D02*
X135318000Y-124250000D01*
X117318000Y-149000000D02*
X117318000Y-149750000D01*
X117318000Y-149750000D02*
X118318000Y-149750000D01*
X135318000Y-124250000D02*
X135318000Y-131000000D01*
X135318000Y-130190000D02*
X117318000Y-130190000D01*
X135318000Y-149000000D02*
X135318000Y-149750000D01*
X135318000Y-149750000D02*
X134318000Y-149750000D01*
%TO.C,C14*%
X115430000Y-141794165D02*
X115430000Y-142025835D01*
X116150000Y-141794165D02*
X116150000Y-142025835D01*
%TO.C,SW3*%
X136270000Y-125784000D02*
X136270000Y-126634000D01*
X136310000Y-136744000D02*
X136310000Y-127344000D01*
X136310000Y-137424000D02*
X136310000Y-138274000D01*
X136310000Y-138274000D02*
X136810000Y-138274000D01*
X136970000Y-125784000D02*
X136270000Y-125784000D01*
X141620000Y-138394000D02*
X141620000Y-125694000D01*
%TO.C,R20*%
X111707500Y-140625276D02*
X111707500Y-141134724D01*
X112752500Y-140625276D02*
X112752500Y-141134724D01*
%TD*%
%LPC*%
G36*
X133873323Y-157262637D02*
G01*
X133878033Y-157264716D01*
X133880694Y-157265067D01*
X133913978Y-157280587D01*
X133969977Y-157305313D01*
X134044687Y-157380023D01*
X134069416Y-157436031D01*
X134084932Y-157469304D01*
X134085282Y-157471964D01*
X134087363Y-157476677D01*
X134095000Y-157542500D01*
X134095000Y-158042500D01*
X134087363Y-158108323D01*
X134085281Y-158113036D01*
X134084932Y-158115694D01*
X134069430Y-158148937D01*
X134044687Y-158204977D01*
X133969977Y-158279687D01*
X133913949Y-158304424D01*
X133880695Y-158319932D01*
X133878036Y-158320282D01*
X133873323Y-158322363D01*
X133807500Y-158330000D01*
X133332500Y-158330000D01*
X133266677Y-158322363D01*
X133261964Y-158320282D01*
X133259305Y-158319932D01*
X133226043Y-158304421D01*
X133170023Y-158279687D01*
X133095313Y-158204977D01*
X133070592Y-158148990D01*
X133055067Y-158115695D01*
X133054716Y-158113032D01*
X133052637Y-158108323D01*
X133045000Y-158042500D01*
X133045000Y-157542500D01*
X133052637Y-157476677D01*
X133054716Y-157471967D01*
X133055067Y-157469305D01*
X133070595Y-157436002D01*
X133095313Y-157380023D01*
X133170023Y-157305313D01*
X133225990Y-157280601D01*
X133259304Y-157265067D01*
X133261967Y-157264716D01*
X133266677Y-157262637D01*
X133332500Y-157255000D01*
X133807500Y-157255000D01*
X133873323Y-157262637D01*
G37*
G36*
X140771134Y-156582806D02*
G01*
X140787355Y-156593645D01*
X140798194Y-156609866D01*
X140802000Y-156629000D01*
X140802000Y-158179000D01*
X140798194Y-158198134D01*
X140787355Y-158214355D01*
X140771134Y-158225194D01*
X140752000Y-158229000D01*
X139752000Y-158229000D01*
X139732866Y-158225194D01*
X139716645Y-158214355D01*
X139705806Y-158198134D01*
X139702000Y-158179000D01*
X139702000Y-156629000D01*
X139705806Y-156609866D01*
X139716645Y-156593645D01*
X139732866Y-156582806D01*
X139752000Y-156579000D01*
X140752000Y-156579000D01*
X140771134Y-156582806D01*
G37*
G36*
X142471134Y-156582806D02*
G01*
X142487355Y-156593645D01*
X142498194Y-156609866D01*
X142502000Y-156629000D01*
X142502000Y-158179000D01*
X142498194Y-158198134D01*
X142487355Y-158214355D01*
X142471134Y-158225194D01*
X142452000Y-158229000D01*
X141452000Y-158229000D01*
X141432866Y-158225194D01*
X141416645Y-158214355D01*
X141405806Y-158198134D01*
X141402000Y-158179000D01*
X141402000Y-156629000D01*
X141405806Y-156609866D01*
X141416645Y-156593645D01*
X141432866Y-156582806D01*
X141452000Y-156579000D01*
X142452000Y-156579000D01*
X142471134Y-156582806D01*
G37*
G36*
X129243323Y-156352637D02*
G01*
X129248033Y-156354716D01*
X129250694Y-156355067D01*
X129283978Y-156370587D01*
X129339977Y-156395313D01*
X129414687Y-156470023D01*
X129439416Y-156526031D01*
X129454932Y-156559304D01*
X129455282Y-156561964D01*
X129457363Y-156566677D01*
X129465000Y-156632500D01*
X129465000Y-157132500D01*
X129457363Y-157198323D01*
X129455281Y-157203036D01*
X129454932Y-157205694D01*
X129439430Y-157238937D01*
X129414687Y-157294977D01*
X129339977Y-157369687D01*
X129283949Y-157394424D01*
X129250695Y-157409932D01*
X129248036Y-157410282D01*
X129243323Y-157412363D01*
X129177500Y-157420000D01*
X128702500Y-157420000D01*
X128636677Y-157412363D01*
X128631964Y-157410282D01*
X128629305Y-157409932D01*
X128596043Y-157394421D01*
X128540023Y-157369687D01*
X128465313Y-157294977D01*
X128440592Y-157238990D01*
X128425067Y-157205695D01*
X128424716Y-157203032D01*
X128422637Y-157198323D01*
X128415000Y-157132500D01*
X128415000Y-156632500D01*
X128422637Y-156566677D01*
X128424716Y-156561967D01*
X128425067Y-156559305D01*
X128440595Y-156526002D01*
X128465313Y-156470023D01*
X128540023Y-156395313D01*
X128595990Y-156370601D01*
X128629304Y-156355067D01*
X128631967Y-156354716D01*
X128636677Y-156352637D01*
X128702500Y-156345000D01*
X129177500Y-156345000D01*
X129243323Y-156352637D01*
G37*
G36*
X117210134Y-156095806D02*
G01*
X117226355Y-156106645D01*
X117237194Y-156122866D01*
X117241000Y-156142000D01*
X117241000Y-157142000D01*
X117237194Y-157161134D01*
X117226355Y-157177355D01*
X117210134Y-157188194D01*
X117191000Y-157192000D01*
X115691000Y-157192000D01*
X115671866Y-157188194D01*
X115655645Y-157177355D01*
X115644806Y-157161134D01*
X115641000Y-157142000D01*
X115641000Y-156142000D01*
X115644806Y-156122866D01*
X115655645Y-156106645D01*
X115671866Y-156095806D01*
X115691000Y-156092000D01*
X117191000Y-156092000D01*
X117210134Y-156095806D01*
G37*
G36*
X127660134Y-156095806D02*
G01*
X127676355Y-156106645D01*
X127687194Y-156122866D01*
X127691000Y-156142000D01*
X127691000Y-157142000D01*
X127687194Y-157161134D01*
X127676355Y-157177355D01*
X127660134Y-157188194D01*
X127641000Y-157192000D01*
X126141000Y-157192000D01*
X126121866Y-157188194D01*
X126105645Y-157177355D01*
X126094806Y-157161134D01*
X126091000Y-157142000D01*
X126091000Y-156142000D01*
X126094806Y-156122866D01*
X126105645Y-156106645D01*
X126121866Y-156095806D01*
X126141000Y-156092000D01*
X127641000Y-156092000D01*
X127660134Y-156095806D01*
G37*
G36*
X131036008Y-155666706D02*
G01*
X131052229Y-155677545D01*
X131063068Y-155693766D01*
X131066874Y-155712900D01*
X131066874Y-156627300D01*
X131063068Y-156646434D01*
X131052229Y-156662655D01*
X131036008Y-156673494D01*
X131016874Y-156677300D01*
X130762874Y-156677300D01*
X130743740Y-156673494D01*
X130727519Y-156662655D01*
X130716680Y-156646434D01*
X130712874Y-156627300D01*
X130712874Y-155712900D01*
X130716680Y-155693766D01*
X130727519Y-155677545D01*
X130743740Y-155666706D01*
X130762874Y-155662900D01*
X131016874Y-155662900D01*
X131036008Y-155666706D01*
G37*
G36*
X131536134Y-155666706D02*
G01*
X131552355Y-155677545D01*
X131563194Y-155693766D01*
X131567000Y-155712900D01*
X131567000Y-156627300D01*
X131563194Y-156646434D01*
X131552355Y-156662655D01*
X131536134Y-156673494D01*
X131517000Y-156677300D01*
X131263000Y-156677300D01*
X131243866Y-156673494D01*
X131227645Y-156662655D01*
X131216806Y-156646434D01*
X131213000Y-156627300D01*
X131213000Y-155712900D01*
X131216806Y-155693766D01*
X131227645Y-155677545D01*
X131243866Y-155666706D01*
X131263000Y-155662900D01*
X131517000Y-155662900D01*
X131536134Y-155666706D01*
G37*
G36*
X132036260Y-155666706D02*
G01*
X132052481Y-155677545D01*
X132063320Y-155693766D01*
X132067126Y-155712900D01*
X132067126Y-156627300D01*
X132063320Y-156646434D01*
X132052481Y-156662655D01*
X132036260Y-156673494D01*
X132017126Y-156677300D01*
X131763126Y-156677300D01*
X131743992Y-156673494D01*
X131727771Y-156662655D01*
X131716932Y-156646434D01*
X131713126Y-156627300D01*
X131713126Y-155712900D01*
X131716932Y-155693766D01*
X131727771Y-155677545D01*
X131743992Y-155666706D01*
X131763126Y-155662900D01*
X132017126Y-155662900D01*
X132036260Y-155666706D01*
G37*
G36*
X133873323Y-155437637D02*
G01*
X133878033Y-155439716D01*
X133880694Y-155440067D01*
X133913978Y-155455587D01*
X133969977Y-155480313D01*
X134044687Y-155555023D01*
X134069416Y-155611031D01*
X134084932Y-155644304D01*
X134085282Y-155646964D01*
X134087363Y-155651677D01*
X134095000Y-155717500D01*
X134095000Y-156217500D01*
X134087363Y-156283323D01*
X134085281Y-156288036D01*
X134084932Y-156290694D01*
X134069430Y-156323937D01*
X134044687Y-156379977D01*
X133969977Y-156454687D01*
X133913949Y-156479424D01*
X133880695Y-156494932D01*
X133878036Y-156495282D01*
X133873323Y-156497363D01*
X133807500Y-156505000D01*
X133332500Y-156505000D01*
X133266677Y-156497363D01*
X133261964Y-156495282D01*
X133259305Y-156494932D01*
X133226043Y-156479421D01*
X133170023Y-156454687D01*
X133095313Y-156379977D01*
X133070592Y-156323990D01*
X133055067Y-156290695D01*
X133054716Y-156288032D01*
X133052637Y-156283323D01*
X133045000Y-156217500D01*
X133045000Y-155717500D01*
X133052637Y-155651677D01*
X133054716Y-155646967D01*
X133055067Y-155644305D01*
X133070595Y-155611002D01*
X133095313Y-155555023D01*
X133170023Y-155480313D01*
X133225990Y-155455601D01*
X133259304Y-155440067D01*
X133261967Y-155439716D01*
X133266677Y-155437637D01*
X133332500Y-155430000D01*
X133807500Y-155430000D01*
X133873323Y-155437637D01*
G37*
G36*
X107894228Y-154860448D02*
G01*
X108039117Y-154920463D01*
X108169515Y-155007592D01*
X108280408Y-155118485D01*
X108367537Y-155248883D01*
X108427552Y-155393772D01*
X108458148Y-155547586D01*
X108458148Y-155704414D01*
X108427552Y-155858228D01*
X108367537Y-156003117D01*
X108280408Y-156133515D01*
X108169515Y-156244408D01*
X108039117Y-156331537D01*
X107894228Y-156391552D01*
X107740414Y-156422148D01*
X107583586Y-156422148D01*
X107429772Y-156391552D01*
X107284883Y-156331537D01*
X107154485Y-156244408D01*
X107043592Y-156133515D01*
X106956463Y-156003117D01*
X106896448Y-155858228D01*
X106865852Y-155704414D01*
X106865852Y-155547586D01*
X106896448Y-155393772D01*
X106956463Y-155248883D01*
X107043592Y-155118485D01*
X107154485Y-155007592D01*
X107284883Y-154920463D01*
X107429772Y-154860448D01*
X107583586Y-154829852D01*
X107740414Y-154829852D01*
X107894228Y-154860448D01*
G37*
G36*
X129243323Y-154527637D02*
G01*
X129248033Y-154529716D01*
X129250694Y-154530067D01*
X129283978Y-154545587D01*
X129339977Y-154570313D01*
X129414687Y-154645023D01*
X129439416Y-154701031D01*
X129454932Y-154734304D01*
X129455282Y-154736964D01*
X129457363Y-154741677D01*
X129465000Y-154807500D01*
X129465000Y-155307500D01*
X129457363Y-155373323D01*
X129455281Y-155378036D01*
X129454932Y-155380694D01*
X129439430Y-155413937D01*
X129414687Y-155469977D01*
X129339977Y-155544687D01*
X129283949Y-155569424D01*
X129250695Y-155584932D01*
X129248036Y-155585282D01*
X129243323Y-155587363D01*
X129177500Y-155595000D01*
X128702500Y-155595000D01*
X128636677Y-155587363D01*
X128631964Y-155585282D01*
X128629305Y-155584932D01*
X128596043Y-155569421D01*
X128540023Y-155544687D01*
X128465313Y-155469977D01*
X128440592Y-155413990D01*
X128425067Y-155380695D01*
X128424716Y-155378032D01*
X128422637Y-155373323D01*
X128415000Y-155307500D01*
X128415000Y-154807500D01*
X128422637Y-154741677D01*
X128424716Y-154736967D01*
X128425067Y-154734305D01*
X128440595Y-154701002D01*
X128465313Y-154645023D01*
X128540023Y-154570313D01*
X128595990Y-154545601D01*
X128629304Y-154530067D01*
X128631967Y-154529716D01*
X128636677Y-154527637D01*
X128702500Y-154520000D01*
X129177500Y-154520000D01*
X129243323Y-154527637D01*
G37*
G36*
X137473323Y-154372637D02*
G01*
X137478033Y-154374716D01*
X137480694Y-154375067D01*
X137513978Y-154390587D01*
X137569977Y-154415313D01*
X137644687Y-154490023D01*
X137669416Y-154546031D01*
X137684932Y-154579304D01*
X137685282Y-154581964D01*
X137687363Y-154586677D01*
X137695000Y-154652500D01*
X137695000Y-155152500D01*
X137687363Y-155218323D01*
X137685281Y-155223036D01*
X137684932Y-155225694D01*
X137669430Y-155258937D01*
X137644687Y-155314977D01*
X137569977Y-155389687D01*
X137513949Y-155414424D01*
X137480695Y-155429932D01*
X137478036Y-155430282D01*
X137473323Y-155432363D01*
X137407500Y-155440000D01*
X136932500Y-155440000D01*
X136866677Y-155432363D01*
X136861964Y-155430282D01*
X136859305Y-155429932D01*
X136826043Y-155414421D01*
X136770023Y-155389687D01*
X136695313Y-155314977D01*
X136670592Y-155258990D01*
X136655067Y-155225695D01*
X136654716Y-155223032D01*
X136652637Y-155218323D01*
X136645000Y-155152500D01*
X136645000Y-154652500D01*
X136652637Y-154586677D01*
X136654716Y-154581967D01*
X136655067Y-154579305D01*
X136670595Y-154546002D01*
X136695313Y-154490023D01*
X136770023Y-154415313D01*
X136825990Y-154390601D01*
X136859304Y-154375067D01*
X136861967Y-154374716D01*
X136866677Y-154372637D01*
X136932500Y-154365000D01*
X137407500Y-154365000D01*
X137473323Y-154372637D01*
G37*
G36*
X140414640Y-154386351D02*
G01*
X140510724Y-154441825D01*
X140589175Y-154520276D01*
X140644649Y-154616360D01*
X140673364Y-154723526D01*
X140673364Y-154834474D01*
X140644649Y-154941640D01*
X140589175Y-155037724D01*
X140510724Y-155116175D01*
X140414640Y-155171649D01*
X140307474Y-155200364D01*
X140196526Y-155200364D01*
X140089360Y-155171649D01*
X139993276Y-155116175D01*
X139914825Y-155037724D01*
X139859351Y-154941640D01*
X139830636Y-154834474D01*
X139830636Y-154723526D01*
X139859351Y-154616360D01*
X139914825Y-154520276D01*
X139993276Y-154441825D01*
X140089360Y-154386351D01*
X140196526Y-154357636D01*
X140307474Y-154357636D01*
X140414640Y-154386351D01*
G37*
G36*
X142114640Y-154386351D02*
G01*
X142210724Y-154441825D01*
X142289175Y-154520276D01*
X142344649Y-154616360D01*
X142373364Y-154723526D01*
X142373364Y-154834474D01*
X142344649Y-154941640D01*
X142289175Y-155037724D01*
X142210724Y-155116175D01*
X142114640Y-155171649D01*
X142007474Y-155200364D01*
X141896526Y-155200364D01*
X141789360Y-155171649D01*
X141693276Y-155116175D01*
X141614825Y-155037724D01*
X141559351Y-154941640D01*
X141530636Y-154834474D01*
X141530636Y-154723526D01*
X141559351Y-154616360D01*
X141614825Y-154520276D01*
X141693276Y-154441825D01*
X141789360Y-154386351D01*
X141896526Y-154357636D01*
X142007474Y-154357636D01*
X142114640Y-154386351D01*
G37*
G36*
X131036008Y-154066506D02*
G01*
X131052229Y-154077345D01*
X131063068Y-154093566D01*
X131066874Y-154112700D01*
X131066874Y-155027100D01*
X131063068Y-155046234D01*
X131052229Y-155062455D01*
X131036008Y-155073294D01*
X131016874Y-155077100D01*
X130762874Y-155077100D01*
X130743740Y-155073294D01*
X130727519Y-155062455D01*
X130716680Y-155046234D01*
X130712874Y-155027100D01*
X130712874Y-154112700D01*
X130716680Y-154093566D01*
X130727519Y-154077345D01*
X130743740Y-154066506D01*
X130762874Y-154062700D01*
X131016874Y-154062700D01*
X131036008Y-154066506D01*
G37*
G36*
X131536134Y-154066506D02*
G01*
X131552355Y-154077345D01*
X131563194Y-154093566D01*
X131567000Y-154112700D01*
X131567000Y-155027100D01*
X131563194Y-155046234D01*
X131552355Y-155062455D01*
X131536134Y-155073294D01*
X131517000Y-155077100D01*
X131263000Y-155077100D01*
X131243866Y-155073294D01*
X131227645Y-155062455D01*
X131216806Y-155046234D01*
X131213000Y-155027100D01*
X131213000Y-154112700D01*
X131216806Y-154093566D01*
X131227645Y-154077345D01*
X131243866Y-154066506D01*
X131263000Y-154062700D01*
X131517000Y-154062700D01*
X131536134Y-154066506D01*
G37*
G36*
X132036260Y-154066506D02*
G01*
X132052481Y-154077345D01*
X132063320Y-154093566D01*
X132067126Y-154112700D01*
X132067126Y-155027100D01*
X132063320Y-155046234D01*
X132052481Y-155062455D01*
X132036260Y-155073294D01*
X132017126Y-155077100D01*
X131763126Y-155077100D01*
X131743992Y-155073294D01*
X131727771Y-155062455D01*
X131716932Y-155046234D01*
X131713126Y-155027100D01*
X131713126Y-154112700D01*
X131716932Y-154093566D01*
X131727771Y-154077345D01*
X131743992Y-154066506D01*
X131763126Y-154062700D01*
X132017126Y-154062700D01*
X132036260Y-154066506D01*
G37*
G36*
X133873323Y-153622637D02*
G01*
X133878033Y-153624716D01*
X133880694Y-153625067D01*
X133913978Y-153640587D01*
X133969977Y-153665313D01*
X134044687Y-153740023D01*
X134069416Y-153796031D01*
X134084932Y-153829304D01*
X134085282Y-153831964D01*
X134087363Y-153836677D01*
X134095000Y-153902500D01*
X134095000Y-154502500D01*
X134087363Y-154568323D01*
X134085281Y-154573036D01*
X134084932Y-154575694D01*
X134069430Y-154608937D01*
X134044687Y-154664977D01*
X133969977Y-154739687D01*
X133913949Y-154764424D01*
X133880695Y-154779932D01*
X133878036Y-154780282D01*
X133873323Y-154782363D01*
X133807500Y-154790000D01*
X133332500Y-154790000D01*
X133266677Y-154782363D01*
X133261964Y-154780282D01*
X133259305Y-154779932D01*
X133226043Y-154764421D01*
X133170023Y-154739687D01*
X133095313Y-154664977D01*
X133070592Y-154608990D01*
X133055067Y-154575695D01*
X133054716Y-154573032D01*
X133052637Y-154568323D01*
X133045000Y-154502500D01*
X133045000Y-153902500D01*
X133052637Y-153836677D01*
X133054716Y-153831967D01*
X133055067Y-153829305D01*
X133070595Y-153796002D01*
X133095313Y-153740023D01*
X133170023Y-153665313D01*
X133225990Y-153640601D01*
X133259304Y-153625067D01*
X133261967Y-153624716D01*
X133266677Y-153622637D01*
X133332500Y-153615000D01*
X133807500Y-153615000D01*
X133873323Y-153622637D01*
G37*
G36*
X117493323Y-153592637D02*
G01*
X117498033Y-153594716D01*
X117500694Y-153595067D01*
X117533978Y-153610587D01*
X117589977Y-153635313D01*
X117664687Y-153710023D01*
X117689416Y-153766031D01*
X117704932Y-153799304D01*
X117705282Y-153801964D01*
X117707363Y-153806677D01*
X117715000Y-153872500D01*
X117715000Y-154472500D01*
X117707363Y-154538323D01*
X117705281Y-154543036D01*
X117704932Y-154545694D01*
X117689430Y-154578937D01*
X117664687Y-154634977D01*
X117589977Y-154709687D01*
X117533949Y-154734424D01*
X117500695Y-154749932D01*
X117498036Y-154750282D01*
X117493323Y-154752363D01*
X117427500Y-154760000D01*
X116952500Y-154760000D01*
X116886677Y-154752363D01*
X116881964Y-154750282D01*
X116879305Y-154749932D01*
X116846043Y-154734421D01*
X116790023Y-154709687D01*
X116715313Y-154634977D01*
X116690592Y-154578990D01*
X116675067Y-154545695D01*
X116674716Y-154543032D01*
X116672637Y-154538323D01*
X116665000Y-154472500D01*
X116665000Y-153872500D01*
X116672637Y-153806677D01*
X116674716Y-153801967D01*
X116675067Y-153799305D01*
X116690595Y-153766002D01*
X116715313Y-153710023D01*
X116790023Y-153635313D01*
X116845990Y-153610601D01*
X116879304Y-153595067D01*
X116881967Y-153594716D01*
X116886677Y-153592637D01*
X116952500Y-153585000D01*
X117427500Y-153585000D01*
X117493323Y-153592637D01*
G37*
G36*
X118580134Y-153495806D02*
G01*
X118596355Y-153506645D01*
X118607194Y-153522866D01*
X118611000Y-153542000D01*
X118611000Y-154642000D01*
X118607194Y-154661134D01*
X118596355Y-154677355D01*
X118580134Y-154688194D01*
X118561000Y-154692000D01*
X118261000Y-154692000D01*
X118241866Y-154688194D01*
X118225645Y-154677355D01*
X118214806Y-154661134D01*
X118211000Y-154642000D01*
X118211000Y-153542000D01*
X118214806Y-153522866D01*
X118225645Y-153506645D01*
X118241866Y-153495806D01*
X118261000Y-153492000D01*
X118561000Y-153492000D01*
X118580134Y-153495806D01*
G37*
G36*
X119080134Y-153495806D02*
G01*
X119096355Y-153506645D01*
X119107194Y-153522866D01*
X119111000Y-153542000D01*
X119111000Y-154642000D01*
X119107194Y-154661134D01*
X119096355Y-154677355D01*
X119080134Y-154688194D01*
X119061000Y-154692000D01*
X118761000Y-154692000D01*
X118741866Y-154688194D01*
X118725645Y-154677355D01*
X118714806Y-154661134D01*
X118711000Y-154642000D01*
X118711000Y-153542000D01*
X118714806Y-153522866D01*
X118725645Y-153506645D01*
X118741866Y-153495806D01*
X118761000Y-153492000D01*
X119061000Y-153492000D01*
X119080134Y-153495806D01*
G37*
G36*
X119580134Y-153495806D02*
G01*
X119596355Y-153506645D01*
X119607194Y-153522866D01*
X119611000Y-153542000D01*
X119611000Y-154642000D01*
X119607194Y-154661134D01*
X119596355Y-154677355D01*
X119580134Y-154688194D01*
X119561000Y-154692000D01*
X119261000Y-154692000D01*
X119241866Y-154688194D01*
X119225645Y-154677355D01*
X119214806Y-154661134D01*
X119211000Y-154642000D01*
X119211000Y-153542000D01*
X119214806Y-153522866D01*
X119225645Y-153506645D01*
X119241866Y-153495806D01*
X119261000Y-153492000D01*
X119561000Y-153492000D01*
X119580134Y-153495806D01*
G37*
G36*
X120080134Y-153495806D02*
G01*
X120096355Y-153506645D01*
X120107194Y-153522866D01*
X120111000Y-153542000D01*
X120111000Y-154642000D01*
X120107194Y-154661134D01*
X120096355Y-154677355D01*
X120080134Y-154688194D01*
X120061000Y-154692000D01*
X119761000Y-154692000D01*
X119741866Y-154688194D01*
X119725645Y-154677355D01*
X119714806Y-154661134D01*
X119711000Y-154642000D01*
X119711000Y-153542000D01*
X119714806Y-153522866D01*
X119725645Y-153506645D01*
X119741866Y-153495806D01*
X119761000Y-153492000D01*
X120061000Y-153492000D01*
X120080134Y-153495806D01*
G37*
G36*
X120580134Y-153495806D02*
G01*
X120596355Y-153506645D01*
X120607194Y-153522866D01*
X120611000Y-153542000D01*
X120611000Y-154642000D01*
X120607194Y-154661134D01*
X120596355Y-154677355D01*
X120580134Y-154688194D01*
X120561000Y-154692000D01*
X120261000Y-154692000D01*
X120241866Y-154688194D01*
X120225645Y-154677355D01*
X120214806Y-154661134D01*
X120211000Y-154642000D01*
X120211000Y-153542000D01*
X120214806Y-153522866D01*
X120225645Y-153506645D01*
X120241866Y-153495806D01*
X120261000Y-153492000D01*
X120561000Y-153492000D01*
X120580134Y-153495806D01*
G37*
G36*
X121080134Y-153495806D02*
G01*
X121096355Y-153506645D01*
X121107194Y-153522866D01*
X121111000Y-153542000D01*
X121111000Y-154642000D01*
X121107194Y-154661134D01*
X121096355Y-154677355D01*
X121080134Y-154688194D01*
X121061000Y-154692000D01*
X120761000Y-154692000D01*
X120741866Y-154688194D01*
X120725645Y-154677355D01*
X120714806Y-154661134D01*
X120711000Y-154642000D01*
X120711000Y-153542000D01*
X120714806Y-153522866D01*
X120725645Y-153506645D01*
X120741866Y-153495806D01*
X120761000Y-153492000D01*
X121061000Y-153492000D01*
X121080134Y-153495806D01*
G37*
G36*
X121580134Y-153495806D02*
G01*
X121596355Y-153506645D01*
X121607194Y-153522866D01*
X121611000Y-153542000D01*
X121611000Y-154642000D01*
X121607194Y-154661134D01*
X121596355Y-154677355D01*
X121580134Y-154688194D01*
X121561000Y-154692000D01*
X121261000Y-154692000D01*
X121241866Y-154688194D01*
X121225645Y-154677355D01*
X121214806Y-154661134D01*
X121211000Y-154642000D01*
X121211000Y-153542000D01*
X121214806Y-153522866D01*
X121225645Y-153506645D01*
X121241866Y-153495806D01*
X121261000Y-153492000D01*
X121561000Y-153492000D01*
X121580134Y-153495806D01*
G37*
G36*
X122080134Y-153495806D02*
G01*
X122096355Y-153506645D01*
X122107194Y-153522866D01*
X122111000Y-153542000D01*
X122111000Y-154642000D01*
X122107194Y-154661134D01*
X122096355Y-154677355D01*
X122080134Y-154688194D01*
X122061000Y-154692000D01*
X121761000Y-154692000D01*
X121741866Y-154688194D01*
X121725645Y-154677355D01*
X121714806Y-154661134D01*
X121711000Y-154642000D01*
X121711000Y-153542000D01*
X121714806Y-153522866D01*
X121725645Y-153506645D01*
X121741866Y-153495806D01*
X121761000Y-153492000D01*
X122061000Y-153492000D01*
X122080134Y-153495806D01*
G37*
G36*
X122580134Y-153495806D02*
G01*
X122596355Y-153506645D01*
X122607194Y-153522866D01*
X122611000Y-153542000D01*
X122611000Y-154642000D01*
X122607194Y-154661134D01*
X122596355Y-154677355D01*
X122580134Y-154688194D01*
X122561000Y-154692000D01*
X122261000Y-154692000D01*
X122241866Y-154688194D01*
X122225645Y-154677355D01*
X122214806Y-154661134D01*
X122211000Y-154642000D01*
X122211000Y-153542000D01*
X122214806Y-153522866D01*
X122225645Y-153506645D01*
X122241866Y-153495806D01*
X122261000Y-153492000D01*
X122561000Y-153492000D01*
X122580134Y-153495806D01*
G37*
G36*
X123080134Y-153495806D02*
G01*
X123096355Y-153506645D01*
X123107194Y-153522866D01*
X123111000Y-153542000D01*
X123111000Y-154642000D01*
X123107194Y-154661134D01*
X123096355Y-154677355D01*
X123080134Y-154688194D01*
X123061000Y-154692000D01*
X122761000Y-154692000D01*
X122741866Y-154688194D01*
X122725645Y-154677355D01*
X122714806Y-154661134D01*
X122711000Y-154642000D01*
X122711000Y-153542000D01*
X122714806Y-153522866D01*
X122725645Y-153506645D01*
X122741866Y-153495806D01*
X122761000Y-153492000D01*
X123061000Y-153492000D01*
X123080134Y-153495806D01*
G37*
G36*
X123580134Y-153495806D02*
G01*
X123596355Y-153506645D01*
X123607194Y-153522866D01*
X123611000Y-153542000D01*
X123611000Y-154642000D01*
X123607194Y-154661134D01*
X123596355Y-154677355D01*
X123580134Y-154688194D01*
X123561000Y-154692000D01*
X123261000Y-154692000D01*
X123241866Y-154688194D01*
X123225645Y-154677355D01*
X123214806Y-154661134D01*
X123211000Y-154642000D01*
X123211000Y-153542000D01*
X123214806Y-153522866D01*
X123225645Y-153506645D01*
X123241866Y-153495806D01*
X123261000Y-153492000D01*
X123561000Y-153492000D01*
X123580134Y-153495806D01*
G37*
G36*
X124080134Y-153495806D02*
G01*
X124096355Y-153506645D01*
X124107194Y-153522866D01*
X124111000Y-153542000D01*
X124111000Y-154642000D01*
X124107194Y-154661134D01*
X124096355Y-154677355D01*
X124080134Y-154688194D01*
X124061000Y-154692000D01*
X123761000Y-154692000D01*
X123741866Y-154688194D01*
X123725645Y-154677355D01*
X123714806Y-154661134D01*
X123711000Y-154642000D01*
X123711000Y-153542000D01*
X123714806Y-153522866D01*
X123725645Y-153506645D01*
X123741866Y-153495806D01*
X123761000Y-153492000D01*
X124061000Y-153492000D01*
X124080134Y-153495806D01*
G37*
G36*
X124580134Y-153495806D02*
G01*
X124596355Y-153506645D01*
X124607194Y-153522866D01*
X124611000Y-153542000D01*
X124611000Y-154642000D01*
X124607194Y-154661134D01*
X124596355Y-154677355D01*
X124580134Y-154688194D01*
X124561000Y-154692000D01*
X124261000Y-154692000D01*
X124241866Y-154688194D01*
X124225645Y-154677355D01*
X124214806Y-154661134D01*
X124211000Y-154642000D01*
X124211000Y-153542000D01*
X124214806Y-153522866D01*
X124225645Y-153506645D01*
X124241866Y-153495806D01*
X124261000Y-153492000D01*
X124561000Y-153492000D01*
X124580134Y-153495806D01*
G37*
G36*
X125080134Y-153495806D02*
G01*
X125096355Y-153506645D01*
X125107194Y-153522866D01*
X125111000Y-153542000D01*
X125111000Y-154642000D01*
X125107194Y-154661134D01*
X125096355Y-154677355D01*
X125080134Y-154688194D01*
X125061000Y-154692000D01*
X124761000Y-154692000D01*
X124741866Y-154688194D01*
X124725645Y-154677355D01*
X124714806Y-154661134D01*
X124711000Y-154642000D01*
X124711000Y-153542000D01*
X124714806Y-153522866D01*
X124725645Y-153506645D01*
X124741866Y-153495806D01*
X124761000Y-153492000D01*
X125061000Y-153492000D01*
X125080134Y-153495806D01*
G37*
G36*
X137473323Y-152547637D02*
G01*
X137478033Y-152549716D01*
X137480694Y-152550067D01*
X137513978Y-152565587D01*
X137569977Y-152590313D01*
X137644687Y-152665023D01*
X137669416Y-152721031D01*
X137684932Y-152754304D01*
X137685282Y-152756964D01*
X137687363Y-152761677D01*
X137695000Y-152827500D01*
X137695000Y-153327500D01*
X137687363Y-153393323D01*
X137685281Y-153398036D01*
X137684932Y-153400694D01*
X137669430Y-153433937D01*
X137644687Y-153489977D01*
X137569977Y-153564687D01*
X137513949Y-153589424D01*
X137480695Y-153604932D01*
X137478036Y-153605282D01*
X137473323Y-153607363D01*
X137407500Y-153615000D01*
X136932500Y-153615000D01*
X136866677Y-153607363D01*
X136861964Y-153605282D01*
X136859305Y-153604932D01*
X136826043Y-153589421D01*
X136770023Y-153564687D01*
X136695313Y-153489977D01*
X136670592Y-153433990D01*
X136655067Y-153400695D01*
X136654716Y-153398032D01*
X136652637Y-153393323D01*
X136645000Y-153327500D01*
X136645000Y-152827500D01*
X136652637Y-152761677D01*
X136654716Y-152756967D01*
X136655067Y-152754305D01*
X136670595Y-152721002D01*
X136695313Y-152665023D01*
X136770023Y-152590313D01*
X136825990Y-152565601D01*
X136859304Y-152550067D01*
X136861967Y-152549716D01*
X136866677Y-152547637D01*
X136932500Y-152540000D01*
X137407500Y-152540000D01*
X137473323Y-152547637D01*
G37*
G36*
X115873323Y-152422637D02*
G01*
X115878033Y-152424716D01*
X115880694Y-152425067D01*
X115913978Y-152440587D01*
X115969977Y-152465313D01*
X116044687Y-152540023D01*
X116069416Y-152596031D01*
X116084932Y-152629304D01*
X116085282Y-152631964D01*
X116087363Y-152636677D01*
X116095000Y-152702500D01*
X116095000Y-153302500D01*
X116087363Y-153368323D01*
X116085281Y-153373036D01*
X116084932Y-153375694D01*
X116069430Y-153408937D01*
X116044687Y-153464977D01*
X115969977Y-153539687D01*
X115913949Y-153564424D01*
X115880695Y-153579932D01*
X115878036Y-153580282D01*
X115873323Y-153582363D01*
X115807500Y-153590000D01*
X115332500Y-153590000D01*
X115266677Y-153582363D01*
X115261964Y-153580282D01*
X115259305Y-153579932D01*
X115226043Y-153564421D01*
X115170023Y-153539687D01*
X115095313Y-153464977D01*
X115070592Y-153408990D01*
X115055067Y-153375695D01*
X115054716Y-153373032D01*
X115052637Y-153368323D01*
X115045000Y-153302500D01*
X115045000Y-152702500D01*
X115052637Y-152636677D01*
X115054716Y-152631967D01*
X115055067Y-152629305D01*
X115070595Y-152596002D01*
X115095313Y-152540023D01*
X115170023Y-152465313D01*
X115225990Y-152440601D01*
X115259304Y-152425067D01*
X115261967Y-152424716D01*
X115266677Y-152422637D01*
X115332500Y-152415000D01*
X115807500Y-152415000D01*
X115873323Y-152422637D01*
G37*
G36*
X133873323Y-151897637D02*
G01*
X133878033Y-151899716D01*
X133880694Y-151900067D01*
X133913978Y-151915587D01*
X133969977Y-151940313D01*
X134044687Y-152015023D01*
X134069416Y-152071031D01*
X134084932Y-152104304D01*
X134085282Y-152106964D01*
X134087363Y-152111677D01*
X134095000Y-152177500D01*
X134095000Y-152777500D01*
X134087363Y-152843323D01*
X134085281Y-152848036D01*
X134084932Y-152850694D01*
X134069430Y-152883937D01*
X134044687Y-152939977D01*
X133969977Y-153014687D01*
X133913949Y-153039424D01*
X133880695Y-153054932D01*
X133878036Y-153055282D01*
X133873323Y-153057363D01*
X133807500Y-153065000D01*
X133332500Y-153065000D01*
X133266677Y-153057363D01*
X133261964Y-153055282D01*
X133259305Y-153054932D01*
X133226043Y-153039421D01*
X133170023Y-153014687D01*
X133095313Y-152939977D01*
X133070592Y-152883990D01*
X133055067Y-152850695D01*
X133054716Y-152848032D01*
X133052637Y-152843323D01*
X133045000Y-152777500D01*
X133045000Y-152177500D01*
X133052637Y-152111677D01*
X133054716Y-152106967D01*
X133055067Y-152104305D01*
X133070595Y-152071002D01*
X133095313Y-152015023D01*
X133170023Y-151940313D01*
X133225990Y-151915601D01*
X133259304Y-151900067D01*
X133261967Y-151899716D01*
X133266677Y-151897637D01*
X133332500Y-151890000D01*
X133807500Y-151890000D01*
X133873323Y-151897637D01*
G37*
G36*
X117493323Y-151867637D02*
G01*
X117498033Y-151869716D01*
X117500694Y-151870067D01*
X117533978Y-151885587D01*
X117589977Y-151910313D01*
X117664687Y-151985023D01*
X117689416Y-152041031D01*
X117704932Y-152074304D01*
X117705282Y-152076964D01*
X117707363Y-152081677D01*
X117715000Y-152147500D01*
X117715000Y-152747500D01*
X117707363Y-152813323D01*
X117705281Y-152818036D01*
X117704932Y-152820694D01*
X117689430Y-152853937D01*
X117664687Y-152909977D01*
X117589977Y-152984687D01*
X117533949Y-153009424D01*
X117500695Y-153024932D01*
X117498036Y-153025282D01*
X117493323Y-153027363D01*
X117427500Y-153035000D01*
X116952500Y-153035000D01*
X116886677Y-153027363D01*
X116881964Y-153025282D01*
X116879305Y-153024932D01*
X116846043Y-153009421D01*
X116790023Y-152984687D01*
X116715313Y-152909977D01*
X116690592Y-152853990D01*
X116675067Y-152820695D01*
X116674716Y-152818032D01*
X116672637Y-152813323D01*
X116665000Y-152747500D01*
X116665000Y-152147500D01*
X116672637Y-152081677D01*
X116674716Y-152076967D01*
X116675067Y-152074305D01*
X116690595Y-152041002D01*
X116715313Y-151985023D01*
X116790023Y-151910313D01*
X116845990Y-151885601D01*
X116879304Y-151870067D01*
X116881967Y-151869716D01*
X116886677Y-151867637D01*
X116952500Y-151860000D01*
X117427500Y-151860000D01*
X117493323Y-151867637D01*
G37*
G36*
X140771134Y-151332806D02*
G01*
X140787355Y-151343645D01*
X140798194Y-151359866D01*
X140802000Y-151379000D01*
X140802000Y-152929000D01*
X140798194Y-152948134D01*
X140787355Y-152964355D01*
X140771134Y-152975194D01*
X140752000Y-152979000D01*
X139752000Y-152979000D01*
X139732866Y-152975194D01*
X139716645Y-152964355D01*
X139705806Y-152948134D01*
X139702000Y-152929000D01*
X139702000Y-151379000D01*
X139705806Y-151359866D01*
X139716645Y-151343645D01*
X139732866Y-151332806D01*
X139752000Y-151329000D01*
X140752000Y-151329000D01*
X140771134Y-151332806D01*
G37*
G36*
X142471134Y-151332806D02*
G01*
X142487355Y-151343645D01*
X142498194Y-151359866D01*
X142502000Y-151379000D01*
X142502000Y-152929000D01*
X142498194Y-152948134D01*
X142487355Y-152964355D01*
X142471134Y-152975194D01*
X142452000Y-152979000D01*
X141452000Y-152979000D01*
X141432866Y-152975194D01*
X141416645Y-152964355D01*
X141405806Y-152948134D01*
X141402000Y-152929000D01*
X141402000Y-151379000D01*
X141405806Y-151359866D01*
X141416645Y-151343645D01*
X141432866Y-151332806D01*
X141452000Y-151329000D01*
X142452000Y-151329000D01*
X142471134Y-151332806D01*
G37*
G36*
X126277826Y-151682026D02*
G01*
X126344333Y-151726464D01*
X126563536Y-151945667D01*
X126607974Y-152012174D01*
X126623579Y-152090624D01*
X126607974Y-152169074D01*
X126563536Y-152235581D01*
X126263015Y-152536102D01*
X126196508Y-152580540D01*
X126118058Y-152596145D01*
X126039608Y-152580540D01*
X125973101Y-152536102D01*
X125753898Y-152316899D01*
X125709460Y-152250392D01*
X125693855Y-152171942D01*
X125709460Y-152093492D01*
X125753898Y-152026985D01*
X126054419Y-151726464D01*
X126120926Y-151682026D01*
X126199376Y-151666421D01*
X126277826Y-151682026D01*
G37*
G36*
X115873323Y-150697637D02*
G01*
X115878033Y-150699716D01*
X115880694Y-150700067D01*
X115913978Y-150715587D01*
X115969977Y-150740313D01*
X116044687Y-150815023D01*
X116069416Y-150871031D01*
X116084932Y-150904304D01*
X116085282Y-150906964D01*
X116087363Y-150911677D01*
X116095000Y-150977500D01*
X116095000Y-151577500D01*
X116087363Y-151643323D01*
X116085281Y-151648036D01*
X116084932Y-151650694D01*
X116069430Y-151683937D01*
X116044687Y-151739977D01*
X115969977Y-151814687D01*
X115913949Y-151839424D01*
X115880695Y-151854932D01*
X115878036Y-151855282D01*
X115873323Y-151857363D01*
X115807500Y-151865000D01*
X115332500Y-151865000D01*
X115266677Y-151857363D01*
X115261964Y-151855282D01*
X115259305Y-151854932D01*
X115226043Y-151839421D01*
X115170023Y-151814687D01*
X115095313Y-151739977D01*
X115070592Y-151683990D01*
X115055067Y-151650695D01*
X115054716Y-151648032D01*
X115052637Y-151643323D01*
X115045000Y-151577500D01*
X115045000Y-150977500D01*
X115052637Y-150911677D01*
X115054716Y-150906967D01*
X115055067Y-150904305D01*
X115070595Y-150871002D01*
X115095313Y-150815023D01*
X115170023Y-150740313D01*
X115225990Y-150715601D01*
X115259304Y-150700067D01*
X115261967Y-150699716D01*
X115266677Y-150697637D01*
X115332500Y-150690000D01*
X115807500Y-150690000D01*
X115873323Y-150697637D01*
G37*
G36*
X107894228Y-150288448D02*
G01*
X108039117Y-150348463D01*
X108169515Y-150435592D01*
X108280408Y-150546485D01*
X108367537Y-150676883D01*
X108427552Y-150821772D01*
X108458148Y-150975586D01*
X108458148Y-151132414D01*
X108427552Y-151286228D01*
X108367537Y-151431117D01*
X108280408Y-151561515D01*
X108169515Y-151672408D01*
X108039117Y-151759537D01*
X107894228Y-151819552D01*
X107740414Y-151850148D01*
X107583586Y-151850148D01*
X107429772Y-151819552D01*
X107284883Y-151759537D01*
X107154485Y-151672408D01*
X107043592Y-151561515D01*
X106956463Y-151431117D01*
X106896448Y-151286228D01*
X106865852Y-151132414D01*
X106865852Y-150975586D01*
X106896448Y-150821772D01*
X106956463Y-150676883D01*
X107043592Y-150546485D01*
X107154485Y-150435592D01*
X107284883Y-150348463D01*
X107429772Y-150288448D01*
X107583586Y-150257852D01*
X107740414Y-150257852D01*
X107894228Y-150288448D01*
G37*
G36*
X127080392Y-150879460D02*
G01*
X127146899Y-150923898D01*
X127366102Y-151143101D01*
X127410540Y-151209608D01*
X127426145Y-151288058D01*
X127410540Y-151366508D01*
X127366102Y-151433015D01*
X127065581Y-151733536D01*
X126999074Y-151777974D01*
X126920624Y-151793579D01*
X126842174Y-151777974D01*
X126775667Y-151733536D01*
X126556464Y-151514333D01*
X126512026Y-151447826D01*
X126496421Y-151369376D01*
X126512026Y-151290926D01*
X126556464Y-151224419D01*
X126856985Y-150923898D01*
X126923492Y-150879460D01*
X127001942Y-150863855D01*
X127080392Y-150879460D01*
G37*
G36*
X128493450Y-151035605D02*
G01*
X128559957Y-151080043D01*
X128604395Y-151146550D01*
X128620000Y-151225000D01*
X128620000Y-151535000D01*
X128604395Y-151613450D01*
X128559957Y-151679957D01*
X128493450Y-151724395D01*
X128415000Y-151740000D01*
X127990000Y-151740000D01*
X127911550Y-151724395D01*
X127845043Y-151679957D01*
X127800605Y-151613450D01*
X127785000Y-151535000D01*
X127785000Y-151225000D01*
X127800605Y-151146550D01*
X127845043Y-151080043D01*
X127911550Y-151035605D01*
X127990000Y-151020000D01*
X128415000Y-151020000D01*
X128493450Y-151035605D01*
G37*
G36*
X129628450Y-151035605D02*
G01*
X129694957Y-151080043D01*
X129739395Y-151146550D01*
X129755000Y-151225000D01*
X129755000Y-151535000D01*
X129739395Y-151613450D01*
X129694957Y-151679957D01*
X129628450Y-151724395D01*
X129550000Y-151740000D01*
X129125000Y-151740000D01*
X129046550Y-151724395D01*
X128980043Y-151679957D01*
X128935605Y-151613450D01*
X128920000Y-151535000D01*
X128920000Y-151225000D01*
X128935605Y-151146550D01*
X128980043Y-151080043D01*
X129046550Y-151035605D01*
X129125000Y-151020000D01*
X129550000Y-151020000D01*
X129628450Y-151035605D01*
G37*
G36*
X119802134Y-148703806D02*
G01*
X119818355Y-148714645D01*
X119829194Y-148730866D01*
X119833000Y-148750000D01*
X119833000Y-150250000D01*
X119829194Y-150269134D01*
X119818355Y-150285355D01*
X119802134Y-150296194D01*
X119783000Y-150300000D01*
X118883000Y-150300000D01*
X118863866Y-150296194D01*
X118847645Y-150285355D01*
X118836806Y-150269134D01*
X118833000Y-150250000D01*
X118833000Y-148750000D01*
X118836806Y-148730866D01*
X118847645Y-148714645D01*
X118863866Y-148703806D01*
X118883000Y-148700000D01*
X119783000Y-148700000D01*
X119802134Y-148703806D01*
G37*
G36*
X121072134Y-148703806D02*
G01*
X121088355Y-148714645D01*
X121099194Y-148730866D01*
X121103000Y-148750000D01*
X121103000Y-150250000D01*
X121099194Y-150269134D01*
X121088355Y-150285355D01*
X121072134Y-150296194D01*
X121053000Y-150300000D01*
X120153000Y-150300000D01*
X120133866Y-150296194D01*
X120117645Y-150285355D01*
X120106806Y-150269134D01*
X120103000Y-150250000D01*
X120103000Y-148750000D01*
X120106806Y-148730866D01*
X120117645Y-148714645D01*
X120133866Y-148703806D01*
X120153000Y-148700000D01*
X121053000Y-148700000D01*
X121072134Y-148703806D01*
G37*
G36*
X122342134Y-148703806D02*
G01*
X122358355Y-148714645D01*
X122369194Y-148730866D01*
X122373000Y-148750000D01*
X122373000Y-150250000D01*
X122369194Y-150269134D01*
X122358355Y-150285355D01*
X122342134Y-150296194D01*
X122323000Y-150300000D01*
X121423000Y-150300000D01*
X121403866Y-150296194D01*
X121387645Y-150285355D01*
X121376806Y-150269134D01*
X121373000Y-150250000D01*
X121373000Y-148750000D01*
X121376806Y-148730866D01*
X121387645Y-148714645D01*
X121403866Y-148703806D01*
X121423000Y-148700000D01*
X122323000Y-148700000D01*
X122342134Y-148703806D01*
G37*
G36*
X123612134Y-148703806D02*
G01*
X123628355Y-148714645D01*
X123639194Y-148730866D01*
X123643000Y-148750000D01*
X123643000Y-150250000D01*
X123639194Y-150269134D01*
X123628355Y-150285355D01*
X123612134Y-150296194D01*
X123593000Y-150300000D01*
X122693000Y-150300000D01*
X122673866Y-150296194D01*
X122657645Y-150285355D01*
X122646806Y-150269134D01*
X122643000Y-150250000D01*
X122643000Y-148750000D01*
X122646806Y-148730866D01*
X122657645Y-148714645D01*
X122673866Y-148703806D01*
X122693000Y-148700000D01*
X123593000Y-148700000D01*
X123612134Y-148703806D01*
G37*
G36*
X124882134Y-148703806D02*
G01*
X124898355Y-148714645D01*
X124909194Y-148730866D01*
X124913000Y-148750000D01*
X124913000Y-150250000D01*
X124909194Y-150269134D01*
X124898355Y-150285355D01*
X124882134Y-150296194D01*
X124863000Y-150300000D01*
X123963000Y-150300000D01*
X123943866Y-150296194D01*
X123927645Y-150285355D01*
X123916806Y-150269134D01*
X123913000Y-150250000D01*
X123913000Y-148750000D01*
X123916806Y-148730866D01*
X123927645Y-148714645D01*
X123943866Y-148703806D01*
X123963000Y-148700000D01*
X124863000Y-148700000D01*
X124882134Y-148703806D01*
G37*
G36*
X126152134Y-148703806D02*
G01*
X126168355Y-148714645D01*
X126179194Y-148730866D01*
X126183000Y-148750000D01*
X126183000Y-150250000D01*
X126179194Y-150269134D01*
X126168355Y-150285355D01*
X126152134Y-150296194D01*
X126133000Y-150300000D01*
X125233000Y-150300000D01*
X125213866Y-150296194D01*
X125197645Y-150285355D01*
X125186806Y-150269134D01*
X125183000Y-150250000D01*
X125183000Y-148750000D01*
X125186806Y-148730866D01*
X125197645Y-148714645D01*
X125213866Y-148703806D01*
X125233000Y-148700000D01*
X126133000Y-148700000D01*
X126152134Y-148703806D01*
G37*
G36*
X127422134Y-148703806D02*
G01*
X127438355Y-148714645D01*
X127449194Y-148730866D01*
X127453000Y-148750000D01*
X127453000Y-150250000D01*
X127449194Y-150269134D01*
X127438355Y-150285355D01*
X127422134Y-150296194D01*
X127403000Y-150300000D01*
X126503000Y-150300000D01*
X126483866Y-150296194D01*
X126467645Y-150285355D01*
X126456806Y-150269134D01*
X126453000Y-150250000D01*
X126453000Y-148750000D01*
X126456806Y-148730866D01*
X126467645Y-148714645D01*
X126483866Y-148703806D01*
X126503000Y-148700000D01*
X127403000Y-148700000D01*
X127422134Y-148703806D01*
G37*
G36*
X128692134Y-148703806D02*
G01*
X128708355Y-148714645D01*
X128719194Y-148730866D01*
X128723000Y-148750000D01*
X128723000Y-150250000D01*
X128719194Y-150269134D01*
X128708355Y-150285355D01*
X128692134Y-150296194D01*
X128673000Y-150300000D01*
X127773000Y-150300000D01*
X127753866Y-150296194D01*
X127737645Y-150285355D01*
X127726806Y-150269134D01*
X127723000Y-150250000D01*
X127723000Y-148750000D01*
X127726806Y-148730866D01*
X127737645Y-148714645D01*
X127753866Y-148703806D01*
X127773000Y-148700000D01*
X128673000Y-148700000D01*
X128692134Y-148703806D01*
G37*
G36*
X129962134Y-148703806D02*
G01*
X129978355Y-148714645D01*
X129989194Y-148730866D01*
X129993000Y-148750000D01*
X129993000Y-150250000D01*
X129989194Y-150269134D01*
X129978355Y-150285355D01*
X129962134Y-150296194D01*
X129943000Y-150300000D01*
X129043000Y-150300000D01*
X129023866Y-150296194D01*
X129007645Y-150285355D01*
X128996806Y-150269134D01*
X128993000Y-150250000D01*
X128993000Y-148750000D01*
X128996806Y-148730866D01*
X129007645Y-148714645D01*
X129023866Y-148703806D01*
X129043000Y-148700000D01*
X129943000Y-148700000D01*
X129962134Y-148703806D01*
G37*
G36*
X131232134Y-148703806D02*
G01*
X131248355Y-148714645D01*
X131259194Y-148730866D01*
X131263000Y-148750000D01*
X131263000Y-150250000D01*
X131259194Y-150269134D01*
X131248355Y-150285355D01*
X131232134Y-150296194D01*
X131213000Y-150300000D01*
X130313000Y-150300000D01*
X130293866Y-150296194D01*
X130277645Y-150285355D01*
X130266806Y-150269134D01*
X130263000Y-150250000D01*
X130263000Y-148750000D01*
X130266806Y-148730866D01*
X130277645Y-148714645D01*
X130293866Y-148703806D01*
X130313000Y-148700000D01*
X131213000Y-148700000D01*
X131232134Y-148703806D01*
G37*
G36*
X132502134Y-148703806D02*
G01*
X132518355Y-148714645D01*
X132529194Y-148730866D01*
X132533000Y-148750000D01*
X132533000Y-150250000D01*
X132529194Y-150269134D01*
X132518355Y-150285355D01*
X132502134Y-150296194D01*
X132483000Y-150300000D01*
X131583000Y-150300000D01*
X131563866Y-150296194D01*
X131547645Y-150285355D01*
X131536806Y-150269134D01*
X131533000Y-150250000D01*
X131533000Y-148750000D01*
X131536806Y-148730866D01*
X131547645Y-148714645D01*
X131563866Y-148703806D01*
X131583000Y-148700000D01*
X132483000Y-148700000D01*
X132502134Y-148703806D01*
G37*
G36*
X133772134Y-148703806D02*
G01*
X133788355Y-148714645D01*
X133799194Y-148730866D01*
X133803000Y-148750000D01*
X133803000Y-150250000D01*
X133799194Y-150269134D01*
X133788355Y-150285355D01*
X133772134Y-150296194D01*
X133753000Y-150300000D01*
X132853000Y-150300000D01*
X132833866Y-150296194D01*
X132817645Y-150285355D01*
X132806806Y-150269134D01*
X132803000Y-150250000D01*
X132803000Y-148750000D01*
X132806806Y-148730866D01*
X132817645Y-148714645D01*
X132833866Y-148703806D01*
X132853000Y-148700000D01*
X133753000Y-148700000D01*
X133772134Y-148703806D01*
G37*
G36*
X137902823Y-147742637D02*
G01*
X137907533Y-147744716D01*
X137910194Y-147745067D01*
X137943478Y-147760587D01*
X137999477Y-147785313D01*
X138074187Y-147860023D01*
X138098916Y-147916031D01*
X138114432Y-147949304D01*
X138114782Y-147951964D01*
X138116863Y-147956677D01*
X138124500Y-148022500D01*
X138124500Y-148497500D01*
X138116863Y-148563323D01*
X138114781Y-148568036D01*
X138114432Y-148570694D01*
X138098930Y-148603937D01*
X138074187Y-148659977D01*
X137999477Y-148734687D01*
X137943449Y-148759424D01*
X137910195Y-148774932D01*
X137907536Y-148775282D01*
X137902823Y-148777363D01*
X137837000Y-148785000D01*
X137337000Y-148785000D01*
X137271177Y-148777363D01*
X137266464Y-148775282D01*
X137263805Y-148774932D01*
X137230543Y-148759421D01*
X137174523Y-148734687D01*
X137099813Y-148659977D01*
X137075092Y-148603990D01*
X137059567Y-148570695D01*
X137059216Y-148568032D01*
X137057137Y-148563323D01*
X137049500Y-148497500D01*
X137049500Y-148022500D01*
X137057137Y-147956677D01*
X137059216Y-147951967D01*
X137059567Y-147949305D01*
X137075095Y-147916002D01*
X137099813Y-147860023D01*
X137174523Y-147785313D01*
X137230490Y-147760601D01*
X137263804Y-147745067D01*
X137266467Y-147744716D01*
X137271177Y-147742637D01*
X137337000Y-147735000D01*
X137837000Y-147735000D01*
X137902823Y-147742637D01*
G37*
G36*
X139727823Y-147742637D02*
G01*
X139732533Y-147744716D01*
X139735194Y-147745067D01*
X139768478Y-147760587D01*
X139824477Y-147785313D01*
X139899187Y-147860023D01*
X139923916Y-147916031D01*
X139939432Y-147949304D01*
X139939782Y-147951964D01*
X139941863Y-147956677D01*
X139949500Y-148022500D01*
X139949500Y-148497500D01*
X139941863Y-148563323D01*
X139939781Y-148568036D01*
X139939432Y-148570694D01*
X139923930Y-148603937D01*
X139899187Y-148659977D01*
X139824477Y-148734687D01*
X139768449Y-148759424D01*
X139735195Y-148774932D01*
X139732536Y-148775282D01*
X139727823Y-148777363D01*
X139662000Y-148785000D01*
X139162000Y-148785000D01*
X139096177Y-148777363D01*
X139091464Y-148775282D01*
X139088805Y-148774932D01*
X139055543Y-148759421D01*
X138999523Y-148734687D01*
X138924813Y-148659977D01*
X138900092Y-148603990D01*
X138884567Y-148570695D01*
X138884216Y-148568032D01*
X138882137Y-148563323D01*
X138874500Y-148497500D01*
X138874500Y-148022500D01*
X138882137Y-147956677D01*
X138884216Y-147951967D01*
X138884567Y-147949305D01*
X138900095Y-147916002D01*
X138924813Y-147860023D01*
X138999523Y-147785313D01*
X139055490Y-147760601D01*
X139088804Y-147745067D01*
X139091467Y-147744716D01*
X139096177Y-147742637D01*
X139162000Y-147735000D01*
X139662000Y-147735000D01*
X139727823Y-147742637D01*
G37*
G36*
X118337134Y-147753806D02*
G01*
X118353355Y-147764645D01*
X118364194Y-147780866D01*
X118368000Y-147800000D01*
X118368000Y-148700000D01*
X118364194Y-148719134D01*
X118353355Y-148735355D01*
X118337134Y-148746194D01*
X118318000Y-148750000D01*
X116818000Y-148750000D01*
X116798866Y-148746194D01*
X116782645Y-148735355D01*
X116771806Y-148719134D01*
X116768000Y-148700000D01*
X116768000Y-147800000D01*
X116771806Y-147780866D01*
X116782645Y-147764645D01*
X116798866Y-147753806D01*
X116818000Y-147750000D01*
X118318000Y-147750000D01*
X118337134Y-147753806D01*
G37*
G36*
X135837134Y-147753806D02*
G01*
X135853355Y-147764645D01*
X135864194Y-147780866D01*
X135868000Y-147800000D01*
X135868000Y-148700000D01*
X135864194Y-148719134D01*
X135853355Y-148735355D01*
X135837134Y-148746194D01*
X135818000Y-148750000D01*
X134318000Y-148750000D01*
X134298866Y-148746194D01*
X134282645Y-148735355D01*
X134271806Y-148719134D01*
X134268000Y-148700000D01*
X134268000Y-147800000D01*
X134271806Y-147780866D01*
X134282645Y-147764645D01*
X134298866Y-147753806D01*
X134318000Y-147750000D01*
X135818000Y-147750000D01*
X135837134Y-147753806D01*
G37*
G36*
X116093323Y-147018637D02*
G01*
X116098033Y-147020716D01*
X116100694Y-147021067D01*
X116133978Y-147036587D01*
X116189977Y-147061313D01*
X116264687Y-147136023D01*
X116289416Y-147192031D01*
X116304932Y-147225304D01*
X116305282Y-147227964D01*
X116307363Y-147232677D01*
X116315000Y-147298500D01*
X116315000Y-147898500D01*
X116307363Y-147964323D01*
X116305281Y-147969036D01*
X116304932Y-147971694D01*
X116289430Y-148004937D01*
X116264687Y-148060977D01*
X116189977Y-148135687D01*
X116133949Y-148160424D01*
X116100695Y-148175932D01*
X116098036Y-148176282D01*
X116093323Y-148178363D01*
X116027500Y-148186000D01*
X115552500Y-148186000D01*
X115486677Y-148178363D01*
X115481964Y-148176282D01*
X115479305Y-148175932D01*
X115446043Y-148160421D01*
X115390023Y-148135687D01*
X115315313Y-148060977D01*
X115290592Y-148004990D01*
X115275067Y-147971695D01*
X115274716Y-147969032D01*
X115272637Y-147964323D01*
X115265000Y-147898500D01*
X115265000Y-147298500D01*
X115272637Y-147232677D01*
X115274716Y-147227967D01*
X115275067Y-147225305D01*
X115290595Y-147192002D01*
X115315313Y-147136023D01*
X115390023Y-147061313D01*
X115445990Y-147036601D01*
X115479304Y-147021067D01*
X115481967Y-147020716D01*
X115486677Y-147018637D01*
X115552500Y-147011000D01*
X116027500Y-147011000D01*
X116093323Y-147018637D01*
G37*
G36*
X118337134Y-146483806D02*
G01*
X118353355Y-146494645D01*
X118364194Y-146510866D01*
X118368000Y-146530000D01*
X118368000Y-147430000D01*
X118364194Y-147449134D01*
X118353355Y-147465355D01*
X118337134Y-147476194D01*
X118318000Y-147480000D01*
X116818000Y-147480000D01*
X116798866Y-147476194D01*
X116782645Y-147465355D01*
X116771806Y-147449134D01*
X116768000Y-147430000D01*
X116768000Y-146530000D01*
X116771806Y-146510866D01*
X116782645Y-146494645D01*
X116798866Y-146483806D01*
X116818000Y-146480000D01*
X118318000Y-146480000D01*
X118337134Y-146483806D01*
G37*
G36*
X135837134Y-146483806D02*
G01*
X135853355Y-146494645D01*
X135864194Y-146510866D01*
X135868000Y-146530000D01*
X135868000Y-147430000D01*
X135864194Y-147449134D01*
X135853355Y-147465355D01*
X135837134Y-147476194D01*
X135818000Y-147480000D01*
X134318000Y-147480000D01*
X134298866Y-147476194D01*
X134282645Y-147465355D01*
X134271806Y-147449134D01*
X134268000Y-147430000D01*
X134268000Y-146530000D01*
X134271806Y-146510866D01*
X134282645Y-146494645D01*
X134298866Y-146483806D01*
X134318000Y-146480000D01*
X135818000Y-146480000D01*
X135837134Y-146483806D01*
G37*
G36*
X140469134Y-145853806D02*
G01*
X140485355Y-145864645D01*
X140496194Y-145880866D01*
X140500000Y-145900000D01*
X140500000Y-146800000D01*
X140496194Y-146819134D01*
X140485355Y-146835355D01*
X140469134Y-146846194D01*
X140450000Y-146850000D01*
X138750000Y-146850000D01*
X138730866Y-146846194D01*
X138714645Y-146835355D01*
X138703806Y-146819134D01*
X138700000Y-146800000D01*
X138700000Y-145900000D01*
X138703806Y-145880866D01*
X138714645Y-145864645D01*
X138730866Y-145853806D01*
X138750000Y-145850000D01*
X140450000Y-145850000D01*
X140469134Y-145853806D01*
G37*
G36*
X107939789Y-145526705D02*
G01*
X108078476Y-145563866D01*
X108202819Y-145635656D01*
X108304344Y-145737181D01*
X108376134Y-145861524D01*
X108413295Y-146000211D01*
X108413295Y-146143789D01*
X108376134Y-146282476D01*
X108304344Y-146406819D01*
X108202819Y-146508344D01*
X108078476Y-146580134D01*
X107939789Y-146617295D01*
X107868000Y-146622000D01*
X107866363Y-146622000D01*
X107269637Y-146622000D01*
X107268000Y-146622000D01*
X107196211Y-146617295D01*
X107057524Y-146580134D01*
X106933181Y-146508344D01*
X106831656Y-146406819D01*
X106759866Y-146282476D01*
X106722705Y-146143789D01*
X106722705Y-146000211D01*
X106759866Y-145861524D01*
X106831656Y-145737181D01*
X106933181Y-145635656D01*
X107057524Y-145563866D01*
X107196211Y-145526705D01*
X107268000Y-145522000D01*
X107868000Y-145522000D01*
X107939789Y-145526705D01*
G37*
G36*
X112369789Y-145526705D02*
G01*
X112508476Y-145563866D01*
X112632819Y-145635656D01*
X112734344Y-145737181D01*
X112806134Y-145861524D01*
X112843295Y-146000211D01*
X112843295Y-146143789D01*
X112806134Y-146282476D01*
X112734344Y-146406819D01*
X112632819Y-146508344D01*
X112508476Y-146580134D01*
X112369789Y-146617295D01*
X112298000Y-146622000D01*
X112296363Y-146622000D01*
X111199637Y-146622000D01*
X111198000Y-146622000D01*
X111126211Y-146617295D01*
X110987524Y-146580134D01*
X110863181Y-146508344D01*
X110761656Y-146406819D01*
X110689866Y-146282476D01*
X110652705Y-146143789D01*
X110652705Y-146000211D01*
X110689866Y-145861524D01*
X110761656Y-145737181D01*
X110863181Y-145635656D01*
X110987524Y-145563866D01*
X111126211Y-145526705D01*
X111198000Y-145522000D01*
X112298000Y-145522000D01*
X112369789Y-145526705D01*
G37*
G36*
X116093323Y-145293637D02*
G01*
X116098033Y-145295716D01*
X116100694Y-145296067D01*
X116133978Y-145311587D01*
X116189977Y-145336313D01*
X116264687Y-145411023D01*
X116289416Y-145467031D01*
X116304932Y-145500304D01*
X116305282Y-145502964D01*
X116307363Y-145507677D01*
X116315000Y-145573500D01*
X116315000Y-146173500D01*
X116307363Y-146239323D01*
X116305281Y-146244036D01*
X116304932Y-146246694D01*
X116289430Y-146279937D01*
X116264687Y-146335977D01*
X116189977Y-146410687D01*
X116133949Y-146435424D01*
X116100695Y-146450932D01*
X116098036Y-146451282D01*
X116093323Y-146453363D01*
X116027500Y-146461000D01*
X115552500Y-146461000D01*
X115486677Y-146453363D01*
X115481964Y-146451282D01*
X115479305Y-146450932D01*
X115446043Y-146435421D01*
X115390023Y-146410687D01*
X115315313Y-146335977D01*
X115290592Y-146279990D01*
X115275067Y-146246695D01*
X115274716Y-146244032D01*
X115272637Y-146239323D01*
X115265000Y-146173500D01*
X115265000Y-145573500D01*
X115272637Y-145507677D01*
X115274716Y-145502967D01*
X115275067Y-145500305D01*
X115290595Y-145467002D01*
X115315313Y-145411023D01*
X115390023Y-145336313D01*
X115445990Y-145311601D01*
X115479304Y-145296067D01*
X115481967Y-145295716D01*
X115486677Y-145293637D01*
X115552500Y-145286000D01*
X116027500Y-145286000D01*
X116093323Y-145293637D01*
G37*
G36*
X118337134Y-145213806D02*
G01*
X118353355Y-145224645D01*
X118364194Y-145240866D01*
X118368000Y-145260000D01*
X118368000Y-146160000D01*
X118364194Y-146179134D01*
X118353355Y-146195355D01*
X118337134Y-146206194D01*
X118318000Y-146210000D01*
X116818000Y-146210000D01*
X116798866Y-146206194D01*
X116782645Y-146195355D01*
X116771806Y-146179134D01*
X116768000Y-146160000D01*
X116768000Y-145260000D01*
X116771806Y-145240866D01*
X116782645Y-145224645D01*
X116798866Y-145213806D01*
X116818000Y-145210000D01*
X118318000Y-145210000D01*
X118337134Y-145213806D01*
G37*
G36*
X135837134Y-145213806D02*
G01*
X135853355Y-145224645D01*
X135864194Y-145240866D01*
X135868000Y-145260000D01*
X135868000Y-146160000D01*
X135864194Y-146179134D01*
X135853355Y-146195355D01*
X135837134Y-146206194D01*
X135818000Y-146210000D01*
X134318000Y-146210000D01*
X134298866Y-146206194D01*
X134282645Y-146195355D01*
X134271806Y-146179134D01*
X134268000Y-146160000D01*
X134268000Y-145260000D01*
X134271806Y-145240866D01*
X134282645Y-145224645D01*
X134298866Y-145213806D01*
X134318000Y-145210000D01*
X135818000Y-145210000D01*
X135837134Y-145213806D01*
G37*
G36*
X111371073Y-144272448D02*
G01*
X111461505Y-144324659D01*
X111535341Y-144398495D01*
X111587552Y-144488927D01*
X111614578Y-144589790D01*
X111614578Y-144694210D01*
X111587552Y-144795073D01*
X111535341Y-144885505D01*
X111461505Y-144959341D01*
X111371073Y-145011552D01*
X111270210Y-145038578D01*
X111165790Y-145038578D01*
X111064927Y-145011552D01*
X110974495Y-144959341D01*
X110900659Y-144885505D01*
X110848448Y-144795073D01*
X110821422Y-144694210D01*
X110821422Y-144589790D01*
X110848448Y-144488927D01*
X110900659Y-144398495D01*
X110974495Y-144324659D01*
X111064927Y-144272448D01*
X111165790Y-144245422D01*
X111270210Y-144245422D01*
X111371073Y-144272448D01*
G37*
G36*
X118337134Y-143943806D02*
G01*
X118353355Y-143954645D01*
X118364194Y-143970866D01*
X118368000Y-143990000D01*
X118368000Y-144890000D01*
X118364194Y-144909134D01*
X118353355Y-144925355D01*
X118337134Y-144936194D01*
X118318000Y-144940000D01*
X116818000Y-144940000D01*
X116798866Y-144936194D01*
X116782645Y-144925355D01*
X116771806Y-144909134D01*
X116768000Y-144890000D01*
X116768000Y-143990000D01*
X116771806Y-143970866D01*
X116782645Y-143954645D01*
X116798866Y-143943806D01*
X116818000Y-143940000D01*
X118318000Y-143940000D01*
X118337134Y-143943806D01*
G37*
G36*
X135837134Y-143943806D02*
G01*
X135853355Y-143954645D01*
X135864194Y-143970866D01*
X135868000Y-143990000D01*
X135868000Y-144890000D01*
X135864194Y-144909134D01*
X135853355Y-144925355D01*
X135837134Y-144936194D01*
X135818000Y-144940000D01*
X134318000Y-144940000D01*
X134298866Y-144936194D01*
X134282645Y-144925355D01*
X134271806Y-144909134D01*
X134268000Y-144890000D01*
X134268000Y-143990000D01*
X134271806Y-143970866D01*
X134282645Y-143954645D01*
X134298866Y-143943806D01*
X134318000Y-143940000D01*
X135818000Y-143940000D01*
X135837134Y-143943806D01*
G37*
G36*
X118337134Y-142673806D02*
G01*
X118353355Y-142684645D01*
X118364194Y-142700866D01*
X118368000Y-142720000D01*
X118368000Y-143620000D01*
X118364194Y-143639134D01*
X118353355Y-143655355D01*
X118337134Y-143666194D01*
X118318000Y-143670000D01*
X116818000Y-143670000D01*
X116798866Y-143666194D01*
X116782645Y-143655355D01*
X116771806Y-143639134D01*
X116768000Y-143620000D01*
X116768000Y-142720000D01*
X116771806Y-142700866D01*
X116782645Y-142684645D01*
X116798866Y-142673806D01*
X116818000Y-142670000D01*
X118318000Y-142670000D01*
X118337134Y-142673806D01*
G37*
G36*
X135837134Y-142673806D02*
G01*
X135853355Y-142684645D01*
X135864194Y-142700866D01*
X135868000Y-142720000D01*
X135868000Y-143620000D01*
X135864194Y-143639134D01*
X135853355Y-143655355D01*
X135837134Y-143666194D01*
X135818000Y-143670000D01*
X134318000Y-143670000D01*
X134298866Y-143666194D01*
X134282645Y-143655355D01*
X134271806Y-143639134D01*
X134268000Y-143620000D01*
X134268000Y-142720000D01*
X134271806Y-142700866D01*
X134282645Y-142684645D01*
X134298866Y-142673806D01*
X134318000Y-142670000D01*
X135818000Y-142670000D01*
X135837134Y-142673806D01*
G37*
G36*
X140469134Y-142453806D02*
G01*
X140485355Y-142464645D01*
X140496194Y-142480866D01*
X140500000Y-142500000D01*
X140500000Y-143400000D01*
X140496194Y-143419134D01*
X140485355Y-143435355D01*
X140469134Y-143446194D01*
X140450000Y-143450000D01*
X138750000Y-143450000D01*
X138730866Y-143446194D01*
X138714645Y-143435355D01*
X138703806Y-143419134D01*
X138700000Y-143400000D01*
X138700000Y-142500000D01*
X138703806Y-142480866D01*
X138714645Y-142464645D01*
X138730866Y-142453806D01*
X138750000Y-142450000D01*
X140450000Y-142450000D01*
X140469134Y-142453806D01*
G37*
G36*
X116023450Y-142075605D02*
G01*
X116089957Y-142120043D01*
X116134395Y-142186550D01*
X116150000Y-142265000D01*
X116150000Y-142690000D01*
X116134395Y-142768450D01*
X116089957Y-142834957D01*
X116023450Y-142879395D01*
X115945000Y-142895000D01*
X115635000Y-142895000D01*
X115556550Y-142879395D01*
X115490043Y-142834957D01*
X115445605Y-142768450D01*
X115430000Y-142690000D01*
X115430000Y-142265000D01*
X115445605Y-142186550D01*
X115490043Y-142120043D01*
X115556550Y-142075605D01*
X115635000Y-142060000D01*
X115945000Y-142060000D01*
X116023450Y-142075605D01*
G37*
G36*
X115079134Y-141713806D02*
G01*
X115095355Y-141724645D01*
X115106194Y-141740866D01*
X115110000Y-141760000D01*
X115110000Y-142760000D01*
X115106194Y-142779134D01*
X115095355Y-142795355D01*
X115079134Y-142806194D01*
X115060000Y-142810000D01*
X113260000Y-142810000D01*
X113240866Y-142806194D01*
X113224645Y-142795355D01*
X113213806Y-142779134D01*
X113210000Y-142760000D01*
X113210000Y-141760000D01*
X113213806Y-141740866D01*
X113224645Y-141724645D01*
X113240866Y-141713806D01*
X113260000Y-141710000D01*
X115060000Y-141710000D01*
X115079134Y-141713806D01*
G37*
G36*
X118337134Y-141403806D02*
G01*
X118353355Y-141414645D01*
X118364194Y-141430866D01*
X118368000Y-141450000D01*
X118368000Y-142350000D01*
X118364194Y-142369134D01*
X118353355Y-142385355D01*
X118337134Y-142396194D01*
X118318000Y-142400000D01*
X116818000Y-142400000D01*
X116798866Y-142396194D01*
X116782645Y-142385355D01*
X116771806Y-142369134D01*
X116768000Y-142350000D01*
X116768000Y-141450000D01*
X116771806Y-141430866D01*
X116782645Y-141414645D01*
X116798866Y-141403806D01*
X116818000Y-141400000D01*
X118318000Y-141400000D01*
X118337134Y-141403806D01*
G37*
G36*
X135837134Y-141403806D02*
G01*
X135853355Y-141414645D01*
X135864194Y-141430866D01*
X135868000Y-141450000D01*
X135868000Y-142350000D01*
X135864194Y-142369134D01*
X135853355Y-142385355D01*
X135837134Y-142396194D01*
X135818000Y-142400000D01*
X134318000Y-142400000D01*
X134298866Y-142396194D01*
X134282645Y-142385355D01*
X134271806Y-142369134D01*
X134268000Y-142350000D01*
X134268000Y-141450000D01*
X134271806Y-141430866D01*
X134282645Y-141414645D01*
X134298866Y-141403806D01*
X134318000Y-141400000D01*
X135818000Y-141400000D01*
X135837134Y-141403806D01*
G37*
G36*
X112533323Y-141262637D02*
G01*
X112538033Y-141264716D01*
X112540694Y-141265067D01*
X112573978Y-141280587D01*
X112629977Y-141305313D01*
X112704687Y-141380023D01*
X112729416Y-141436031D01*
X112744932Y-141469304D01*
X112745282Y-141471964D01*
X112747363Y-141476677D01*
X112755000Y-141542500D01*
X112755000Y-142042500D01*
X112747363Y-142108323D01*
X112745281Y-142113036D01*
X112744932Y-142115694D01*
X112729430Y-142148937D01*
X112704687Y-142204977D01*
X112629977Y-142279687D01*
X112573949Y-142304424D01*
X112540695Y-142319932D01*
X112538036Y-142320282D01*
X112533323Y-142322363D01*
X112467500Y-142330000D01*
X111992500Y-142330000D01*
X111926677Y-142322363D01*
X111921964Y-142320282D01*
X111919305Y-142319932D01*
X111886043Y-142304421D01*
X111830023Y-142279687D01*
X111755313Y-142204977D01*
X111730592Y-142148990D01*
X111715067Y-142115695D01*
X111714716Y-142113032D01*
X111712637Y-142108323D01*
X111705000Y-142042500D01*
X111705000Y-141542500D01*
X111712637Y-141476677D01*
X111714716Y-141471967D01*
X111715067Y-141469305D01*
X111730595Y-141436002D01*
X111755313Y-141380023D01*
X111830023Y-141305313D01*
X111885990Y-141280601D01*
X111919304Y-141265067D01*
X111921967Y-141264716D01*
X111926677Y-141262637D01*
X111992500Y-141255000D01*
X112467500Y-141255000D01*
X112533323Y-141262637D01*
G37*
G36*
X116023450Y-140940605D02*
G01*
X116089957Y-140985043D01*
X116134395Y-141051550D01*
X116150000Y-141130000D01*
X116150000Y-141555000D01*
X116134395Y-141633450D01*
X116089957Y-141699957D01*
X116023450Y-141744395D01*
X115945000Y-141760000D01*
X115635000Y-141760000D01*
X115556550Y-141744395D01*
X115490043Y-141699957D01*
X115445605Y-141633450D01*
X115430000Y-141555000D01*
X115430000Y-141130000D01*
X115445605Y-141051550D01*
X115490043Y-140985043D01*
X115556550Y-140940605D01*
X115635000Y-140925000D01*
X115945000Y-140925000D01*
X116023450Y-140940605D01*
G37*
G36*
X123887134Y-140363806D02*
G01*
X123903355Y-140374645D01*
X123914194Y-140390866D01*
X123918000Y-140410000D01*
X123918000Y-141310000D01*
X123914194Y-141329134D01*
X123903355Y-141345355D01*
X123887134Y-141356194D01*
X123868000Y-141360000D01*
X122968000Y-141360000D01*
X122948866Y-141356194D01*
X122932645Y-141345355D01*
X122921806Y-141329134D01*
X122918000Y-141310000D01*
X122918000Y-140410000D01*
X122921806Y-140390866D01*
X122932645Y-140374645D01*
X122948866Y-140363806D01*
X122968000Y-140360000D01*
X123868000Y-140360000D01*
X123887134Y-140363806D01*
G37*
G36*
X125287134Y-140363806D02*
G01*
X125303355Y-140374645D01*
X125314194Y-140390866D01*
X125318000Y-140410000D01*
X125318000Y-141310000D01*
X125314194Y-141329134D01*
X125303355Y-141345355D01*
X125287134Y-141356194D01*
X125268000Y-141360000D01*
X124368000Y-141360000D01*
X124348866Y-141356194D01*
X124332645Y-141345355D01*
X124321806Y-141329134D01*
X124318000Y-141310000D01*
X124318000Y-140410000D01*
X124321806Y-140390866D01*
X124332645Y-140374645D01*
X124348866Y-140363806D01*
X124368000Y-140360000D01*
X125268000Y-140360000D01*
X125287134Y-140363806D01*
G37*
G36*
X126687134Y-140363806D02*
G01*
X126703355Y-140374645D01*
X126714194Y-140390866D01*
X126718000Y-140410000D01*
X126718000Y-141310000D01*
X126714194Y-141329134D01*
X126703355Y-141345355D01*
X126687134Y-141356194D01*
X126668000Y-141360000D01*
X125768000Y-141360000D01*
X125748866Y-141356194D01*
X125732645Y-141345355D01*
X125721806Y-141329134D01*
X125718000Y-141310000D01*
X125718000Y-140410000D01*
X125721806Y-140390866D01*
X125732645Y-140374645D01*
X125748866Y-140363806D01*
X125768000Y-140360000D01*
X126668000Y-140360000D01*
X126687134Y-140363806D01*
G37*
G36*
X118337134Y-140133806D02*
G01*
X118353355Y-140144645D01*
X118364194Y-140160866D01*
X118368000Y-140180000D01*
X118368000Y-141080000D01*
X118364194Y-141099134D01*
X118353355Y-141115355D01*
X118337134Y-141126194D01*
X118318000Y-141130000D01*
X116818000Y-141130000D01*
X116798866Y-141126194D01*
X116782645Y-141115355D01*
X116771806Y-141099134D01*
X116768000Y-141080000D01*
X116768000Y-140180000D01*
X116771806Y-140160866D01*
X116782645Y-140144645D01*
X116798866Y-140133806D01*
X116818000Y-140130000D01*
X118318000Y-140130000D01*
X118337134Y-140133806D01*
G37*
G36*
X135837134Y-140133806D02*
G01*
X135853355Y-140144645D01*
X135864194Y-140160866D01*
X135868000Y-140180000D01*
X135868000Y-141080000D01*
X135864194Y-141099134D01*
X135853355Y-141115355D01*
X135837134Y-141126194D01*
X135818000Y-141130000D01*
X134318000Y-141130000D01*
X134298866Y-141126194D01*
X134282645Y-141115355D01*
X134271806Y-141099134D01*
X134268000Y-141080000D01*
X134268000Y-140180000D01*
X134271806Y-140160866D01*
X134282645Y-140144645D01*
X134298866Y-140133806D01*
X134318000Y-140130000D01*
X135818000Y-140130000D01*
X135837134Y-140133806D01*
G37*
G36*
X116023450Y-139730105D02*
G01*
X116089957Y-139774543D01*
X116134395Y-139841050D01*
X116150000Y-139919500D01*
X116150000Y-140344500D01*
X116134395Y-140422950D01*
X116089957Y-140489457D01*
X116023450Y-140533895D01*
X115945000Y-140549500D01*
X115635000Y-140549500D01*
X115556550Y-140533895D01*
X115490043Y-140489457D01*
X115445605Y-140422950D01*
X115430000Y-140344500D01*
X115430000Y-139919500D01*
X115445605Y-139841050D01*
X115490043Y-139774543D01*
X115556550Y-139730105D01*
X115635000Y-139714500D01*
X115945000Y-139714500D01*
X116023450Y-139730105D01*
G37*
G36*
X112533323Y-139437637D02*
G01*
X112538033Y-139439716D01*
X112540694Y-139440067D01*
X112573978Y-139455587D01*
X112629977Y-139480313D01*
X112704687Y-139555023D01*
X112729416Y-139611031D01*
X112744932Y-139644304D01*
X112745282Y-139646964D01*
X112747363Y-139651677D01*
X112755000Y-139717500D01*
X112755000Y-140217500D01*
X112747363Y-140283323D01*
X112745281Y-140288036D01*
X112744932Y-140290694D01*
X112729430Y-140323937D01*
X112704687Y-140379977D01*
X112629977Y-140454687D01*
X112573949Y-140479424D01*
X112540695Y-140494932D01*
X112538036Y-140495282D01*
X112533323Y-140497363D01*
X112467500Y-140505000D01*
X111992500Y-140505000D01*
X111926677Y-140497363D01*
X111921964Y-140495282D01*
X111919305Y-140494932D01*
X111886043Y-140479421D01*
X111830023Y-140454687D01*
X111755313Y-140379977D01*
X111730592Y-140323990D01*
X111715067Y-140290695D01*
X111714716Y-140288032D01*
X111712637Y-140283323D01*
X111705000Y-140217500D01*
X111705000Y-139717500D01*
X111712637Y-139651677D01*
X111714716Y-139646967D01*
X111715067Y-139644305D01*
X111730595Y-139611002D01*
X111755313Y-139555023D01*
X111830023Y-139480313D01*
X111885990Y-139455601D01*
X111919304Y-139440067D01*
X111921967Y-139439716D01*
X111926677Y-139437637D01*
X111992500Y-139430000D01*
X112467500Y-139430000D01*
X112533323Y-139437637D01*
G37*
G36*
X115079134Y-139213806D02*
G01*
X115095355Y-139224645D01*
X115106194Y-139240866D01*
X115110000Y-139260000D01*
X115110000Y-140260000D01*
X115106194Y-140279134D01*
X115095355Y-140295355D01*
X115079134Y-140306194D01*
X115060000Y-140310000D01*
X113260000Y-140310000D01*
X113240866Y-140306194D01*
X113224645Y-140295355D01*
X113213806Y-140279134D01*
X113210000Y-140260000D01*
X113210000Y-139260000D01*
X113213806Y-139240866D01*
X113224645Y-139224645D01*
X113240866Y-139213806D01*
X113260000Y-139210000D01*
X115060000Y-139210000D01*
X115079134Y-139213806D01*
G37*
G36*
X123887134Y-138963806D02*
G01*
X123903355Y-138974645D01*
X123914194Y-138990866D01*
X123918000Y-139010000D01*
X123918000Y-139910000D01*
X123914194Y-139929134D01*
X123903355Y-139945355D01*
X123887134Y-139956194D01*
X123868000Y-139960000D01*
X122968000Y-139960000D01*
X122948866Y-139956194D01*
X122932645Y-139945355D01*
X122921806Y-139929134D01*
X122918000Y-139910000D01*
X122918000Y-139010000D01*
X122921806Y-138990866D01*
X122932645Y-138974645D01*
X122948866Y-138963806D01*
X122968000Y-138960000D01*
X123868000Y-138960000D01*
X123887134Y-138963806D01*
G37*
G36*
X125287134Y-138963806D02*
G01*
X125303355Y-138974645D01*
X125314194Y-138990866D01*
X125318000Y-139010000D01*
X125318000Y-139910000D01*
X125314194Y-139929134D01*
X125303355Y-139945355D01*
X125287134Y-139956194D01*
X125268000Y-139960000D01*
X124368000Y-139960000D01*
X124348866Y-139956194D01*
X124332645Y-139945355D01*
X124321806Y-139929134D01*
X124318000Y-139910000D01*
X124318000Y-139010000D01*
X124321806Y-138990866D01*
X124332645Y-138974645D01*
X124348866Y-138963806D01*
X124368000Y-138960000D01*
X125268000Y-138960000D01*
X125287134Y-138963806D01*
G37*
G36*
X126687134Y-138963806D02*
G01*
X126703355Y-138974645D01*
X126714194Y-138990866D01*
X126718000Y-139010000D01*
X126718000Y-139910000D01*
X126714194Y-139929134D01*
X126703355Y-139945355D01*
X126687134Y-139956194D01*
X126668000Y-139960000D01*
X125768000Y-139960000D01*
X125748866Y-139956194D01*
X125732645Y-139945355D01*
X125721806Y-139929134D01*
X125718000Y-139910000D01*
X125718000Y-139010000D01*
X125721806Y-138990866D01*
X125732645Y-138974645D01*
X125748866Y-138963806D01*
X125768000Y-138960000D01*
X126668000Y-138960000D01*
X126687134Y-138963806D01*
G37*
G36*
X118337134Y-138863806D02*
G01*
X118353355Y-138874645D01*
X118364194Y-138890866D01*
X118368000Y-138910000D01*
X118368000Y-139810000D01*
X118364194Y-139829134D01*
X118353355Y-139845355D01*
X118337134Y-139856194D01*
X118318000Y-139860000D01*
X116818000Y-139860000D01*
X116798866Y-139856194D01*
X116782645Y-139845355D01*
X116771806Y-139829134D01*
X116768000Y-139810000D01*
X116768000Y-138910000D01*
X116771806Y-138890866D01*
X116782645Y-138874645D01*
X116798866Y-138863806D01*
X116818000Y-138860000D01*
X118318000Y-138860000D01*
X118337134Y-138863806D01*
G37*
G36*
X135837134Y-138863806D02*
G01*
X135853355Y-138874645D01*
X135864194Y-138890866D01*
X135868000Y-138910000D01*
X135868000Y-139810000D01*
X135864194Y-139829134D01*
X135853355Y-139845355D01*
X135837134Y-139856194D01*
X135818000Y-139860000D01*
X134318000Y-139860000D01*
X134298866Y-139856194D01*
X134282645Y-139845355D01*
X134271806Y-139829134D01*
X134268000Y-139810000D01*
X134268000Y-138910000D01*
X134271806Y-138890866D01*
X134282645Y-138874645D01*
X134298866Y-138863806D01*
X134318000Y-138860000D01*
X135818000Y-138860000D01*
X135837134Y-138863806D01*
G37*
G36*
X139967549Y-136824287D02*
G01*
X140068587Y-136831138D01*
X140101917Y-136839427D01*
X140137454Y-136843431D01*
X140185203Y-136860139D01*
X140232153Y-136871815D01*
X140264695Y-136887954D01*
X140301260Y-136900749D01*
X140341595Y-136926093D01*
X140382231Y-136946247D01*
X140412886Y-136970888D01*
X140448205Y-136993081D01*
X140479800Y-137024676D01*
X140512798Y-137051201D01*
X140539322Y-137084198D01*
X140570919Y-137115795D01*
X140593112Y-137151114D01*
X140617752Y-137181768D01*
X140637903Y-137222400D01*
X140663251Y-137262740D01*
X140676046Y-137299308D01*
X140692184Y-137331846D01*
X140703858Y-137378789D01*
X140720569Y-137426546D01*
X140724573Y-137462087D01*
X140732861Y-137495412D01*
X140739710Y-137596429D01*
X140740000Y-137599000D01*
X140740000Y-139049000D01*
X140739710Y-139051571D01*
X140732861Y-139152587D01*
X140724573Y-139185910D01*
X140720569Y-139221454D01*
X140703857Y-139269213D01*
X140692184Y-139316153D01*
X140676047Y-139348688D01*
X140663251Y-139385260D01*
X140637901Y-139425603D01*
X140617752Y-139466231D01*
X140593114Y-139496880D01*
X140570919Y-139532205D01*
X140539318Y-139563805D01*
X140512798Y-139596798D01*
X140479805Y-139623318D01*
X140448205Y-139654919D01*
X140412880Y-139677114D01*
X140382231Y-139701752D01*
X140341603Y-139721901D01*
X140301260Y-139747251D01*
X140264688Y-139760047D01*
X140232153Y-139776184D01*
X140185213Y-139787857D01*
X140137454Y-139804569D01*
X140101910Y-139808573D01*
X140068587Y-139816861D01*
X139967571Y-139823710D01*
X139965000Y-139824000D01*
X138015000Y-139824000D01*
X138012429Y-139823710D01*
X137911412Y-139816861D01*
X137878087Y-139808573D01*
X137842546Y-139804569D01*
X137794789Y-139787858D01*
X137747846Y-139776184D01*
X137715308Y-139760046D01*
X137678740Y-139747251D01*
X137638400Y-139721903D01*
X137597768Y-139701752D01*
X137567114Y-139677112D01*
X137531795Y-139654919D01*
X137500198Y-139623322D01*
X137467201Y-139596798D01*
X137440676Y-139563800D01*
X137409081Y-139532205D01*
X137386888Y-139496886D01*
X137362247Y-139466231D01*
X137342093Y-139425595D01*
X137316749Y-139385260D01*
X137303954Y-139348695D01*
X137287815Y-139316153D01*
X137276139Y-139269203D01*
X137259431Y-139221454D01*
X137255427Y-139185917D01*
X137247138Y-139152587D01*
X137240287Y-139051549D01*
X137240000Y-139049000D01*
X137240000Y-137599000D01*
X137240287Y-137596452D01*
X137247138Y-137495412D01*
X137255427Y-137462080D01*
X137259431Y-137426546D01*
X137276138Y-137378799D01*
X137287815Y-137331846D01*
X137303955Y-137299301D01*
X137316749Y-137262740D01*
X137342091Y-137222407D01*
X137362247Y-137181768D01*
X137386891Y-137151109D01*
X137409081Y-137115795D01*
X137440672Y-137084203D01*
X137467201Y-137051201D01*
X137500203Y-137024672D01*
X137531795Y-136993081D01*
X137567109Y-136970891D01*
X137597768Y-136946247D01*
X137638407Y-136926091D01*
X137678740Y-136900749D01*
X137715301Y-136887955D01*
X137747846Y-136871815D01*
X137794799Y-136860138D01*
X137842546Y-136843431D01*
X137878080Y-136839427D01*
X137911412Y-136831138D01*
X138012452Y-136824287D01*
X138015000Y-136824000D01*
X139965000Y-136824000D01*
X139967549Y-136824287D01*
G37*
G36*
X116023450Y-138595105D02*
G01*
X116089957Y-138639543D01*
X116134395Y-138706050D01*
X116150000Y-138784500D01*
X116150000Y-139209500D01*
X116134395Y-139287950D01*
X116089957Y-139354457D01*
X116023450Y-139398895D01*
X115945000Y-139414500D01*
X115635000Y-139414500D01*
X115556550Y-139398895D01*
X115490043Y-139354457D01*
X115445605Y-139287950D01*
X115430000Y-139209500D01*
X115430000Y-138784500D01*
X115445605Y-138706050D01*
X115490043Y-138639543D01*
X115556550Y-138595105D01*
X115635000Y-138579500D01*
X115945000Y-138579500D01*
X116023450Y-138595105D01*
G37*
G36*
X111371073Y-138492448D02*
G01*
X111461505Y-138544659D01*
X111535341Y-138618495D01*
X111587552Y-138708927D01*
X111614578Y-138809790D01*
X111614578Y-138914210D01*
X111587552Y-139015073D01*
X111535341Y-139105505D01*
X111461505Y-139179341D01*
X111371073Y-139231552D01*
X111270210Y-139258578D01*
X111165790Y-139258578D01*
X111064927Y-139231552D01*
X110974495Y-139179341D01*
X110900659Y-139105505D01*
X110848448Y-139015073D01*
X110821422Y-138914210D01*
X110821422Y-138809790D01*
X110848448Y-138708927D01*
X110900659Y-138618495D01*
X110974495Y-138544659D01*
X111064927Y-138492448D01*
X111165790Y-138465422D01*
X111270210Y-138465422D01*
X111371073Y-138492448D01*
G37*
G36*
X118337134Y-137593806D02*
G01*
X118353355Y-137604645D01*
X118364194Y-137620866D01*
X118368000Y-137640000D01*
X118368000Y-138540000D01*
X118364194Y-138559134D01*
X118353355Y-138575355D01*
X118337134Y-138586194D01*
X118318000Y-138590000D01*
X116818000Y-138590000D01*
X116798866Y-138586194D01*
X116782645Y-138575355D01*
X116771806Y-138559134D01*
X116768000Y-138540000D01*
X116768000Y-137640000D01*
X116771806Y-137620866D01*
X116782645Y-137604645D01*
X116798866Y-137593806D01*
X116818000Y-137590000D01*
X118318000Y-137590000D01*
X118337134Y-137593806D01*
G37*
G36*
X135837134Y-137593806D02*
G01*
X135853355Y-137604645D01*
X135864194Y-137620866D01*
X135868000Y-137640000D01*
X135868000Y-138540000D01*
X135864194Y-138559134D01*
X135853355Y-138575355D01*
X135837134Y-138586194D01*
X135818000Y-138590000D01*
X134318000Y-138590000D01*
X134298866Y-138586194D01*
X134282645Y-138575355D01*
X134271806Y-138559134D01*
X134268000Y-138540000D01*
X134268000Y-137640000D01*
X134271806Y-137620866D01*
X134282645Y-137604645D01*
X134298866Y-137593806D01*
X134318000Y-137590000D01*
X135818000Y-137590000D01*
X135837134Y-137593806D01*
G37*
G36*
X123887134Y-137563806D02*
G01*
X123903355Y-137574645D01*
X123914194Y-137590866D01*
X123918000Y-137610000D01*
X123918000Y-138510000D01*
X123914194Y-138529134D01*
X123903355Y-138545355D01*
X123887134Y-138556194D01*
X123868000Y-138560000D01*
X122968000Y-138560000D01*
X122948866Y-138556194D01*
X122932645Y-138545355D01*
X122921806Y-138529134D01*
X122918000Y-138510000D01*
X122918000Y-137610000D01*
X122921806Y-137590866D01*
X122932645Y-137574645D01*
X122948866Y-137563806D01*
X122968000Y-137560000D01*
X123868000Y-137560000D01*
X123887134Y-137563806D01*
G37*
G36*
X125287134Y-137563806D02*
G01*
X125303355Y-137574645D01*
X125314194Y-137590866D01*
X125318000Y-137610000D01*
X125318000Y-138510000D01*
X125314194Y-138529134D01*
X125303355Y-138545355D01*
X125287134Y-138556194D01*
X125268000Y-138560000D01*
X124368000Y-138560000D01*
X124348866Y-138556194D01*
X124332645Y-138545355D01*
X124321806Y-138529134D01*
X124318000Y-138510000D01*
X124318000Y-137610000D01*
X124321806Y-137590866D01*
X124332645Y-137574645D01*
X124348866Y-137563806D01*
X124368000Y-137560000D01*
X125268000Y-137560000D01*
X125287134Y-137563806D01*
G37*
G36*
X126687134Y-137563806D02*
G01*
X126703355Y-137574645D01*
X126714194Y-137590866D01*
X126718000Y-137610000D01*
X126718000Y-138510000D01*
X126714194Y-138529134D01*
X126703355Y-138545355D01*
X126687134Y-138556194D01*
X126668000Y-138560000D01*
X125768000Y-138560000D01*
X125748866Y-138556194D01*
X125732645Y-138545355D01*
X125721806Y-138529134D01*
X125718000Y-138510000D01*
X125718000Y-137610000D01*
X125721806Y-137590866D01*
X125732645Y-137574645D01*
X125748866Y-137563806D01*
X125768000Y-137560000D01*
X126668000Y-137560000D01*
X126687134Y-137563806D01*
G37*
G36*
X107939789Y-136886705D02*
G01*
X108078476Y-136923866D01*
X108202819Y-136995656D01*
X108304344Y-137097181D01*
X108376134Y-137221524D01*
X108413295Y-137360211D01*
X108413295Y-137503789D01*
X108376134Y-137642476D01*
X108304344Y-137766819D01*
X108202819Y-137868344D01*
X108078476Y-137940134D01*
X107939789Y-137977295D01*
X107868000Y-137982000D01*
X107866363Y-137982000D01*
X107269637Y-137982000D01*
X107268000Y-137982000D01*
X107196211Y-137977295D01*
X107057524Y-137940134D01*
X106933181Y-137868344D01*
X106831656Y-137766819D01*
X106759866Y-137642476D01*
X106722705Y-137503789D01*
X106722705Y-137360211D01*
X106759866Y-137221524D01*
X106831656Y-137097181D01*
X106933181Y-136995656D01*
X107057524Y-136923866D01*
X107196211Y-136886705D01*
X107268000Y-136882000D01*
X107868000Y-136882000D01*
X107939789Y-136886705D01*
G37*
G36*
X112369789Y-136886705D02*
G01*
X112508476Y-136923866D01*
X112632819Y-136995656D01*
X112734344Y-137097181D01*
X112806134Y-137221524D01*
X112843295Y-137360211D01*
X112843295Y-137503789D01*
X112806134Y-137642476D01*
X112734344Y-137766819D01*
X112632819Y-137868344D01*
X112508476Y-137940134D01*
X112369789Y-137977295D01*
X112298000Y-137982000D01*
X112296363Y-137982000D01*
X111199637Y-137982000D01*
X111198000Y-137982000D01*
X111126211Y-137977295D01*
X110987524Y-137940134D01*
X110863181Y-137868344D01*
X110761656Y-137766819D01*
X110689866Y-137642476D01*
X110652705Y-137503789D01*
X110652705Y-137360211D01*
X110689866Y-137221524D01*
X110761656Y-137097181D01*
X110863181Y-136995656D01*
X110987524Y-136923866D01*
X111126211Y-136886705D01*
X111198000Y-136882000D01*
X112298000Y-136882000D01*
X112369789Y-136886705D01*
G37*
G36*
X118337134Y-136323806D02*
G01*
X118353355Y-136334645D01*
X118364194Y-136350866D01*
X118368000Y-136370000D01*
X118368000Y-137270000D01*
X118364194Y-137289134D01*
X118353355Y-137305355D01*
X118337134Y-137316194D01*
X118318000Y-137320000D01*
X116818000Y-137320000D01*
X116798866Y-137316194D01*
X116782645Y-137305355D01*
X116771806Y-137289134D01*
X116768000Y-137270000D01*
X116768000Y-136370000D01*
X116771806Y-136350866D01*
X116782645Y-136334645D01*
X116798866Y-136323806D01*
X116818000Y-136320000D01*
X118318000Y-136320000D01*
X118337134Y-136323806D01*
G37*
G36*
X135837134Y-136323806D02*
G01*
X135853355Y-136334645D01*
X135864194Y-136350866D01*
X135868000Y-136370000D01*
X135868000Y-137270000D01*
X135864194Y-137289134D01*
X135853355Y-137305355D01*
X135837134Y-137316194D01*
X135818000Y-137320000D01*
X134318000Y-137320000D01*
X134298866Y-137316194D01*
X134282645Y-137305355D01*
X134271806Y-137289134D01*
X134268000Y-137270000D01*
X134268000Y-136370000D01*
X134271806Y-136350866D01*
X134282645Y-136334645D01*
X134298866Y-136323806D01*
X134318000Y-136320000D01*
X135818000Y-136320000D01*
X135837134Y-136323806D01*
G37*
G36*
X113593323Y-135512637D02*
G01*
X113598033Y-135514716D01*
X113600694Y-135515067D01*
X113633978Y-135530587D01*
X113689977Y-135555313D01*
X113764687Y-135630023D01*
X113789416Y-135686031D01*
X113804932Y-135719304D01*
X113805282Y-135721964D01*
X113807363Y-135726677D01*
X113815000Y-135792500D01*
X113815000Y-136292500D01*
X113807363Y-136358323D01*
X113805281Y-136363036D01*
X113804932Y-136365694D01*
X113789430Y-136398937D01*
X113764687Y-136454977D01*
X113689977Y-136529687D01*
X113633949Y-136554424D01*
X113600695Y-136569932D01*
X113598036Y-136570282D01*
X113593323Y-136572363D01*
X113527500Y-136580000D01*
X113052500Y-136580000D01*
X112986677Y-136572363D01*
X112981964Y-136570282D01*
X112979305Y-136569932D01*
X112946043Y-136554421D01*
X112890023Y-136529687D01*
X112815313Y-136454977D01*
X112790592Y-136398990D01*
X112775067Y-136365695D01*
X112774716Y-136363032D01*
X112772637Y-136358323D01*
X112765000Y-136292500D01*
X112765000Y-135792500D01*
X112772637Y-135726677D01*
X112774716Y-135721967D01*
X112775067Y-135719305D01*
X112790595Y-135686002D01*
X112815313Y-135630023D01*
X112890023Y-135555313D01*
X112945990Y-135530601D01*
X112979304Y-135515067D01*
X112981967Y-135514716D01*
X112986677Y-135512637D01*
X113052500Y-135505000D01*
X113527500Y-135505000D01*
X113593323Y-135512637D01*
G37*
G36*
X118337134Y-135053806D02*
G01*
X118353355Y-135064645D01*
X118364194Y-135080866D01*
X118368000Y-135100000D01*
X118368000Y-136000000D01*
X118364194Y-136019134D01*
X118353355Y-136035355D01*
X118337134Y-136046194D01*
X118318000Y-136050000D01*
X116818000Y-136050000D01*
X116798866Y-136046194D01*
X116782645Y-136035355D01*
X116771806Y-136019134D01*
X116768000Y-136000000D01*
X116768000Y-135100000D01*
X116771806Y-135080866D01*
X116782645Y-135064645D01*
X116798866Y-135053806D01*
X116818000Y-135050000D01*
X118318000Y-135050000D01*
X118337134Y-135053806D01*
G37*
G36*
X135837134Y-135053806D02*
G01*
X135853355Y-135064645D01*
X135864194Y-135080866D01*
X135868000Y-135100000D01*
X135868000Y-136000000D01*
X135864194Y-136019134D01*
X135853355Y-136035355D01*
X135837134Y-136046194D01*
X135818000Y-136050000D01*
X134318000Y-136050000D01*
X134298866Y-136046194D01*
X134282645Y-136035355D01*
X134271806Y-136019134D01*
X134268000Y-136000000D01*
X134268000Y-135100000D01*
X134271806Y-135080866D01*
X134282645Y-135064645D01*
X134298866Y-135053806D01*
X134318000Y-135050000D01*
X135818000Y-135050000D01*
X135837134Y-135053806D01*
G37*
G36*
X108259134Y-134213806D02*
G01*
X108275355Y-134224645D01*
X108286194Y-134240866D01*
X108290000Y-134260000D01*
X108290000Y-135960000D01*
X108286194Y-135979134D01*
X108275355Y-135995355D01*
X108259134Y-136006194D01*
X108240000Y-136010000D01*
X107340000Y-136010000D01*
X107320866Y-136006194D01*
X107304645Y-135995355D01*
X107293806Y-135979134D01*
X107290000Y-135960000D01*
X107290000Y-134260000D01*
X107293806Y-134240866D01*
X107304645Y-134224645D01*
X107320866Y-134213806D01*
X107340000Y-134210000D01*
X108240000Y-134210000D01*
X108259134Y-134213806D01*
G37*
G36*
X111659134Y-134213806D02*
G01*
X111675355Y-134224645D01*
X111686194Y-134240866D01*
X111690000Y-134260000D01*
X111690000Y-135960000D01*
X111686194Y-135979134D01*
X111675355Y-135995355D01*
X111659134Y-136006194D01*
X111640000Y-136010000D01*
X110740000Y-136010000D01*
X110720866Y-136006194D01*
X110704645Y-135995355D01*
X110693806Y-135979134D01*
X110690000Y-135960000D01*
X110690000Y-134260000D01*
X110693806Y-134240866D01*
X110704645Y-134224645D01*
X110720866Y-134213806D01*
X110740000Y-134210000D01*
X111640000Y-134210000D01*
X111659134Y-134213806D01*
G37*
G36*
X140500685Y-133739969D02*
G01*
X140509358Y-133743798D01*
X140516925Y-133744901D01*
X140564223Y-133768023D01*
X140601541Y-133784501D01*
X140604996Y-133787956D01*
X140605920Y-133788408D01*
X140675591Y-133858079D01*
X140676042Y-133859002D01*
X140679499Y-133862459D01*
X140695978Y-133899782D01*
X140719098Y-133947073D01*
X140720200Y-133954639D01*
X140724031Y-133963315D01*
X140732000Y-134032000D01*
X140732000Y-135056000D01*
X140724031Y-135124685D01*
X140720199Y-135133361D01*
X140719098Y-135140925D01*
X140695985Y-135188202D01*
X140679499Y-135225541D01*
X140676041Y-135228998D01*
X140675591Y-135229920D01*
X140605920Y-135299591D01*
X140604998Y-135300041D01*
X140601541Y-135303499D01*
X140564207Y-135319983D01*
X140516926Y-135343098D01*
X140509361Y-135344200D01*
X140500685Y-135348031D01*
X140432000Y-135356000D01*
X139408000Y-135356000D01*
X139339315Y-135348031D01*
X139330638Y-135344200D01*
X139323074Y-135343098D01*
X139275787Y-135319981D01*
X139238459Y-135303499D01*
X139235002Y-135300042D01*
X139234079Y-135299591D01*
X139164408Y-135229920D01*
X139163956Y-135228996D01*
X139160501Y-135225541D01*
X139144025Y-135188228D01*
X139120901Y-135140926D01*
X139119798Y-135133357D01*
X139115969Y-135124685D01*
X139108000Y-135056000D01*
X139108000Y-134032000D01*
X139115969Y-133963315D01*
X139119798Y-133954642D01*
X139120901Y-133947074D01*
X139144028Y-133899766D01*
X139160501Y-133862459D01*
X139163955Y-133859004D01*
X139164408Y-133858079D01*
X139234079Y-133788408D01*
X139235004Y-133787955D01*
X139238459Y-133784501D01*
X139275761Y-133768030D01*
X139323073Y-133744901D01*
X139330642Y-133743798D01*
X139339315Y-133739969D01*
X139408000Y-133732000D01*
X140432000Y-133732000D01*
X140500685Y-133739969D01*
G37*
G36*
X137655711Y-133766964D02*
G01*
X137802774Y-133827880D01*
X137935127Y-133916316D01*
X138047684Y-134028873D01*
X138136120Y-134161226D01*
X138197036Y-134308289D01*
X138228090Y-134464410D01*
X138228090Y-134623590D01*
X138197036Y-134779711D01*
X138136120Y-134926774D01*
X138047684Y-135059127D01*
X137935127Y-135171684D01*
X137802774Y-135260120D01*
X137655711Y-135321036D01*
X137499590Y-135352090D01*
X137340410Y-135352090D01*
X137184289Y-135321036D01*
X137037226Y-135260120D01*
X136904873Y-135171684D01*
X136792316Y-135059127D01*
X136703880Y-134926774D01*
X136642964Y-134779711D01*
X136611910Y-134623590D01*
X136611910Y-134464410D01*
X136642964Y-134308289D01*
X136703880Y-134161226D01*
X136792316Y-134028873D01*
X136904873Y-133916316D01*
X137037226Y-133827880D01*
X137184289Y-133766964D01*
X137340410Y-133735910D01*
X137499590Y-133735910D01*
X137655711Y-133766964D01*
G37*
G36*
X118337134Y-133783806D02*
G01*
X118353355Y-133794645D01*
X118364194Y-133810866D01*
X118368000Y-133830000D01*
X118368000Y-134730000D01*
X118364194Y-134749134D01*
X118353355Y-134765355D01*
X118337134Y-134776194D01*
X118318000Y-134780000D01*
X116818000Y-134780000D01*
X116798866Y-134776194D01*
X116782645Y-134765355D01*
X116771806Y-134749134D01*
X116768000Y-134730000D01*
X116768000Y-133830000D01*
X116771806Y-133810866D01*
X116782645Y-133794645D01*
X116798866Y-133783806D01*
X116818000Y-133780000D01*
X118318000Y-133780000D01*
X118337134Y-133783806D01*
G37*
G36*
X135837134Y-133783806D02*
G01*
X135853355Y-133794645D01*
X135864194Y-133810866D01*
X135868000Y-133830000D01*
X135868000Y-134730000D01*
X135864194Y-134749134D01*
X135853355Y-134765355D01*
X135837134Y-134776194D01*
X135818000Y-134780000D01*
X134318000Y-134780000D01*
X134298866Y-134776194D01*
X134282645Y-134765355D01*
X134271806Y-134749134D01*
X134268000Y-134730000D01*
X134268000Y-133830000D01*
X134271806Y-133810866D01*
X134282645Y-133794645D01*
X134298866Y-133783806D01*
X134318000Y-133780000D01*
X135818000Y-133780000D01*
X135837134Y-133783806D01*
G37*
G36*
X113593323Y-133687637D02*
G01*
X113598033Y-133689716D01*
X113600694Y-133690067D01*
X113633978Y-133705587D01*
X113689977Y-133730313D01*
X113764687Y-133805023D01*
X113789416Y-133861031D01*
X113804932Y-133894304D01*
X113805282Y-133896964D01*
X113807363Y-133901677D01*
X113815000Y-133967500D01*
X113815000Y-134467500D01*
X113807363Y-134533323D01*
X113805281Y-134538036D01*
X113804932Y-134540694D01*
X113789430Y-134573937D01*
X113764687Y-134629977D01*
X113689977Y-134704687D01*
X113633949Y-134729424D01*
X113600695Y-134744932D01*
X113598036Y-134745282D01*
X113593323Y-134747363D01*
X113527500Y-134755000D01*
X113052500Y-134755000D01*
X112986677Y-134747363D01*
X112981964Y-134745282D01*
X112979305Y-134744932D01*
X112946043Y-134729421D01*
X112890023Y-134704687D01*
X112815313Y-134629977D01*
X112790592Y-134573990D01*
X112775067Y-134540695D01*
X112774716Y-134538032D01*
X112772637Y-134533323D01*
X112765000Y-134467500D01*
X112765000Y-133967500D01*
X112772637Y-133901677D01*
X112774716Y-133896967D01*
X112775067Y-133894305D01*
X112790595Y-133861002D01*
X112815313Y-133805023D01*
X112890023Y-133730313D01*
X112945990Y-133705601D01*
X112979304Y-133690067D01*
X112981967Y-133689716D01*
X112986677Y-133687637D01*
X113052500Y-133680000D01*
X113527500Y-133680000D01*
X113593323Y-133687637D01*
G37*
G36*
X116083323Y-132662637D02*
G01*
X116088033Y-132664716D01*
X116090694Y-132665067D01*
X116123978Y-132680587D01*
X116179977Y-132705313D01*
X116254687Y-132780023D01*
X116279416Y-132836031D01*
X116294932Y-132869304D01*
X116295282Y-132871964D01*
X116297363Y-132876677D01*
X116305000Y-132942500D01*
X116305000Y-133542500D01*
X116297363Y-133608323D01*
X116295281Y-133613036D01*
X116294932Y-133615694D01*
X116279430Y-133648937D01*
X116254687Y-133704977D01*
X116179977Y-133779687D01*
X116123949Y-133804424D01*
X116090695Y-133819932D01*
X116088036Y-133820282D01*
X116083323Y-133822363D01*
X116017500Y-133830000D01*
X115542500Y-133830000D01*
X115476677Y-133822363D01*
X115471964Y-133820282D01*
X115469305Y-133819932D01*
X115436043Y-133804421D01*
X115380023Y-133779687D01*
X115305313Y-133704977D01*
X115280592Y-133648990D01*
X115265067Y-133615695D01*
X115264716Y-133613032D01*
X115262637Y-133608323D01*
X115255000Y-133542500D01*
X115255000Y-132942500D01*
X115262637Y-132876677D01*
X115264716Y-132871967D01*
X115265067Y-132869305D01*
X115280595Y-132836002D01*
X115305313Y-132780023D01*
X115380023Y-132705313D01*
X115435990Y-132680601D01*
X115469304Y-132665067D01*
X115471967Y-132664716D01*
X115476677Y-132662637D01*
X115542500Y-132655000D01*
X116017500Y-132655000D01*
X116083323Y-132662637D01*
G37*
G36*
X118337134Y-132513806D02*
G01*
X118353355Y-132524645D01*
X118364194Y-132540866D01*
X118368000Y-132560000D01*
X118368000Y-133460000D01*
X118364194Y-133479134D01*
X118353355Y-133495355D01*
X118337134Y-133506194D01*
X118318000Y-133510000D01*
X116818000Y-133510000D01*
X116798866Y-133506194D01*
X116782645Y-133495355D01*
X116771806Y-133479134D01*
X116768000Y-133460000D01*
X116768000Y-132560000D01*
X116771806Y-132540866D01*
X116782645Y-132524645D01*
X116798866Y-132513806D01*
X116818000Y-132510000D01*
X118318000Y-132510000D01*
X118337134Y-132513806D01*
G37*
G36*
X135837134Y-132513806D02*
G01*
X135853355Y-132524645D01*
X135864194Y-132540866D01*
X135868000Y-132560000D01*
X135868000Y-133460000D01*
X135864194Y-133479134D01*
X135853355Y-133495355D01*
X135837134Y-133506194D01*
X135818000Y-133510000D01*
X134318000Y-133510000D01*
X134298866Y-133506194D01*
X134282645Y-133495355D01*
X134271806Y-133479134D01*
X134268000Y-133460000D01*
X134268000Y-132560000D01*
X134271806Y-132540866D01*
X134282645Y-132524645D01*
X134298866Y-132513806D01*
X134318000Y-132510000D01*
X135818000Y-132510000D01*
X135837134Y-132513806D01*
G37*
G36*
X110068685Y-130457969D02*
G01*
X110077358Y-130461798D01*
X110084925Y-130462901D01*
X110132223Y-130486023D01*
X110169541Y-130502501D01*
X110172996Y-130505956D01*
X110173920Y-130506408D01*
X110243591Y-130576079D01*
X110244042Y-130577002D01*
X110247499Y-130580459D01*
X110263978Y-130617782D01*
X110287098Y-130665073D01*
X110288200Y-130672639D01*
X110292031Y-130681315D01*
X110300000Y-130750000D01*
X110300000Y-132950000D01*
X110292031Y-133018685D01*
X110288199Y-133027361D01*
X110287098Y-133034925D01*
X110263985Y-133082202D01*
X110247499Y-133119541D01*
X110244041Y-133122998D01*
X110243591Y-133123920D01*
X110173920Y-133193591D01*
X110172998Y-133194041D01*
X110169541Y-133197499D01*
X110132207Y-133213983D01*
X110084926Y-133237098D01*
X110077361Y-133238200D01*
X110068685Y-133242031D01*
X110000000Y-133250000D01*
X109175000Y-133250000D01*
X109106315Y-133242031D01*
X109097638Y-133238200D01*
X109090074Y-133237098D01*
X109042787Y-133213981D01*
X109005459Y-133197499D01*
X109002002Y-133194042D01*
X109001079Y-133193591D01*
X108931408Y-133123920D01*
X108930956Y-133122996D01*
X108927501Y-133119541D01*
X108911025Y-133082228D01*
X108887901Y-133034926D01*
X108886798Y-133027357D01*
X108882969Y-133018685D01*
X108875000Y-132950000D01*
X108875000Y-130750000D01*
X108882969Y-130681315D01*
X108886798Y-130672642D01*
X108887901Y-130665074D01*
X108911028Y-130617766D01*
X108927501Y-130580459D01*
X108930955Y-130577004D01*
X108931408Y-130576079D01*
X109001079Y-130506408D01*
X109002004Y-130505955D01*
X109005459Y-130502501D01*
X109042761Y-130486030D01*
X109090073Y-130462901D01*
X109097642Y-130461798D01*
X109106315Y-130457969D01*
X109175000Y-130450000D01*
X110000000Y-130450000D01*
X110068685Y-130457969D01*
G37*
G36*
X113193685Y-130457969D02*
G01*
X113202358Y-130461798D01*
X113209925Y-130462901D01*
X113257223Y-130486023D01*
X113294541Y-130502501D01*
X113297996Y-130505956D01*
X113298920Y-130506408D01*
X113368591Y-130576079D01*
X113369042Y-130577002D01*
X113372499Y-130580459D01*
X113388978Y-130617782D01*
X113412098Y-130665073D01*
X113413200Y-130672639D01*
X113417031Y-130681315D01*
X113425000Y-130750000D01*
X113425000Y-132950000D01*
X113417031Y-133018685D01*
X113413199Y-133027361D01*
X113412098Y-133034925D01*
X113388985Y-133082202D01*
X113372499Y-133119541D01*
X113369041Y-133122998D01*
X113368591Y-133123920D01*
X113298920Y-133193591D01*
X113297998Y-133194041D01*
X113294541Y-133197499D01*
X113257207Y-133213983D01*
X113209926Y-133237098D01*
X113202361Y-133238200D01*
X113193685Y-133242031D01*
X113125000Y-133250000D01*
X112300000Y-133250000D01*
X112231315Y-133242031D01*
X112222638Y-133238200D01*
X112215074Y-133237098D01*
X112167787Y-133213981D01*
X112130459Y-133197499D01*
X112127002Y-133194042D01*
X112126079Y-133193591D01*
X112056408Y-133123920D01*
X112055956Y-133122996D01*
X112052501Y-133119541D01*
X112036025Y-133082228D01*
X112012901Y-133034926D01*
X112011798Y-133027357D01*
X112007969Y-133018685D01*
X112000000Y-132950000D01*
X112000000Y-130750000D01*
X112007969Y-130681315D01*
X112011798Y-130672642D01*
X112012901Y-130665074D01*
X112036028Y-130617766D01*
X112052501Y-130580459D01*
X112055955Y-130577004D01*
X112056408Y-130576079D01*
X112126079Y-130506408D01*
X112127004Y-130505955D01*
X112130459Y-130502501D01*
X112167761Y-130486030D01*
X112215073Y-130462901D01*
X112222642Y-130461798D01*
X112231315Y-130457969D01*
X112300000Y-130450000D01*
X113125000Y-130450000D01*
X113193685Y-130457969D01*
G37*
G36*
X140155711Y-131266964D02*
G01*
X140302774Y-131327880D01*
X140435127Y-131416316D01*
X140547684Y-131528873D01*
X140636120Y-131661226D01*
X140697036Y-131808289D01*
X140728090Y-131964410D01*
X140728090Y-132123590D01*
X140697036Y-132279711D01*
X140636120Y-132426774D01*
X140547684Y-132559127D01*
X140435127Y-132671684D01*
X140302774Y-132760120D01*
X140155711Y-132821036D01*
X139999590Y-132852090D01*
X139840410Y-132852090D01*
X139684289Y-132821036D01*
X139537226Y-132760120D01*
X139404873Y-132671684D01*
X139292316Y-132559127D01*
X139203880Y-132426774D01*
X139142964Y-132279711D01*
X139111910Y-132123590D01*
X139111910Y-131964410D01*
X139142964Y-131808289D01*
X139203880Y-131661226D01*
X139292316Y-131528873D01*
X139404873Y-131416316D01*
X139537226Y-131327880D01*
X139684289Y-131266964D01*
X139840410Y-131235910D01*
X139999590Y-131235910D01*
X140155711Y-131266964D01*
G37*
G36*
X118337134Y-131243806D02*
G01*
X118353355Y-131254645D01*
X118364194Y-131270866D01*
X118368000Y-131290000D01*
X118368000Y-132190000D01*
X118364194Y-132209134D01*
X118353355Y-132225355D01*
X118337134Y-132236194D01*
X118318000Y-132240000D01*
X116818000Y-132240000D01*
X116798866Y-132236194D01*
X116782645Y-132225355D01*
X116771806Y-132209134D01*
X116768000Y-132190000D01*
X116768000Y-131290000D01*
X116771806Y-131270866D01*
X116782645Y-131254645D01*
X116798866Y-131243806D01*
X116818000Y-131240000D01*
X118318000Y-131240000D01*
X118337134Y-131243806D01*
G37*
G36*
X135837134Y-131243806D02*
G01*
X135853355Y-131254645D01*
X135864194Y-131270866D01*
X135868000Y-131290000D01*
X135868000Y-132190000D01*
X135864194Y-132209134D01*
X135853355Y-132225355D01*
X135837134Y-132236194D01*
X135818000Y-132240000D01*
X134318000Y-132240000D01*
X134298866Y-132236194D01*
X134282645Y-132225355D01*
X134271806Y-132209134D01*
X134268000Y-132190000D01*
X134268000Y-131290000D01*
X134271806Y-131270866D01*
X134282645Y-131254645D01*
X134298866Y-131243806D01*
X134318000Y-131240000D01*
X135818000Y-131240000D01*
X135837134Y-131243806D01*
G37*
G36*
X116083323Y-130937637D02*
G01*
X116088033Y-130939716D01*
X116090694Y-130940067D01*
X116123978Y-130955587D01*
X116179977Y-130980313D01*
X116254687Y-131055023D01*
X116279416Y-131111031D01*
X116294932Y-131144304D01*
X116295282Y-131146964D01*
X116297363Y-131151677D01*
X116305000Y-131217500D01*
X116305000Y-131817500D01*
X116297363Y-131883323D01*
X116295281Y-131888036D01*
X116294932Y-131890694D01*
X116279430Y-131923937D01*
X116254687Y-131979977D01*
X116179977Y-132054687D01*
X116123949Y-132079424D01*
X116090695Y-132094932D01*
X116088036Y-132095282D01*
X116083323Y-132097363D01*
X116017500Y-132105000D01*
X115542500Y-132105000D01*
X115476677Y-132097363D01*
X115471964Y-132095282D01*
X115469305Y-132094932D01*
X115436043Y-132079421D01*
X115380023Y-132054687D01*
X115305313Y-131979977D01*
X115280592Y-131923990D01*
X115265067Y-131890695D01*
X115264716Y-131888032D01*
X115262637Y-131883323D01*
X115255000Y-131817500D01*
X115255000Y-131217500D01*
X115262637Y-131151677D01*
X115264716Y-131146967D01*
X115265067Y-131144305D01*
X115280595Y-131111002D01*
X115305313Y-131055023D01*
X115380023Y-130980313D01*
X115435990Y-130955601D01*
X115469304Y-130940067D01*
X115471967Y-130939716D01*
X115476677Y-130937637D01*
X115542500Y-130930000D01*
X116017500Y-130930000D01*
X116083323Y-130937637D01*
G37*
G36*
X137655711Y-128766964D02*
G01*
X137802774Y-128827880D01*
X137935127Y-128916316D01*
X138047684Y-129028873D01*
X138136120Y-129161226D01*
X138197036Y-129308289D01*
X138228090Y-129464410D01*
X138228090Y-129623590D01*
X138197036Y-129779711D01*
X138136120Y-129926774D01*
X138047684Y-130059127D01*
X137935127Y-130171684D01*
X137802774Y-130260120D01*
X137655711Y-130321036D01*
X137499590Y-130352090D01*
X137340410Y-130352090D01*
X137184289Y-130321036D01*
X137037226Y-130260120D01*
X136904873Y-130171684D01*
X136792316Y-130059127D01*
X136703880Y-129926774D01*
X136642964Y-129779711D01*
X136611910Y-129623590D01*
X136611910Y-129464410D01*
X136642964Y-129308289D01*
X136703880Y-129161226D01*
X136792316Y-129028873D01*
X136904873Y-128916316D01*
X137037226Y-128827880D01*
X137184289Y-128766964D01*
X137340410Y-128735910D01*
X137499590Y-128735910D01*
X137655711Y-128766964D01*
G37*
G36*
X140155711Y-128766964D02*
G01*
X140302774Y-128827880D01*
X140435127Y-128916316D01*
X140547684Y-129028873D01*
X140636120Y-129161226D01*
X140697036Y-129308289D01*
X140728090Y-129464410D01*
X140728090Y-129623590D01*
X140697036Y-129779711D01*
X140636120Y-129926774D01*
X140547684Y-130059127D01*
X140435127Y-130171684D01*
X140302774Y-130260120D01*
X140155711Y-130321036D01*
X139999590Y-130352090D01*
X139840410Y-130352090D01*
X139684289Y-130321036D01*
X139537226Y-130260120D01*
X139404873Y-130171684D01*
X139292316Y-130059127D01*
X139203880Y-129926774D01*
X139142964Y-129779711D01*
X139111910Y-129623590D01*
X139111910Y-129464410D01*
X139142964Y-129308289D01*
X139203880Y-129161226D01*
X139292316Y-129028873D01*
X139404873Y-128916316D01*
X139537226Y-128827880D01*
X139684289Y-128766964D01*
X139840410Y-128735910D01*
X139999590Y-128735910D01*
X140155711Y-128766964D01*
G37*
G36*
X108288894Y-125279086D02*
G01*
X108299458Y-125279086D01*
X108351477Y-125287325D01*
X108491877Y-125305809D01*
X108526138Y-125314989D01*
X108555185Y-125319590D01*
X108611045Y-125337740D01*
X108700338Y-125361666D01*
X108757309Y-125385264D01*
X108801428Y-125399599D01*
X108842755Y-125420656D01*
X108899733Y-125444257D01*
X108979803Y-125490485D01*
X109032123Y-125517144D01*
X109055909Y-125534425D01*
X109086624Y-125552159D01*
X109198975Y-125638369D01*
X109241589Y-125669330D01*
X109249058Y-125676799D01*
X109257848Y-125683544D01*
X109410455Y-125836151D01*
X109417199Y-125844940D01*
X109424670Y-125852411D01*
X109455634Y-125895030D01*
X109541840Y-126007375D01*
X109559572Y-126038087D01*
X109576856Y-126061877D01*
X109603517Y-126114203D01*
X109649742Y-126194266D01*
X109673340Y-126251237D01*
X109694401Y-126292572D01*
X109708738Y-126336696D01*
X109732333Y-126393661D01*
X109756255Y-126482941D01*
X109774410Y-126538815D01*
X109779011Y-126567867D01*
X109788190Y-126602122D01*
X109806673Y-126742514D01*
X109814914Y-126794542D01*
X109814914Y-126805105D01*
X109816360Y-126816089D01*
X109816360Y-127031910D01*
X109814914Y-127042893D01*
X109814914Y-127053458D01*
X109806672Y-127105490D01*
X109788190Y-127245877D01*
X109779011Y-127280129D01*
X109774410Y-127309185D01*
X109756254Y-127365063D01*
X109732333Y-127454338D01*
X109708739Y-127511298D01*
X109694401Y-127555428D01*
X109673337Y-127596766D01*
X109649742Y-127653733D01*
X109603521Y-127733788D01*
X109576856Y-127786123D01*
X109559569Y-127809916D01*
X109541840Y-127840624D01*
X109455648Y-127952950D01*
X109424670Y-127995589D01*
X109417195Y-128003063D01*
X109410455Y-128011848D01*
X109257848Y-128164455D01*
X109249063Y-128171195D01*
X109241589Y-128178670D01*
X109198950Y-128209648D01*
X109086624Y-128295840D01*
X109055916Y-128313569D01*
X109032123Y-128330856D01*
X108979788Y-128357521D01*
X108899733Y-128403742D01*
X108842766Y-128427337D01*
X108801428Y-128448401D01*
X108757298Y-128462739D01*
X108700338Y-128486333D01*
X108611063Y-128510254D01*
X108555185Y-128528410D01*
X108526129Y-128533011D01*
X108491877Y-128542190D01*
X108351490Y-128560672D01*
X108299458Y-128568914D01*
X108288893Y-128568914D01*
X108277910Y-128570360D01*
X108062090Y-128570360D01*
X108051107Y-128568914D01*
X108040542Y-128568914D01*
X107988511Y-128560672D01*
X107848122Y-128542190D01*
X107813867Y-128533011D01*
X107784815Y-128528410D01*
X107728941Y-128510255D01*
X107639661Y-128486333D01*
X107582696Y-128462738D01*
X107538572Y-128448401D01*
X107497237Y-128427340D01*
X107440266Y-128403742D01*
X107360203Y-128357517D01*
X107307877Y-128330856D01*
X107284087Y-128313572D01*
X107253375Y-128295840D01*
X107141030Y-128209634D01*
X107098411Y-128178670D01*
X107090940Y-128171199D01*
X107082151Y-128164455D01*
X106929544Y-128011848D01*
X106922799Y-128003058D01*
X106915330Y-127995589D01*
X106884369Y-127952975D01*
X106798159Y-127840624D01*
X106780425Y-127809909D01*
X106763144Y-127786123D01*
X106736485Y-127733803D01*
X106690257Y-127653733D01*
X106666656Y-127596755D01*
X106645599Y-127555428D01*
X106631264Y-127511309D01*
X106607666Y-127454338D01*
X106583740Y-127365045D01*
X106565590Y-127309185D01*
X106560989Y-127280138D01*
X106551809Y-127245877D01*
X106533325Y-127105477D01*
X106525086Y-127053458D01*
X106525086Y-127042893D01*
X106523640Y-127031910D01*
X106523640Y-126816089D01*
X106525086Y-126805105D01*
X106525086Y-126794542D01*
X106533324Y-126742527D01*
X106551809Y-126602122D01*
X106560989Y-126567858D01*
X106565590Y-126538815D01*
X106583738Y-126482959D01*
X106607666Y-126393661D01*
X106631265Y-126336685D01*
X106645599Y-126292572D01*
X106666654Y-126251248D01*
X106690257Y-126194266D01*
X106736489Y-126114188D01*
X106763144Y-126061877D01*
X106780423Y-126038094D01*
X106798159Y-126007375D01*
X106884383Y-125895005D01*
X106915330Y-125852411D01*
X106922796Y-125844944D01*
X106929544Y-125836151D01*
X107082151Y-125683544D01*
X107090944Y-125676796D01*
X107098411Y-125669330D01*
X107141005Y-125638383D01*
X107253375Y-125552159D01*
X107284094Y-125534423D01*
X107307877Y-125517144D01*
X107360188Y-125490489D01*
X107440266Y-125444257D01*
X107497248Y-125420654D01*
X107538572Y-125399599D01*
X107582685Y-125385265D01*
X107639661Y-125361666D01*
X107728959Y-125337738D01*
X107784815Y-125319590D01*
X107813858Y-125314989D01*
X107848122Y-125305809D01*
X107988524Y-125287324D01*
X108040542Y-125279086D01*
X108051106Y-125279086D01*
X108062090Y-125277640D01*
X108277910Y-125277640D01*
X108288894Y-125279086D01*
G37*
G36*
X139967549Y-124314287D02*
G01*
X140068587Y-124321138D01*
X140101917Y-124329427D01*
X140137454Y-124333431D01*
X140185203Y-124350139D01*
X140232153Y-124361815D01*
X140264695Y-124377954D01*
X140301260Y-124390749D01*
X140341595Y-124416093D01*
X140382231Y-124436247D01*
X140412886Y-124460888D01*
X140448205Y-124483081D01*
X140479800Y-124514676D01*
X140512798Y-124541201D01*
X140539322Y-124574198D01*
X140570919Y-124605795D01*
X140593112Y-124641114D01*
X140617752Y-124671768D01*
X140637903Y-124712400D01*
X140663251Y-124752740D01*
X140676046Y-124789308D01*
X140692184Y-124821846D01*
X140703858Y-124868789D01*
X140720569Y-124916546D01*
X140724573Y-124952087D01*
X140732861Y-124985412D01*
X140739710Y-125086429D01*
X140740000Y-125089000D01*
X140740000Y-126539000D01*
X140739710Y-126541571D01*
X140732861Y-126642587D01*
X140724573Y-126675910D01*
X140720569Y-126711454D01*
X140703857Y-126759213D01*
X140692184Y-126806153D01*
X140676047Y-126838688D01*
X140663251Y-126875260D01*
X140637901Y-126915603D01*
X140617752Y-126956231D01*
X140593114Y-126986880D01*
X140570919Y-127022205D01*
X140539318Y-127053805D01*
X140512798Y-127086798D01*
X140479805Y-127113318D01*
X140448205Y-127144919D01*
X140412880Y-127167114D01*
X140382231Y-127191752D01*
X140341603Y-127211901D01*
X140301260Y-127237251D01*
X140264688Y-127250047D01*
X140232153Y-127266184D01*
X140185213Y-127277857D01*
X140137454Y-127294569D01*
X140101910Y-127298573D01*
X140068587Y-127306861D01*
X139967571Y-127313710D01*
X139965000Y-127314000D01*
X138015000Y-127314000D01*
X138012429Y-127313710D01*
X137911412Y-127306861D01*
X137878087Y-127298573D01*
X137842546Y-127294569D01*
X137794789Y-127277858D01*
X137747846Y-127266184D01*
X137715308Y-127250046D01*
X137678740Y-127237251D01*
X137638400Y-127211903D01*
X137597768Y-127191752D01*
X137567114Y-127167112D01*
X137531795Y-127144919D01*
X137500198Y-127113322D01*
X137467201Y-127086798D01*
X137440676Y-127053800D01*
X137409081Y-127022205D01*
X137386888Y-126986886D01*
X137362247Y-126956231D01*
X137342093Y-126915595D01*
X137316749Y-126875260D01*
X137303954Y-126838695D01*
X137287815Y-126806153D01*
X137276139Y-126759203D01*
X137259431Y-126711454D01*
X137255427Y-126675917D01*
X137247138Y-126642587D01*
X137240287Y-126541549D01*
X137240000Y-126539000D01*
X137240000Y-125089000D01*
X137240287Y-125086452D01*
X137247138Y-124985412D01*
X137255427Y-124952080D01*
X137259431Y-124916546D01*
X137276138Y-124868799D01*
X137287815Y-124821846D01*
X137303955Y-124789301D01*
X137316749Y-124752740D01*
X137342091Y-124712407D01*
X137362247Y-124671768D01*
X137386891Y-124641109D01*
X137409081Y-124605795D01*
X137440672Y-124574203D01*
X137467201Y-124541201D01*
X137500203Y-124514672D01*
X137531795Y-124483081D01*
X137567109Y-124460891D01*
X137597768Y-124436247D01*
X137638407Y-124416091D01*
X137678740Y-124390749D01*
X137715301Y-124377955D01*
X137747846Y-124361815D01*
X137794799Y-124350138D01*
X137842546Y-124333431D01*
X137878080Y-124329427D01*
X137911412Y-124321138D01*
X138012452Y-124314287D01*
X138015000Y-124314000D01*
X139965000Y-124314000D01*
X139967549Y-124314287D01*
G37*
%LPD*%
M02*
