M48
; DRILL file {KiCad 9.0.7-9.0.7~ubuntu24.04.1} date 2026-02-19T10:10:53+0000
; FORMAT={-:-/ absolute / metric / decimal}
; #@! TF.CreationDate,2026-02-19T10:10:53+00:00
; #@! TF.GenerationSoftware,Kicad,Pcbnew,9.0.7-9.0.7~ubuntu24.04.1
; #@! TF.FileFunction,Plated,1,2,PTH
FMAT,2
METRIC
; #@! TA.AperFunction,Plated,PTH,ComponentDrill
T1C0.200
; #@! TA.AperFunction,Plated,PTH,ViaDrill
T2C0.400
; #@! TA.AperFunction,Plated,PTH,ComponentDrill
T3C0.400
; #@! TA.AperFunction,Plated,PTH,ViaDrill
T4C0.500
; #@! TA.AperFunction,Plated,PTH,ComponentDrill
T5C0.600
%
G90
G05
T1
X124.55Y-64.39
X124.55Y-65.79
X125.25Y-63.69
X125.25Y-65.09
X125.25Y-66.49
X125.925Y-64.39
X125.925Y-65.79
X126.65Y-63.69
X126.65Y-65.09
X126.65Y-66.49
X127.35Y-64.39
X127.35Y-65.79
T2
X107.675Y-88.21
X114.28Y-85.67
X114.36Y-90.22
X115.19Y-91.85
X115.9Y-89.34
X115.98Y-86.01
X117.485Y-85.09
X117.51Y-89.64
X118.91Y-96.11
X118.92Y-91.65
X119.13Y-85.64
X119.15Y-89.47
X124.1Y-93.01
X128.15Y-86.6
X132.96Y-93.45
X136.24Y-91.56
T3
X107.766Y-90.95
X108.63Y-90.544
X108.63Y-91.525
X109.58Y-90.95
T4
X105.63Y-95.1
X105.64Y-96.5
X105.68Y-97.95
X106.03Y-93.6
X106.88Y-98.9
X108.28Y-98.9
X108.63Y-96.0
X108.65Y-94.63
X108.65Y-97.42
X109.68Y-98.9
X111.23Y-98.9
X111.58Y-93.6
X111.63Y-96.3
X111.63Y-97.6
X111.68Y-94.95
X117.9Y-90.89
X130.95Y-94.0
X131.85Y-92.9
X133.3Y-97.04
X139.44Y-94.03
X139.47Y-92.3
X140.84Y-92.93
X146.51Y-84.85
X146.56Y-80.37
T5
G00X143.69Y-78.06
M15
G01X144.79Y-78.06
M16
G05
G00X143.69Y-86.7
M15
G01X144.79Y-86.7
M16
G05
G00X148.12Y-78.06
M15
G01X148.72Y-78.06
M16
G05
G00X148.12Y-86.7
M15
G01X148.72Y-86.7
M16
G05
M30
