M48
; DRILL file {KiCad 9.0.7-9.0.7~ubuntu24.04.1} date 2026-03-24T03:16:41+0000
; FORMAT={-:-/ absolute / metric / decimal}
; #@! TF.CreationDate,2026-03-24T03:16:41+00:00
; #@! TF.GenerationSoftware,Kicad,Pcbnew,9.0.7-9.0.7~ubuntu24.04.1
; #@! TF.FileFunction,Plated,1,4,PTH
FMAT,2
METRIC
; #@! TA.AperFunction,Plated,PTH,ViaDrill
T1C0.400
; #@! TA.AperFunction,Plated,PTH,ComponentDrill
T2C0.400
; #@! TA.AperFunction,Plated,PTH,ViaDrill
T3C0.450
; #@! TA.AperFunction,Plated,PTH,ViaDrill
T4C0.500
; #@! TA.AperFunction,Plated,PTH,ComponentDrill
T5C0.700
; #@! TA.AperFunction,Plated,PTH,ComponentDrill
T6C1.000
; #@! TA.AperFunction,Plated,PTH,ComponentDrill
T7C2.100
%
G90
G05
T1
X109.09Y-141.87
X110.53Y-152.38
X110.78Y-147.28
X111.726Y-152.578
X113.72Y-154.53
X114.367Y-133.56
X114.38Y-131.45
X114.61Y-155.51
X115.32Y-154.36
X115.93Y-137.49
X117.33Y-151.46
X119.39Y-131.44
X119.69Y-134.13
X120.745Y-141.71
X121.38Y-138.09
X121.795Y-141.71
X123.156Y-146.99
X123.76Y-133.35
X123.9Y-135.028
X125.25Y-135.778
X125.48Y-151.32
X125.61Y-153.08
X126.986Y-145.9
X127.22Y-153.34
X128.18Y-134.86
X128.2Y-137.16
X128.51Y-141.0
X128.744Y-152.578
X130.91Y-157.73
X131.13Y-133.54
X131.39Y-142.58
X131.5Y-138.8
X131.8Y-147.88
X132.08Y-136.06
X134.039Y-150.777
X135.75Y-154.982
X135.83Y-129.75
X135.995Y-149.65
X137.3Y-141.85
X137.5Y-132.61
X137.735Y-146.32
X138.68Y-157.33
X138.904Y-155.372
X141.444Y-150.292
X141.51Y-140.3
X141.52Y-133.48
X141.56Y-130.79
X141.64Y-149.022
T2
X134.795Y-151.954
X135.745Y-151.548
X135.745Y-152.529
X136.609Y-151.954
T3
X136.63Y-146.0
T4
X125.04Y-157.18
X125.78Y-155.27
X138.595Y-153.354
T6
X107.662Y-151.054
X107.662Y-155.626
X137.42Y-129.544
X137.42Y-134.544
X139.92Y-129.544
X139.92Y-132.044
X139.92Y-134.544
T5
G00X107.318Y-137.432
M15
G01X107.818Y-137.432
M16
G05
G00X107.318Y-146.072
M15
G01X107.818Y-146.072
M16
G05
G00X111.248Y-137.432
M15
G01X112.248Y-137.432
M16
G05
G00X111.248Y-146.072
M15
G01X112.248Y-146.072
M16
G05
T7
G00X138.59Y-125.814
M15
G01X138.99Y-125.814
M16
G05
G00X138.59Y-138.324
M15
G01X138.99Y-138.324
M16
G05
M30
